LXGWWenKai-Light.ufo
<glyph name="exclam" format="2">
  <advance height="1000" width="350"/>
  <unicode hex="0021"/>
  <outline>
    <contour>
      <point x="146" y="695" type="line"/>
      <point x="146" y="711"/>
      <point x="180" y="711"/>
      <point x="213" y="693"/>
      <point x="213" y="682" type="qcurve"/>
      <point x="213" y="680" type="line"/>
      <point x="212" y="664"/>
      <point x="208" y="627"/>
      <point x="207" y="609" type="qcurve"/>
      <point x="199" y="223" type="line"/>
      <point x="199" y="173" type="line"/>
      <point x="199" y="166"/>
      <point x="176" y="166"/>
      <point x="151" y="178"/>
      <point x="151" y="187" type="qcurve"/>
      <point x="151" y="188" type="line"/>
      <point x="153" y="204"/>
      <point x="153" y="227" type="qcurve"/>
      <point x="151" y="614" type="line"/>
      <point x="151" y="663"/>
      <point x="146" y="693" type="qcurve"/>
    </contour>
    <contour>
      <point x="181" y="-5" type="qcurve"/>
      <point x="161" y="-5"/>
      <point x="130" y="32"/>
      <point x="130" y="71"/>
      <point x="151" y="95"/>
      <point x="189" y="95"/>
      <point x="221" y="57"/>
      <point x="221" y="37" type="qcurve"/>
      <point x="221" y="-5"/>
    </contour>
  </outline>
</glyph>
<glyph name="quotedbl" format="2">
  <advance height="1000" width="350"/>
  <unicode hex="0022"/>
  <outline>
    <contour>
      <point x="239" y="723" type="qcurve"/>
      <point x="269" y="723"/>
      <point x="269" y="703" type="qcurve"/>
      <point x="263" y="492" type="line"/>
      <point x="263" y="485"/>
      <point x="248" y="477"/>
      <point x="239" y="477" type="qcurve"/>
      <point x="230" y="477"/>
      <point x="215" y="485"/>
      <point x="215" y="492" type="qcurve"/>
      <point x="209" y="703" type="line"/>
      <point x="209" y="723"/>
    </contour>
    <contour>
      <point x="111" y="723" type="qcurve"/>
      <point x="141" y="723"/>
      <point x="141" y="703" type="qcurve"/>
      <point x="135" y="492" type="line"/>
      <point x="135" y="485"/>
      <point x="120" y="477"/>
      <point x="111" y="477" type="qcurve"/>
      <point x="102" y="477"/>
      <point x="87" y="485"/>
      <point x="87" y="492" type="qcurve"/>
      <point x="81" y="703" type="line"/>
      <point x="81" y="723"/>
    </contour>
  </outline>
</glyph>
<glyph name="numbersign" format="2">
  <advance height="1000" width="600"/>
  <unicode hex="0023"/>
  <outline>
    <contour>
      <point x="338" y="7" type="qcurve"/>
      <point x="338" y="9" type="line"/>
      <point x="341" y="22"/>
      <point x="350" y="57"/>
      <point x="352" y="74" type="qcurve"/>
      <point x="371" y="212" type="line"/>
      <point x="202" y="212" type="line"/>
      <point x="183" y="72" type="line"/>
      <point x="181" y="54"/>
      <point x="179" y="24"/>
      <point x="178" y="13" type="qcurve"/>
      <point x="175" y="-6"/>
      <point x="121" y="-6"/>
      <point x="121" y="7" type="qcurve"/>
      <point x="121" y="9" type="line"/>
      <point x="124" y="22"/>
      <point x="132" y="55"/>
      <point x="135" y="74" type="qcurve"/>
      <point x="154" y="212" type="line"/>
      <point x="138" y="212" type="line"/>
      <point x="80" y="212"/>
      <point x="62" y="209" type="qcurve"/>
      <point x="60" y="209" type="line"/>
      <point x="52" y="209"/>
      <point x="42" y="230"/>
      <point x="42" y="241" type="qcurve"/>
      <point x="42" y="262"/>
      <point x="57" y="262" type="qcurve"/>
      <point x="87" y="260"/>
      <point x="139" y="260" type="qcurve"/>
      <point x="160" y="260" type="line"/>
      <point x="188" y="467" type="line"/>
      <point x="164" y="467" type="line"/>
      <point x="108" y="467"/>
      <point x="88" y="464" type="qcurve"/>
      <point x="87" y="464" type="line"/>
      <point x="79" y="464"/>
      <point x="68" y="486"/>
      <point x="68" y="517"/>
      <point x="83" y="517" type="qcurve"/>
      <point x="113" y="515"/>
      <point x="165" y="515" type="qcurve"/>
      <point x="195" y="515" type="line"/>
      <point x="215" y="662" type="line"/>
      <point x="217" y="670"/>
      <point x="219" y="705" type="qcurve"/>
      <point x="219" y="716"/>
      <point x="251" y="716"/>
      <point x="273" y="706"/>
      <point x="273" y="698" type="qcurve"/>
      <point x="270" y="686"/>
      <point x="264" y="666"/>
      <point x="263" y="660" type="qcurve"/>
      <point x="243" y="515" type="line"/>
      <point x="412" y="515" type="line"/>
      <point x="432" y="662" type="line"/>
      <point x="434" y="670"/>
      <point x="436" y="705" type="qcurve"/>
      <point x="436" y="716"/>
      <point x="468" y="716"/>
      <point x="490" y="706"/>
      <point x="490" y="698" type="qcurve"/>
      <point x="484" y="674" type="line"/>
      <point x="481" y="665"/>
      <point x="480" y="660" type="qcurve"/>
      <point x="460" y="515" type="line"/>
      <point x="480" y="515" type="line"/>
      <point x="509" y="515"/>
      <point x="551" y="518" type="qcurve"/>
      <point x="552" y="518" type="line"/>
      <point x="561" y="518"/>
      <point x="572" y="498"/>
      <point x="572" y="487" type="qcurve"/>
      <point x="572" y="466"/>
      <point x="557" y="466" type="qcurve"/>
      <point x="535" y="467"/>
      <point x="513" y="467" type="qcurve"/>
      <point x="454" y="467" type="line"/>
      <point x="425" y="260" type="line"/>
      <point x="454" y="260" type="line"/>
      <point x="483" y="260"/>
      <point x="525" y="263" type="qcurve"/>
      <point x="526" y="263" type="line"/>
      <point x="535" y="263"/>
      <point x="546" y="243"/>
      <point x="546" y="232" type="qcurve"/>
      <point x="546" y="211"/>
      <point x="531" y="211" type="qcurve"/>
      <point x="509" y="212"/>
      <point x="492" y="212" type="qcurve"/>
      <point x="419" y="212" type="line"/>
      <point x="400" y="72" type="line"/>
      <point x="398" y="53"/>
      <point x="396" y="24"/>
      <point x="394" y="13" type="qcurve"/>
      <point x="392" y="-6"/>
      <point x="338" y="-6"/>
    </contour>
    <contour>
      <point x="405" y="467" type="line"/>
      <point x="237" y="467" type="line"/>
      <point x="208" y="260" type="line"/>
      <point x="377" y="260" type="line"/>
    </contour>
  </outline>
</glyph>
<glyph name="dollar" format="2">
  <advance height="1000" width="600"/>
  <unicode hex="0024"/>
  <outline>
    <contour>
      <point x="275" y="-98" type="qcurve"/>
      <point x="277" y="-14" type="line"/>
      <point x="131" y="-8"/>
      <point x="42" y="93" type="qcurve"/>
      <point x="37" y="98"/>
      <point x="37" y="123"/>
      <point x="60" y="152"/>
      <point x="78" y="152"/>
      <point x="82" y="145" type="qcurve"/>
      <point x="139" y="62"/>
      <point x="227" y="46" type="qcurve"/>
      <point x="261" y="39"/>
      <point x="277" y="38" type="qcurve"/>
      <point x="277" y="364" type="line"/>
      <point x="228" y="377" type="line"/>
      <point x="155" y="397"/>
      <point x="70" y="461"/>
      <point x="70" y="526" type="qcurve"/>
      <point x="70" y="570"/>
      <point x="123" y="649"/>
      <point x="216" y="702"/>
      <point x="276" y="708" type="qcurve"/>
      <point x="274" y="738"/>
      <point x="274" y="761" type="qcurve"/>
      <point x="274" y="770"/>
      <point x="303" y="770"/>
      <point x="331" y="758"/>
      <point x="331" y="747" type="qcurve"/>
      <point x="330" y="708" type="line"/>
      <point x="380" y="704"/>
      <point x="463" y="672"/>
      <point x="513" y="631"/>
      <point x="513" y="602"/>
      <point x="498" y="570"/>
      <point x="490" y="570" type="qcurve"/>
      <point x="485" y="570"/>
      <point x="468" y="587" type="qcurve"/>
      <point x="419" y="643"/>
      <point x="329" y="656" type="qcurve"/>
      <point x="329" y="403" type="line"/>
      <point x="360" y="395" type="line"/>
      <point x="455" y="370"/>
      <point x="549" y="272"/>
      <point x="549" y="192" type="qcurve"/>
      <point x="549" y="139"/>
      <point x="498" y="51"/>
      <point x="400" y="-6"/>
      <point x="329" y="-12" type="qcurve"/>
      <point x="332" y="-114" type="line"/>
      <point x="332" y="-122"/>
      <point x="304" y="-122"/>
      <point x="275" y="-109"/>
    </contour>
    <contour>
      <point x="277" y="655" type="line"/>
      <point x="233" y="649"/>
      <point x="165" y="608"/>
      <point x="128" y="552"/>
      <point x="128" y="484"/>
      <point x="186" y="441"/>
      <point x="253" y="423" type="qcurve"/>
      <point x="277" y="417" type="line"/>
    </contour>
    <contour>
      <point x="329" y="350" type="line"/>
      <point x="329" y="40" type="line"/>
      <point x="427" y="52"/>
      <point x="471" y="118" type="qcurve"/>
      <point x="492" y="149"/>
      <point x="492" y="184" type="qcurve"/>
      <point x="492" y="248"/>
      <point x="422" y="325"/>
      <point x="344" y="346" type="qcurve"/>
    </contour>
  </outline>
</glyph>
<glyph name="percent" format="2">
  <advance height="1000" width="800"/>
  <unicode hex="0025"/>
  <outline>
    <contour>
      <point x="557" y="650" type="line"/>
      <point x="588" y="699"/>
      <point x="599" y="723" type="qcurve"/>
      <point x="603" y="732"/>
      <point x="622" y="732"/>
      <point x="644" y="701"/>
      <point x="644" y="686"/>
      <point x="642" y="682" type="qcurve"/>
      <point x="616" y="650"/>
      <point x="596" y="619" type="qcurve"/>
      <point x="222" y="37" type="line"/>
      <point x="203" y="6"/>
      <point x="185" y="-26" type="qcurve"/>
      <point x="182" y="-33"/>
      <point x="165" y="-33"/>
      <point x="144" y="-6"/>
      <point x="144" y="13"/>
      <point x="152" y="22" type="qcurve"/>
      <point x="172" y="47"/>
      <point x="187" y="70" type="qcurve"/>
    </contour>
    <contour>
      <point x="131" y="692" type="qcurve"/>
      <point x="162" y="723"/>
      <point x="258" y="723"/>
      <point x="290" y="699" type="qcurve"/>
      <point x="354" y="651"/>
      <point x="354" y="547" type="qcurve"/>
      <point x="354" y="444"/>
      <point x="290" y="397" type="qcurve"/>
      <point x="258" y="373"/>
      <point x="208" y="373" type="qcurve"/>
      <point x="130" y="373"/>
      <point x="56" y="470"/>
      <point x="56" y="547" type="qcurve"/>
      <point x="56" y="626"/>
      <point x="94" y="676" type="qcurve"/>
      <point x="109" y="696"/>
      <point x="127" y="696"/>
    </contour>
    <contour>
      <point x="145" y="438" type="qcurve"/>
      <point x="167" y="418"/>
      <point x="259" y="418"/>
      <point x="305" y="493"/>
      <point x="305" y="583"/>
      <point x="286" y="641"/>
      <point x="243" y="678"/>
      <point x="185" y="678"/>
      <point x="161" y="664" type="qcurve"/>
      <point x="106" y="634"/>
      <point x="106" y="547" type="qcurve"/>
      <point x="106" y="472"/>
    </contour>
    <contour>
      <point x="521" y="303" type="qcurve"/>
      <point x="552" y="334"/>
      <point x="648" y="334"/>
      <point x="680" y="310" type="qcurve"/>
      <point x="744" y="262"/>
      <point x="744" y="158" type="qcurve"/>
      <point x="744" y="55"/>
      <point x="680" y="8" type="qcurve"/>
      <point x="648" y="-16"/>
      <point x="598" y="-16" type="qcurve"/>
      <point x="520" y="-16"/>
      <point x="446" y="81"/>
      <point x="446" y="158" type="qcurve"/>
      <point x="446" y="237"/>
      <point x="484" y="286" type="qcurve"/>
      <point x="499" y="307"/>
      <point x="517" y="307"/>
    </contour>
    <contour>
      <point x="535" y="48" type="qcurve"/>
      <point x="557" y="29"/>
      <point x="649" y="29"/>
      <point x="695" y="104"/>
      <point x="695" y="194"/>
      <point x="676" y="252"/>
      <point x="633" y="289"/>
      <point x="575" y="289"/>
      <point x="551" y="276" type="qcurve"/>
      <point x="496" y="245"/>
      <point x="496" y="158" type="qcurve"/>
      <point x="496" y="83"/>
    </contour>
  </outline>
</glyph>
<glyph name="ampersand" format="2">
  <advance height="1000" width="700"/>
  <unicode hex="0026"/>
  <outline>
    <contour>
      <point x="440" y="591" type="qcurve"/>
      <point x="440" y="498"/>
      <point x="287" y="389" type="qcurve"/>
      <point x="375" y="281"/>
      <point x="487" y="165" type="qcurve"/>
      <point x="553" y="257"/>
      <point x="578" y="361" type="qcurve"/>
      <point x="580" y="372"/>
      <point x="585" y="399"/>
      <point x="597" y="399" type="qcurve"/>
      <point x="599" y="399"/>
      <point x="609" y="394" type="qcurve"/>
      <point x="639" y="381"/>
      <point x="639" y="360" type="qcurve"/>
      <point x="639" y="328"/>
      <point x="564" y="188" type="qcurve"/>
      <point x="545" y="152"/>
      <point x="526" y="126" type="qcurve"/>
      <point x="605" y="42"/>
      <point x="658" y="23" type="qcurve"/>
      <point x="698" y="8"/>
      <point x="698" y="-5" type="qcurve"/>
      <point x="698" y="-13"/>
      <point x="635" y="-13"/>
      <point x="583" y="6"/>
      <point x="530" y="49"/>
      <point x="493" y="86" type="qcurve"/>
      <point x="401" y="-15"/>
      <point x="263" y="-15" type="qcurve"/>
      <point x="151" y="-15"/>
      <point x="54" y="77"/>
      <point x="54" y="232"/>
      <point x="143" y="350"/>
      <point x="213" y="400" type="qcurve"/>
      <point x="148" y="482"/>
      <point x="148" y="558" type="qcurve"/>
      <point x="148" y="603"/>
      <point x="191" y="671"/>
      <point x="264" y="710"/>
      <point x="370" y="710"/>
      <point x="440" y="651"/>
    </contour>
    <contour>
      <point x="254" y="429" type="qcurve"/>
      <point x="329" y="477"/>
      <point x="367" y="536" type="qcurve"/>
      <point x="385" y="564"/>
      <point x="385" y="587" type="qcurve"/>
      <point x="385" y="666"/>
      <point x="307" y="666" type="qcurve"/>
      <point x="281" y="666"/>
      <point x="257" y="652" type="qcurve"/>
      <point x="203" y="619"/>
      <point x="203" y="554" type="qcurve"/>
      <point x="203" y="493"/>
    </contour>
    <contour>
      <point x="245" y="361" type="qcurve"/>
      <point x="109" y="270"/>
      <point x="109" y="155" type="qcurve"/>
      <point x="109" y="100"/>
      <point x="182" y="31"/>
      <point x="261" y="31" type="qcurve"/>
      <point x="301" y="31"/>
      <point x="408" y="72"/>
      <point x="456" y="125" type="qcurve"/>
      <point x="344" y="243"/>
    </contour>
  </outline>
</glyph>
<glyph name="quotesingle" format="2">
  <advance height="1000" width="350"/>
  <unicode hex="0027"/>
  <outline>
    <contour>
      <point x="175" y="723" type="qcurve"/>
      <point x="205" y="723"/>
      <point x="205" y="703" type="qcurve"/>
      <point x="199" y="492" type="line"/>
      <point x="199" y="485"/>
      <point x="184" y="477"/>
      <point x="175" y="477" type="qcurve"/>
      <point x="166" y="477"/>
      <point x="151" y="485"/>
      <point x="151" y="492" type="qcurve"/>
      <point x="145" y="703" type="line"/>
      <point x="145" y="723"/>
    </contour>
  </outline>
</glyph>
<glyph name="parenleft" format="2">
  <advance height="1000" width="350"/>
  <unicode hex="0028"/>
  <outline>
    <contour>
      <point x="314" y="-140" type="qcurve"/>
      <point x="314" y="-157"/>
      <point x="299" y="-157" type="qcurve"/>
      <point x="290" y="-157"/>
      <point x="245" y="-114"/>
      <point x="189" y="-35"/>
      <point x="162" y="20" type="qcurve"/>
      <point x="102" y="146"/>
      <point x="102" y="286" type="qcurve"/>
      <point x="102" y="416"/>
      <point x="152" y="556" type="qcurve"/>
      <point x="204" y="698"/>
      <point x="289" y="783" type="qcurve"/>
      <point x="295" y="789"/>
      <point x="311" y="789"/>
      <point x="322" y="780"/>
      <point x="322" y="769"/>
      <point x="317" y="762" type="qcurve"/>
      <point x="243" y="675"/>
      <point x="201" y="530" type="qcurve"/>
      <point x="163" y="398"/>
      <point x="163" y="286" type="qcurve"/>
      <point x="163" y="180"/>
      <point x="200" y="66" type="qcurve"/>
      <point x="241" y="-59"/>
      <point x="306" y="-122" type="qcurve"/>
      <point x="314" y="-130"/>
    </contour>
  </outline>
</glyph>
<glyph name="parenright" format="2">
  <advance height="1000" width="350"/>
  <unicode hex="0029"/>
  <outline>
    <contour>
      <point x="50" y="-157" type="qcurve"/>
      <point x="35" y="-157"/>
      <point x="35" y="-140" type="qcurve"/>
      <point x="35" y="-130"/>
      <point x="43" y="-122" type="qcurve"/>
      <point x="108" y="-59"/>
      <point x="148" y="66" type="qcurve"/>
      <point x="186" y="180"/>
      <point x="186" y="286" type="qcurve"/>
      <point x="186" y="398"/>
      <point x="148" y="530" type="qcurve"/>
      <point x="106" y="675"/>
      <point x="32" y="762" type="qcurve"/>
      <point x="27" y="769"/>
      <point x="27" y="780"/>
      <point x="38" y="789"/>
      <point x="54" y="789"/>
      <point x="60" y="783" type="qcurve"/>
      <point x="145" y="698"/>
      <point x="196" y="556" type="qcurve"/>
      <point x="247" y="416"/>
      <point x="247" y="286" type="qcurve"/>
      <point x="247" y="146"/>
      <point x="186" y="20" type="qcurve"/>
      <point x="137" y="-82"/>
      <point x="82" y="-136" type="qcurve"/>
      <point x="59" y="-157"/>
    </contour>
  </outline>
</glyph>
<glyph name="asterisk" format="2">
  <advance height="1000" width="500"/>
  <unicode hex="002A"/>
  <outline>
    <contour>
      <point x="215" y="695" type="qcurve"/>
      <point x="215" y="714"/>
      <point x="246" y="714" type="qcurve"/>
      <point x="249" y="714" type="line"/>
      <point x="266" y="714"/>
      <point x="275" y="703"/>
      <point x="275" y="688"/>
      <point x="274" y="684" type="qcurve"/>
      <point x="262" y="566" type="line"/>
      <point x="308" y="586"/>
      <point x="345" y="605" type="qcurve"/>
      <point x="388" y="629"/>
      <point x="406" y="629"/>
      <point x="419" y="599"/>
      <point x="419" y="577"/>
      <point x="403" y="570"/>
      <point x="379" y="565"/>
      <point x="356" y="560" type="qcurve"/>
      <point x="295" y="547"/>
      <point x="272" y="541" type="qcurve"/>
      <point x="297" y="511" type="line"/>
      <point x="337" y="463"/>
      <point x="358" y="442"/>
      <point x="366" y="433"/>
      <point x="366" y="420"/>
      <point x="339" y="395"/>
      <point x="328" y="395" type="qcurve"/>
      <point x="312" y="395"/>
      <point x="306" y="414" type="qcurve"/>
      <point x="300" y="429"/>
      <point x="279" y="470"/>
      <point x="258" y="512"/>
      <point x="250" y="525" type="qcurve"/>
      <point x="208" y="451"/>
      <point x="194" y="410" type="qcurve"/>
      <point x="192" y="406"/>
      <point x="184" y="392"/>
      <point x="162" y="392"/>
      <point x="135" y="416"/>
      <point x="135" y="422" type="qcurve"/>
      <point x="135" y="433"/>
      <point x="155" y="454"/>
      <point x="170" y="471" type="qcurve"/>
      <point x="208" y="516"/>
      <point x="224" y="537" type="qcurve"/>
      <point x="165" y="548"/>
      <point x="109" y="550" type="qcurve"/>
      <point x="103" y="551"/>
      <point x="85" y="556"/>
      <point x="85" y="592"/>
      <point x="90" y="600" type="qcurve"/>
      <point x="98" y="611"/>
      <point x="105" y="611" type="qcurve"/>
      <point x="114" y="611"/>
      <point x="130" y="604" type="qcurve"/>
      <point x="151" y="594"/>
      <point x="234" y="564" type="qcurve"/>
      <point x="231" y="604"/>
      <point x="215" y="690"/>
    </contour>
  </outline>
</glyph>
<glyph name="plus" format="2">
  <advance height="1000" width="600"/>
  <unicode hex="002B"/>
  <outline>
    <contour>
      <point x="324" y="90" type="line"/>
      <point x="325" y="12" type="line"/>
      <point x="325" y="5"/>
      <point x="312" y="-3"/>
      <point x="293" y="-3"/>
      <point x="273" y="8"/>
      <point x="273" y="17" type="qcurve"/>
      <point x="273" y="18" type="line"/>
      <point x="276" y="50"/>
      <point x="276" y="89" type="qcurve"/>
      <point x="276" y="227" type="line"/>
      <point x="147" y="227" type="line"/>
      <point x="89" y="227"/>
      <point x="71" y="224" type="qcurve"/>
      <point x="69" y="224" type="line"/>
      <point x="61" y="224"/>
      <point x="51" y="245"/>
      <point x="51" y="256" type="qcurve"/>
      <point x="51" y="277"/>
      <point x="66" y="277" type="qcurve"/>
      <point x="96" y="275"/>
      <point x="148" y="275" type="qcurve"/>
      <point x="276" y="275" type="line"/>
      <point x="276" y="398" type="line"/>
      <point x="276" y="450"/>
      <point x="274" y="480" type="qcurve"/>
      <point x="274" y="495"/>
      <point x="305" y="495"/>
      <point x="327" y="485"/>
      <point x="327" y="477" type="qcurve"/>
      <point x="327" y="475" type="line"/>
      <point x="324" y="439"/>
      <point x="324" y="399" type="qcurve"/>
      <point x="324" y="275" type="line"/>
      <point x="455" y="275" type="line"/>
      <point x="463" y="275"/>
      <point x="526" y="278" type="qcurve"/>
      <point x="527" y="278" type="line"/>
      <point x="536" y="278"/>
      <point x="547" y="258"/>
      <point x="547" y="247" type="qcurve"/>
      <point x="547" y="226"/>
      <point x="532" y="226" type="qcurve"/>
      <point x="454" y="227" type="line"/>
      <point x="324" y="227" type="line"/>
    </contour>
  </outline>
</glyph>
<glyph name="comma" format="2">
  <advance height="1000" width="350"/>
  <unicode hex="002C"/>
  <outline>
    <contour>
      <point x="173" y="97" type="qcurve"/>
      <point x="193" y="97"/>
      <point x="221" y="62"/>
      <point x="225" y="28" type="qcurve"/>
      <point x="225" y="-17"/>
      <point x="183" y="-60" type="qcurve"/>
      <point x="145" y="-100"/>
      <point x="118" y="-100" type="qcurve"/>
      <point x="105" y="-100"/>
      <point x="105" y="-87" type="qcurve"/>
      <point x="105" y="-79"/>
      <point x="132" y="-61"/>
      <point x="164" y="-23"/>
      <point x="168" y="-5" type="qcurve"/>
      <point x="165" y="-4"/>
      <point x="156" y="2"/>
      <point x="147" y="9"/>
      <point x="130" y="35"/>
      <point x="130" y="51" type="qcurve"/>
      <point x="130" y="97"/>
    </contour>
  </outline>
</glyph>
<glyph name="period" format="2">
  <advance height="1000" width="350"/>
  <unicode hex="002E"/>
  <outline>
    <contour>
      <point x="180" y="-8" type="qcurve"/>
      <point x="159" y="-8"/>
      <point x="127" y="32"/>
      <point x="127" y="51" type="qcurve"/>
      <point x="127" y="97"/>
      <point x="170" y="97" type="qcurve"/>
      <point x="189" y="97"/>
      <point x="223" y="58"/>
      <point x="223" y="37" type="qcurve"/>
      <point x="223" y="-8"/>
    </contour>
  </outline>
</glyph>
<glyph name="zero" format="2">
  <advance height="1000" width="600"/>
  <unicode hex="0030"/>
  <outline>
    <contour>
      <point x="129" y="605"/>
      <point x="162" y="657"/>
      <point x="186" y="657"/>
      <point x="194" y="644" type="qcurve"/>
      <point x="250" y="711"/>
      <point x="385" y="711"/>
      <point x="432" y="664" type="qcurve"/>
      <point x="526" y="572"/>
      <point x="526" y="354" type="qcurve"/>
      <point x="526" y="200"/>
      <point x="470" y="96" type="qcurve"/>
      <point x="410" y="-16"/>
      <point x="300" y="-16" type="qcurve"/>
      <point x="183" y="-16"/>
      <point x="126" y="88" type="qcurve"/>
      <point x="75" y="181"/>
      <point x="75" y="337" type="qcurve"/>
      <point x="75" y="455"/>
      <point x="113" y="560" type="qcurve"/>
    </contour>
    <contour>
      <point x="135" y="339" type="qcurve"/>
      <point x="135" y="37"/>
      <point x="297" y="37" type="qcurve"/>
      <point x="354" y="37"/>
      <point x="392" y="81" type="qcurve"/>
      <point x="466" y="168"/>
      <point x="466" y="360" type="qcurve"/>
      <point x="466" y="482"/>
      <point x="430" y="565" type="qcurve"/>
      <point x="390" y="658"/>
      <point x="309" y="658" type="qcurve"/>
      <point x="285" y="658"/>
      <point x="225" y="616"/>
      <point x="198" y="576" type="qcurve"/>
      <point x="135" y="483"/>
    </contour>
  </outline>
</glyph>
<glyph name="one" format="2">
  <advance height="1000" width="600"/>
  <unicode hex="0031"/>
  <outline>
    <contour>
      <point x="284" y="17" type="qcurve"/>
      <point x="286" y="105" type="line"/>
      <point x="286" y="616" type="line"/>
      <point x="230" y="583"/>
      <point x="189" y="574" type="qcurve"/>
      <point x="186" y="573"/>
      <point x="167" y="573"/>
      <point x="139" y="587"/>
      <point x="139" y="601"/>
      <point x="150" y="605" type="qcurve"/>
      <point x="218" y="632"/>
      <point x="271" y="673" type="qcurve"/>
      <point x="275" y="676"/>
      <point x="282" y="684" type="qcurve"/>
      <point x="303" y="708"/>
      <point x="325" y="708"/>
      <point x="351" y="685"/>
      <point x="351" y="659"/>
      <point x="345" y="622"/>
      <point x="345" y="600" type="qcurve"/>
      <point x="345" y="111" type="line"/>
      <point x="347" y="-1" type="line"/>
      <point x="347" y="-11"/>
      <point x="317" y="-11"/>
      <point x="284" y="4"/>
    </contour>
  </outline>
</glyph>
<glyph name="two" format="2">
  <advance height="1000" width="600"/>
  <unicode hex="0032"/>
  <outline>
    <contour>
      <point x="368" y="9" type="qcurve"/>
      <point x="245" y="9" type="line"/>
      <point x="164" y="9"/>
      <point x="103" y="-2" type="qcurve"/>
      <point x="98" y="-2" type="line"/>
      <point x="82" y="-2"/>
      <point x="59" y="28"/>
      <point x="59" y="51"/>
      <point x="69" y="67"/>
      <point x="81" y="80"/>
      <point x="85" y="87" type="qcurve"/>
      <point x="114" y="137"/>
      <point x="237" y="275"/>
      <point x="385" y="397"/>
      <point x="460" y="498"/>
      <point x="460" y="593"/>
      <point x="391" y="657"/>
      <point x="267" y="657"/>
      <point x="176" y="596"/>
      <point x="159" y="552" type="qcurve"/>
      <point x="151" y="528"/>
      <point x="135" y="528" type="qcurve"/>
      <point x="125" y="528"/>
      <point x="100" y="554"/>
      <point x="100" y="579"/>
      <point x="127" y="624"/>
      <point x="155" y="650" type="qcurve"/>
      <point x="223" y="711"/>
      <point x="419" y="711"/>
      <point x="522" y="620"/>
      <point x="522" y="483"/>
      <point x="435" y="365"/>
      <point x="360" y="302" type="qcurve"/>
      <point x="205" y="173"/>
      <point x="134" y="56" type="qcurve"/>
      <point x="184" y="61"/>
      <point x="294" y="61" type="qcurve"/>
      <point x="440" y="60" type="line"/>
      <point x="505" y="61" type="line"/>
      <point x="517" y="61"/>
      <point x="538" y="30"/>
      <point x="538" y="1"/>
      <point x="524" y="1" type="qcurve"/>
      <point x="514" y="1"/>
      <point x="490" y="4" type="qcurve"/>
      <point x="439" y="9"/>
    </contour>
  </outline>
</glyph>
<glyph name="three" format="2">
  <advance height="1000" width="600"/>
  <unicode hex="0033"/>
  <outline>
    <contour>
      <point x="359" y="390" type="line"/>
      <point x="406" y="390"/>
      <point x="486" y="348"/>
      <point x="535" y="271"/>
      <point x="535" y="155"/>
      <point x="479" y="48"/>
      <point x="363" y="-16"/>
      <point x="207" y="-16"/>
      <point x="109" y="25"/>
      <point x="68" y="64" type="qcurve"/>
      <point x="61" y="71"/>
      <point x="61" y="100"/>
      <point x="79" y="130"/>
      <point x="97" y="130"/>
      <point x="101" y="124" type="qcurve"/>
      <point x="134" y="84"/>
      <point x="213" y="37"/>
      <point x="342" y="37"/>
      <point x="432" y="89"/>
      <point x="476" y="171"/>
      <point x="476" y="217" type="qcurve"/>
      <point x="476" y="279"/>
      <point x="385" y="355"/>
      <point x="316" y="355" type="qcurve"/>
      <point x="283" y="355"/>
      <point x="240" y="347"/>
      <point x="236" y="346"/>
      <point x="219" y="346"/>
      <point x="200" y="373"/>
      <point x="200" y="397"/>
      <point x="211" y="398" type="qcurve"/>
      <point x="280" y="405"/>
      <point x="386" y="450"/>
      <point x="445" y="514"/>
      <point x="445" y="601"/>
      <point x="377" y="659"/>
      <point x="270" y="659"/>
      <point x="229" y="640" type="qcurve"/>
      <point x="183" y="618"/>
      <point x="140" y="568" type="qcurve"/>
      <point x="135" y="561"/>
      <point x="117" y="561"/>
      <point x="104" y="579"/>
      <point x="97" y="599"/>
      <point x="97" y="600" type="qcurve"/>
      <point x="97" y="611"/>
      <point x="130" y="648"/>
      <point x="160" y="666" type="qcurve"/>
      <point x="230" y="711"/>
      <point x="400" y="711"/>
      <point x="503" y="630"/>
      <point x="503" y="494"/>
      <point x="414" y="407"/>
      <point x="347" y="390" type="qcurve"/>
    </contour>
  </outline>
</glyph>
<glyph name="four" format="2">
  <advance height="1000" width="600"/>
  <unicode hex="0034"/>
  <outline>
    <contour>
      <point x="559" y="161" type="qcurve"/>
      <point x="466" y="163" type="line"/>
      <point x="441" y="162" type="line"/>
      <point x="441" y="103" type="line"/>
      <point x="445" y="-1" type="line"/>
      <point x="445" y="-11"/>
      <point x="414" y="-11"/>
      <point x="382" y="4"/>
      <point x="382" y="17" type="qcurve"/>
      <point x="384" y="105" type="line"/>
      <point x="384" y="159" type="line"/>
      <point x="141" y="147" type="line"/>
      <point x="125" y="147"/>
      <point x="101" y="140"/>
      <point x="82" y="140"/>
      <point x="53" y="168"/>
      <point x="53" y="195"/>
      <point x="69" y="218"/>
      <point x="88" y="241"/>
      <point x="95" y="251" type="qcurve"/>
      <point x="282" y="546"/>
      <point x="309" y="596" type="qcurve"/>
      <point x="342" y="658"/>
      <point x="361" y="703" type="qcurve"/>
      <point x="364" y="710"/>
      <point x="381" y="710"/>
      <point x="412" y="676"/>
      <point x="412" y="654"/>
      <point x="409" y="649" type="qcurve"/>
      <point x="373" y="593" type="line"/>
      <point x="205" y="320"/>
      <point x="121" y="198" type="qcurve"/>
      <point x="384" y="209" type="line"/>
      <point x="384" y="418" type="line"/>
      <point x="381" y="525" type="line"/>
      <point x="381" y="535"/>
      <point x="412" y="535"/>
      <point x="443" y="520"/>
      <point x="443" y="507" type="qcurve"/>
      <point x="441" y="418" type="line"/>
      <point x="441" y="212" type="line"/>
      <point x="465" y="213" type="line"/>
      <point x="485" y="214"/>
      <point x="528" y="219"/>
      <point x="551" y="219"/>
      <point x="570" y="188"/>
      <point x="570" y="161"/>
    </contour>
  </outline>
</glyph>
<glyph name="five" format="2">
  <advance height="1000" width="600"/>
  <unicode hex="0035"/>
  <outline>
    <contour>
      <point x="156" y="383" type="line"/>
      <point x="228" y="439"/>
      <point x="314" y="439" type="qcurve"/>
      <point x="322" y="439" type="line"/>
      <point x="377" y="438"/>
      <point x="474" y="387"/>
      <point x="535" y="292"/>
      <point x="535" y="161"/>
      <point x="482" y="51"/>
      <point x="369" y="-17"/>
      <point x="214" y="-17"/>
      <point x="110" y="36"/>
      <point x="73" y="75" type="qcurve"/>
      <point x="66" y="82"/>
      <point x="66" y="112"/>
      <point x="86" y="144"/>
      <point x="103" y="144"/>
      <point x="107" y="137" type="qcurve"/>
      <point x="134" y="98"/>
      <point x="220" y="39"/>
      <point x="278" y="38" type="qcurve"/>
      <point x="280" y="38" type="line"/>
      <point x="348" y="38"/>
      <point x="434" y="90"/>
      <point x="476" y="175"/>
      <point x="476" y="223" type="qcurve"/>
      <point x="476" y="300"/>
      <point x="384" y="386"/>
      <point x="313" y="387" type="qcurve"/>
      <point x="236" y="387"/>
      <point x="182" y="348" type="qcurve"/>
      <point x="159" y="330"/>
      <point x="137" y="310" type="qcurve"/>
      <point x="133" y="307"/>
      <point x="116" y="307"/>
      <point x="93" y="331"/>
      <point x="93" y="354"/>
      <point x="94" y="358" type="qcurve"/>
      <point x="104" y="393" type="line"/>
      <point x="142" y="636" type="line"/>
      <point x="144" y="647"/>
      <point x="144" y="658" type="qcurve"/>
      <point x="144" y="679" type="line"/>
      <point x="144" y="691"/>
      <point x="176" y="691"/>
      <point x="198" y="679" type="qcurve"/>
      <point x="407" y="694" type="line"/>
      <point x="456" y="697"/>
      <point x="474" y="700" type="qcurve"/>
      <point x="476" y="700" type="line"/>
      <point x="487" y="700"/>
      <point x="506" y="671"/>
      <point x="506" y="645"/>
      <point x="494" y="645" type="qcurve"/>
      <point x="481" y="644"/>
      <point x="437" y="643"/>
      <point x="415" y="641" type="qcurve"/>
      <point x="195" y="625" type="line"/>
    </contour>
  </outline>
</glyph>
<glyph name="six" format="2">
  <advance height="1000" width="600"/>
  <unicode hex="0036"/>
  <outline>
    <contour>
      <point x="147" y="341" type="qcurve"/>
      <point x="176" y="384"/>
      <point x="267" y="432"/>
      <point x="380" y="432"/>
      <point x="479" y="379"/>
      <point x="539" y="287"/>
      <point x="539" y="162"/>
      <point x="487" y="52"/>
      <point x="381" y="-15"/>
      <point x="230" y="-15"/>
      <point x="124" y="42"/>
      <point x="65" y="137"/>
      <point x="65" y="269"/>
      <point x="126" y="423"/>
      <point x="226" y="588"/>
      <point x="298" y="697"/>
      <point x="314" y="712"/>
      <point x="339" y="712"/>
      <point x="371" y="703"/>
      <point x="371" y="690" type="qcurve"/>
      <point x="371" y="684"/>
      <point x="359" y="669" type="qcurve"/>
      <point x="284" y="584"/>
      <point x="188" y="427"/>
    </contour>
    <contour>
      <point x="301" y="36" type="qcurve"/>
      <point x="415" y="36"/>
      <point x="460" y="129" type="qcurve"/>
      <point x="480" y="172"/>
      <point x="480" y="265"/>
      <point x="438" y="337"/>
      <point x="364" y="382"/>
      <point x="259" y="382"/>
      <point x="172" y="331"/>
      <point x="124" y="247"/>
      <point x="124" y="197" type="qcurve"/>
      <point x="124" y="129"/>
      <point x="216" y="36"/>
    </contour>
  </outline>
</glyph>
<glyph name="seven" format="2">
  <advance height="1000" width="600"/>
  <unicode hex="0037"/>
  <outline>
    <contour>
      <point x="528" y="658" type="qcurve"/>
      <point x="524" y="644"/>
      <point x="507" y="617"/>
      <point x="460" y="529"/>
      <point x="420" y="441" type="qcurve"/>
      <point x="348" y="284"/>
      <point x="277" y="90" type="qcurve"/>
      <point x="271" y="74"/>
      <point x="259" y="30"/>
      <point x="252" y="5" type="qcurve"/>
      <point x="249" y="-9"/>
      <point x="226" y="-9" type="qcurve"/>
      <point x="216" y="-9"/>
      <point x="185" y="-4"/>
      <point x="185" y="11" type="qcurve"/>
      <point x="185" y="23"/>
      <point x="267" y="231"/>
      <point x="301" y="312" type="qcurve"/>
      <point x="370" y="476"/>
      <point x="454" y="643" type="qcurve"/>
      <point x="157" y="618" type="line"/>
      <point x="136" y="615"/>
      <point x="113" y="615"/>
      <point x="90" y="636"/>
      <point x="78" y="660"/>
      <point x="78" y="666" type="qcurve"/>
      <point x="78" y="672"/>
      <point x="83" y="672" type="qcurve"/>
      <point x="119" y="670" type="line"/>
      <point x="440" y="693" type="line"/>
      <point x="452" y="694"/>
      <point x="473" y="700"/>
      <point x="482" y="700" type="qcurve"/>
      <point x="485" y="700" type="line"/>
      <point x="497" y="699"/>
      <point x="528" y="672"/>
    </contour>
  </outline>
</glyph>
<glyph name="eight" format="2">
  <advance height="1000" width="600"/>
  <unicode hex="0038"/>
  <outline>
    <contour>
      <point x="481" y="584" type="qcurve"/>
      <point x="498" y="601"/>
      <point x="509" y="601" type="qcurve"/>
      <point x="526" y="601"/>
      <point x="526" y="567"/>
      <point x="481" y="519"/>
      <point x="448" y="492" type="qcurve"/>
      <point x="392" y="445"/>
      <point x="329" y="403" type="qcurve"/>
      <point x="341" y="398" type="line"/>
      <point x="430" y="361"/>
      <point x="531" y="260"/>
      <point x="531" y="125"/>
      <point x="469" y="35"/>
      <point x="356" y="-15"/>
      <point x="211" y="-15"/>
      <point x="112" y="35"/>
      <point x="59" y="120"/>
      <point x="59" y="220"/>
      <point x="80" y="258" type="qcurve"/>
      <point x="119" y="326"/>
      <point x="222" y="393" type="qcurve"/>
      <point x="155" y="427"/>
      <point x="93" y="496"/>
      <point x="93" y="589"/>
      <point x="144" y="664"/>
      <point x="237" y="710"/>
      <point x="344" y="710"/>
      <point x="414" y="682"/>
      <point x="462" y="642"/>
      <point x="487" y="608"/>
      <point x="487" y="593"/>
    </contour>
    <contour>
      <point x="275" y="427" type="qcurve"/>
      <point x="389" y="497"/>
      <point x="465" y="569" type="qcurve"/>
      <point x="462" y="567"/>
      <point x="444" y="567"/>
      <point x="436" y="580" type="qcurve"/>
      <point x="387" y="660"/>
      <point x="301" y="660" type="qcurve"/>
      <point x="254" y="660"/>
      <point x="187" y="627"/>
      <point x="151" y="574"/>
      <point x="151" y="506"/>
      <point x="211" y="456"/>
    </contour>
    <contour>
      <point x="277" y="368" type="qcurve"/>
      <point x="209" y="321"/>
      <point x="118" y="229"/>
      <point x="118" y="176" type="qcurve"/>
      <point x="118" y="142"/>
      <point x="154" y="79"/>
      <point x="225" y="38"/>
      <point x="334" y="38"/>
      <point x="420" y="74"/>
      <point x="471" y="139"/>
      <point x="471" y="182" type="qcurve"/>
      <point x="471" y="296"/>
    </contour>
  </outline>
</glyph>
<glyph name="nine" format="2">
  <advance height="1000" width="600"/>
  <unicode hex="0039"/>
  <outline>
    <contour>
      <point x="545" y="648" type="qcurve"/>
      <point x="526" y="581" type="line"/>
      <point x="477" y="382"/>
      <point x="432" y="94" type="qcurve"/>
      <point x="423" y="40"/>
      <point x="420" y="9" type="qcurve"/>
      <point x="419" y="-9"/>
      <point x="381" y="-11" type="qcurve"/>
      <point x="377" y="-11" type="line"/>
      <point x="357" y="-11"/>
      <point x="357" y="6" type="qcurve"/>
      <point x="357" y="11"/>
      <point x="360" y="23"/>
      <point x="367" y="60"/>
      <point x="384" y="145"/>
      <point x="402" y="238"/>
      <point x="418" y="319"/>
      <point x="428" y="374"/>
      <point x="429" y="379" type="qcurve"/>
      <point x="395" y="325"/>
      <point x="283" y="262"/>
      <point x="182" y="262"/>
      <point x="106" y="305"/>
      <point x="61" y="385"/>
      <point x="61" y="492"/>
      <point x="100" y="588"/>
      <point x="135" y="626" type="qcurve"/>
      <point x="211" y="710"/>
      <point x="313" y="710" type="qcurve"/>
      <point x="400" y="710"/>
      <point x="452" y="658" type="qcurve"/>
      <point x="473" y="637"/>
      <point x="480" y="623" type="qcurve"/>
      <point x="485" y="645"/>
      <point x="487" y="681"/>
      <point x="501" y="681" type="qcurve"/>
      <point x="503" y="681" type="line"/>
      <point x="515" y="680"/>
      <point x="545" y="659"/>
    </contour>
    <contour>
      <point x="471" y="578" type="line"/>
      <point x="463" y="570"/>
      <point x="447" y="570"/>
      <point x="441" y="582" type="qcurve"/>
      <point x="424" y="622"/>
      <point x="379" y="645" type="qcurve"/>
      <point x="354" y="658"/>
      <point x="273" y="658"/>
      <point x="199" y="618"/>
      <point x="172" y="586" type="qcurve"/>
      <point x="118" y="520"/>
      <point x="118" y="381"/>
      <point x="178" y="317"/>
      <point x="283" y="317"/>
      <point x="375" y="377"/>
      <point x="442" y="474"/>
      <point x="460" y="530" type="qcurve"/>
    </contour>
  </outline>
</glyph>
<glyph name="colon" format="2">
  <advance height="1000" width="350"/>
  <unicode hex="003A"/>
  <outline>
    <contour>
      <point x="183" y="370" type="qcurve"/>
      <point x="163" y="370"/>
      <point x="132" y="407"/>
      <point x="132" y="446"/>
      <point x="153" y="470"/>
      <point x="191" y="470"/>
      <point x="223" y="432"/>
      <point x="223" y="412" type="qcurve"/>
      <point x="223" y="370"/>
    </contour>
    <contour>
      <point x="183" y="-5" type="qcurve"/>
      <point x="163" y="-5"/>
      <point x="132" y="32"/>
      <point x="132" y="71"/>
      <point x="153" y="95"/>
      <point x="191" y="95"/>
      <point x="223" y="57"/>
      <point x="223" y="37" type="qcurve"/>
      <point x="223" y="-5"/>
    </contour>
  </outline>
</glyph>
<glyph name="semicolon" format="2">
  <advance height="1000" width="350"/>
  <unicode hex="003B"/>
  <outline>
    <contour>
      <point x="183" y="370" type="qcurve"/>
      <point x="163" y="370"/>
      <point x="132" y="407"/>
      <point x="132" y="446"/>
      <point x="153" y="470"/>
      <point x="191" y="470"/>
      <point x="223" y="432"/>
      <point x="223" y="412" type="qcurve"/>
      <point x="223" y="370"/>
    </contour>
    <contour>
      <point x="173" y="95" type="qcurve"/>
      <point x="193" y="95"/>
      <point x="220" y="59"/>
      <point x="223" y="28" type="qcurve"/>
      <point x="223" y="-14"/>
      <point x="180" y="-58" type="qcurve"/>
      <point x="142" y="-99"/>
      <point x="119" y="-99" type="qcurve"/>
      <point x="113" y="-99"/>
      <point x="106" y="-90"/>
      <point x="106" y="-78"/>
      <point x="131" y="-62"/>
      <point x="165" y="-21"/>
      <point x="169" y="-2" type="qcurve"/>
      <point x="158" y="3"/>
      <point x="149" y="11"/>
      <point x="132" y="36"/>
      <point x="132" y="51" type="qcurve"/>
      <point x="132" y="95"/>
    </contour>
  </outline>
</glyph>
<glyph name="less" format="2">
  <advance height="1000" width="600"/>
  <unicode hex="003C"/>
  <outline>
    <contour>
      <point x="485" y="-14" type="qcurve"/>
      <point x="482" y="-14"/>
      <point x="477" y="-11" type="qcurve"/>
      <point x="382" y="61"/>
      <point x="203" y="158" type="qcurve"/>
      <point x="140" y="192"/>
      <point x="122" y="195"/>
      <point x="106" y="204"/>
      <point x="95" y="236"/>
      <point x="95" y="258"/>
      <point x="98" y="264" type="qcurve"/>
      <point x="103" y="272"/>
      <point x="131" y="280"/>
      <point x="152" y="291"/>
      <point x="207" y="320"/>
      <point x="284" y="363"/>
      <point x="326" y="388" type="qcurve"/>
      <point x="426" y="446"/>
      <point x="477" y="487" type="qcurve"/>
      <point x="482" y="490"/>
      <point x="485" y="490" type="qcurve"/>
      <point x="494" y="490"/>
      <point x="506" y="465"/>
      <point x="506" y="434"/>
      <point x="497" y="429" type="qcurve"/>
      <point x="463" y="410"/>
      <point x="392" y="368"/>
      <point x="342" y="339" type="qcurve"/>
      <point x="241" y="279"/>
      <point x="154" y="236" type="qcurve"/>
      <point x="204" y="211"/>
      <point x="390" y="110"/>
      <point x="443" y="78"/>
      <point x="476" y="58"/>
      <point x="491" y="50" type="qcurve"/>
      <point x="500" y="45"/>
      <point x="500" y="-14"/>
    </contour>
  </outline>
</glyph>
<glyph name="equal" format="2">
  <advance height="1000" width="600"/>
  <unicode hex="003D"/>
  <outline>
    <contour>
      <point x="76" y="371" type="qcurve"/>
      <point x="106" y="369"/>
      <point x="158" y="369" type="qcurve"/>
      <point x="445" y="369" type="line"/>
      <point x="474" y="369"/>
      <point x="516" y="372" type="qcurve"/>
      <point x="517" y="372" type="line"/>
      <point x="527" y="372"/>
      <point x="539" y="349"/>
      <point x="539" y="319"/>
      <point x="525" y="319" type="qcurve"/>
      <point x="444" y="321" type="line"/>
      <point x="157" y="321" type="line"/>
      <point x="99" y="321"/>
      <point x="81" y="318" type="qcurve"/>
      <point x="79" y="318" type="line"/>
      <point x="71" y="318"/>
      <point x="61" y="339"/>
      <point x="61" y="350" type="qcurve"/>
      <point x="61" y="371"/>
    </contour>
    <contour>
      <point x="76" y="181" type="qcurve"/>
      <point x="106" y="179"/>
      <point x="158" y="179" type="qcurve"/>
      <point x="445" y="179" type="line"/>
      <point x="474" y="179"/>
      <point x="516" y="182" type="qcurve"/>
      <point x="517" y="182" type="line"/>
      <point x="527" y="182"/>
      <point x="539" y="159"/>
      <point x="539" y="129"/>
      <point x="525" y="129" type="qcurve"/>
      <point x="444" y="131" type="line"/>
      <point x="157" y="131" type="line"/>
      <point x="99" y="131"/>
      <point x="81" y="128" type="qcurve"/>
      <point x="79" y="128" type="line"/>
      <point x="71" y="128"/>
      <point x="61" y="149"/>
      <point x="61" y="160" type="qcurve"/>
      <point x="61" y="181"/>
    </contour>
  </outline>
</glyph>
<glyph name="greater" format="2">
  <advance height="1000" width="600"/>
  <unicode hex="003E"/>
  <outline>
    <contour>
      <point x="450" y="241" type="qcurve"/>
      <point x="267" y="335"/>
      <point x="144" y="409" type="qcurve"/>
      <point x="128" y="419"/>
      <point x="113" y="427" type="qcurve"/>
      <point x="104" y="434"/>
      <point x="104" y="451" type="qcurve"/>
      <point x="104" y="491"/>
      <point x="119" y="491" type="qcurve"/>
      <point x="123" y="491"/>
      <point x="168" y="457"/>
      <point x="267" y="395"/>
      <point x="315" y="368" type="qcurve"/>
      <point x="455" y="287"/>
      <point x="482" y="282"/>
      <point x="498" y="273"/>
      <point x="509" y="242"/>
      <point x="509" y="219"/>
      <point x="502" y="206"/>
      <point x="474" y="197"/>
      <point x="452" y="186"/>
      <point x="397" y="157"/>
      <point x="320" y="114"/>
      <point x="278" y="89" type="qcurve"/>
      <point x="178" y="31"/>
      <point x="127" y="-10" type="qcurve"/>
      <point x="123" y="-13"/>
      <point x="119" y="-13" type="qcurve"/>
      <point x="110" y="-13"/>
      <point x="98" y="13"/>
      <point x="98" y="44"/>
      <point x="107" y="48" type="qcurve"/>
      <point x="141" y="67"/>
      <point x="212" y="110"/>
      <point x="262" y="138" type="qcurve"/>
      <point x="370" y="201"/>
    </contour>
  </outline>
</glyph>
<glyph name="question" format="2">
  <advance height="1000" width="600"/>
  <unicode hex="003F"/>
  <outline>
    <contour>
      <point x="323" y="182" type="qcurve"/>
      <point x="323" y="168"/>
      <point x="268" y="168"/>
      <point x="257" y="204"/>
      <point x="257" y="220" type="qcurve"/>
      <point x="257" y="247"/>
      <point x="267" y="314"/>
      <point x="310" y="371"/>
      <point x="368" y="418"/>
      <point x="396" y="442" type="qcurve"/>
      <point x="460" y="498"/>
      <point x="460" y="568" type="qcurve"/>
      <point x="460" y="613"/>
      <point x="405" y="662"/>
      <point x="304" y="662"/>
      <point x="229" y="631"/>
      <point x="204" y="608" type="qcurve"/>
      <point x="157" y="568"/>
      <point x="146" y="526" type="qcurve"/>
      <point x="142" y="513"/>
      <point x="129" y="513" type="qcurve"/>
      <point x="116" y="513"/>
      <point x="90" y="534"/>
      <point x="90" y="552"/>
      <point x="93" y="556" type="qcurve"/>
      <point x="140" y="638"/>
      <point x="268" y="711"/>
      <point x="430" y="711"/>
      <point x="519" y="639"/>
      <point x="519" y="522"/>
      <point x="480" y="450"/>
      <point x="422" y="396"/>
      <point x="362" y="350"/>
      <point x="340" y="324" type="qcurve"/>
      <point x="313" y="293"/>
      <point x="313" y="254" type="qcurve"/>
      <point x="313" y="243" type="line"/>
      <point x="313" y="225"/>
      <point x="323" y="185"/>
    </contour>
    <contour>
      <point x="295" y="-5" type="qcurve"/>
      <point x="275" y="-5"/>
      <point x="244" y="32"/>
      <point x="244" y="71"/>
      <point x="265" y="95"/>
      <point x="303" y="95"/>
      <point x="335" y="57"/>
      <point x="335" y="37" type="qcurve"/>
      <point x="335" y="-5"/>
    </contour>
  </outline>
</glyph>
<glyph name="at" format="2">
  <advance height="1000" width="784"/>
  <unicode hex="0040"/>
  <outline>
    <contour>
      <point x="587" y="513" type="qcurve"/>
      <point x="586" y="509" type="line"/>
      <point x="557" y="426"/>
      <point x="547" y="294" type="qcurve"/>
      <point x="545" y="266"/>
      <point x="545" y="244" type="qcurve"/>
      <point x="545" y="198"/>
      <point x="599" y="198"/>
      <point x="656" y="253"/>
      <point x="695" y="354"/>
      <point x="695" y="502"/>
      <point x="622" y="609"/>
      <point x="497" y="663"/>
      <point x="351" y="663"/>
      <point x="233" y="605"/>
      <point x="188" y="555" type="qcurve"/>
      <point x="94" y="449"/>
      <point x="94" y="313" type="qcurve"/>
      <point x="94" y="221"/>
      <point x="169" y="98"/>
      <point x="304" y="36"/>
      <point x="451" y="36"/>
      <point x="512" y="56" type="qcurve"/>
      <point x="638" y="99"/>
      <point x="710" y="186" type="qcurve"/>
      <point x="721" y="198"/>
      <point x="729" y="198" type="qcurve"/>
      <point x="742" y="198"/>
      <point x="742" y="182" type="qcurve"/>
      <point x="742" y="173"/>
      <point x="710" y="128"/>
      <point x="650" y="72"/>
      <point x="608" y="46" type="qcurve"/>
      <point x="510" y="-15"/>
      <point x="286" y="-15"/>
      <point x="126" y="62"/>
      <point x="38" y="206"/>
      <point x="38" y="386"/>
      <point x="95" y="531"/>
      <point x="199" y="644"/>
      <point x="338" y="710"/>
      <point x="518" y="710"/>
      <point x="665" y="640"/>
      <point x="747" y="513"/>
      <point x="747" y="345"/>
      <point x="697" y="221"/>
      <point x="617" y="150"/>
      <point x="532" y="150"/>
      <point x="497" y="192"/>
      <point x="497" y="233" type="qcurve"/>
      <point x="497" y="248"/>
      <point x="499" y="264" type="qcurve"/>
      <point x="465" y="206"/>
      <point x="377" y="151"/>
      <point x="273" y="151"/>
      <point x="202" y="229"/>
      <point x="202" y="368"/>
      <point x="261" y="486"/>
      <point x="362" y="558"/>
      <point x="494" y="558"/>
      <point x="523" y="509" type="qcurve"/>
      <point x="526" y="524"/>
      <point x="526" y="542" type="qcurve"/>
      <point x="526" y="550"/>
      <point x="546" y="550"/>
      <point x="558" y="544" type="qcurve"/>
      <point x="587" y="530"/>
    </contour>
    <contour>
      <point x="262" y="302" type="qcurve"/>
      <point x="262" y="205"/>
      <point x="332" y="205" type="qcurve"/>
      <point x="408" y="205"/>
      <point x="459" y="284" type="qcurve"/>
      <point x="504" y="355"/>
      <point x="504" y="425" type="qcurve"/>
      <point x="504" y="467"/>
      <point x="458" y="511"/>
      <point x="383" y="511"/>
      <point x="308" y="453"/>
      <point x="262" y="358"/>
    </contour>
  </outline>
</glyph>
<glyph name="B" format="2">
  <advance height="1000" width="650"/>
  <unicode hex="0042"/>
  <outline>
    <contour>
      <point x="108" y="627" type="line"/>
      <point x="96" y="629"/>
      <point x="76" y="655"/>
      <point x="76" y="675"/>
      <point x="84" y="679" type="qcurve"/>
      <point x="127" y="696"/>
      <point x="281" y="709"/>
      <point x="399" y="709"/>
      <point x="448" y="688" type="qcurve"/>
      <point x="541" y="649"/>
      <point x="541" y="557" type="qcurve"/>
      <point x="541" y="514"/>
      <point x="520" y="482" type="qcurve"/>
      <point x="482" y="422"/>
      <point x="409" y="397" type="qcurve"/>
      <point x="459" y="394"/>
      <point x="544" y="346"/>
      <point x="597" y="266"/>
      <point x="597" y="150"/>
      <point x="542" y="66"/>
      <point x="452" y="19"/>
      <point x="399" y="8" type="qcurve"/>
      <point x="322" y="-8"/>
      <point x="198" y="-8" type="qcurve"/>
      <point x="134" y="-8"/>
      <point x="73" y="1" type="qcurve"/>
      <point x="55" y="4"/>
      <point x="55" y="17" type="qcurve"/>
      <point x="55" y="24"/>
      <point x="66" y="34"/>
      <point x="83" y="34"/>
      <point x="96" y="35" type="qcurve"/>
      <point x="108" y="36" type="line"/>
    </contour>
    <contour>
      <point x="483" y="551" type="qcurve"/>
      <point x="483" y="658"/>
      <point x="313" y="658" type="qcurve"/>
      <point x="232" y="658"/>
      <point x="166" y="641" type="qcurve"/>
      <point x="166" y="403" type="line"/>
      <point x="179" y="403" type="line"/>
      <point x="246" y="403"/>
      <point x="314" y="412" type="qcurve"/>
      <point x="405" y="429"/>
      <point x="456" y="484" type="qcurve"/>
      <point x="483" y="513"/>
    </contour>
    <contour>
      <point x="326" y="363" type="line"/>
      <point x="243" y="363"/>
      <point x="166" y="356" type="qcurve"/>
      <point x="166" y="33" type="line"/>
      <point x="347" y="33"/>
      <point x="441" y="74" type="qcurve"/>
      <point x="539" y="118"/>
      <point x="539" y="212" type="qcurve"/>
      <point x="539" y="288"/>
      <point x="472" y="328" type="qcurve"/>
      <point x="417" y="361"/>
      <point x="346" y="363" type="qcurve"/>
    </contour>
  </outline>
</glyph>
<glyph name="C" format="2">
  <advance height="1000" width="703"/>
  <unicode hex="0043"/>
  <outline>
    <contour>
      <point x="638" y="186" type="qcurve"/>
      <point x="648" y="199"/>
      <point x="671" y="199"/>
      <point x="671" y="175"/>
      <point x="646" y="130"/>
      <point x="597" y="73"/>
      <point x="560" y="46" type="qcurve"/>
      <point x="473" y="-16"/>
      <point x="357" y="-16" type="qcurve"/>
      <point x="170" y="-16"/>
      <point x="93" y="116" type="qcurve"/>
      <point x="53" y="184"/>
      <point x="53" y="381"/>
      <point x="107" y="533"/>
      <point x="203" y="647"/>
      <point x="333" y="711"/>
      <point x="468" y="711"/>
      <point x="552" y="686"/>
      <point x="604" y="652"/>
      <point x="629" y="622"/>
      <point x="629" y="604"/>
      <point x="606" y="576"/>
      <point x="586" y="576"/>
      <point x="571" y="599"/>
      <point x="549" y="616" type="qcurve"/>
      <point x="495" y="658"/>
      <point x="404" y="658" type="qcurve"/>
      <point x="343" y="658"/>
      <point x="236" y="602"/>
      <point x="196" y="552" type="qcurve"/>
      <point x="111" y="447"/>
      <point x="111" y="295" type="qcurve"/>
      <point x="111" y="205"/>
      <point x="144" y="148" type="qcurve"/>
      <point x="208" y="36"/>
      <point x="363" y="36" type="qcurve"/>
      <point x="469" y="36"/>
      <point x="563" y="110" type="qcurve"/>
      <point x="606" y="144"/>
    </contour>
  </outline>
</glyph>
<glyph name="D" format="2">
  <advance height="1000" width="728"/>
  <unicode hex="0044"/>
  <outline>
    <contour>
      <point x="169" y="-6" type="line"/>
      <point x="126" y="-6"/>
      <point x="72" y="1" type="qcurve"/>
      <point x="54" y="4"/>
      <point x="54" y="16" type="qcurve"/>
      <point x="54" y="21"/>
      <point x="64" y="31"/>
      <point x="81" y="33"/>
      <point x="94" y="34" type="qcurve"/>
      <point x="108" y="34" type="line"/>
      <point x="108" y="628" type="line"/>
      <point x="95" y="630"/>
      <point x="75" y="655"/>
      <point x="75" y="677"/>
      <point x="84" y="681" type="qcurve"/>
      <point x="123" y="697"/>
      <point x="269" y="710"/>
      <point x="303" y="710" type="qcurve"/>
      <point x="455" y="710"/>
      <point x="561" y="614" type="qcurve"/>
      <point x="671" y="515"/>
      <point x="671" y="357" type="qcurve"/>
      <point x="671" y="204"/>
      <point x="577" y="112" type="qcurve"/>
      <point x="496" y="33"/>
      <point x="374" y="10" type="qcurve"/>
      <point x="297" y="-4"/>
      <point x="183" y="-6" type="qcurve"/>
    </contour>
    <contour>
      <point x="470" y="617"/>
      <point x="358" y="658"/>
      <point x="228" y="658"/>
      <point x="166" y="642" type="qcurve"/>
      <point x="166" y="34" type="line"/>
      <point x="349" y="38"/>
      <point x="450" y="90" type="qcurve"/>
      <point x="548" y="142"/>
      <point x="590" y="238" type="qcurve"/>
      <point x="612" y="290"/>
      <point x="612" y="428"/>
      <point x="560" y="539"/>
    </contour>
  </outline>
</glyph>
<glyph name="E" format="2">
  <advance height="1000" width="638"/>
  <unicode hex="0045"/>
  <outline>
    <contour>
      <point x="116" y="698" type="qcurve"/>
      <point x="132" y="698"/>
      <point x="168" y="684" type="qcurve"/>
      <point x="440" y="702" type="line"/>
      <point x="463" y="704"/>
      <point x="514" y="710"/>
      <point x="536" y="710"/>
      <point x="555" y="679"/>
      <point x="555" y="653"/>
      <point x="544" y="653" type="qcurve"/>
      <point x="508" y="653"/>
      <point x="455" y="653"/>
      <point x="441" y="652" type="qcurve"/>
      <point x="166" y="634" type="line"/>
      <point x="166" y="397" type="line"/>
      <point x="385" y="410" type="line"/>
      <point x="408" y="412"/>
      <point x="459" y="418"/>
      <point x="481" y="418"/>
      <point x="500" y="387"/>
      <point x="500" y="361"/>
      <point x="489" y="361" type="qcurve"/>
      <point x="452" y="361"/>
      <point x="400" y="361"/>
      <point x="386" y="360" type="qcurve"/>
      <point x="166" y="348" type="line"/>
      <point x="166" y="51" type="line"/>
      <point x="472" y="56" type="line"/>
      <point x="510" y="56"/>
      <point x="555" y="59" type="qcurve"/>
      <point x="556" y="59" type="line"/>
      <point x="569" y="59"/>
      <point x="587" y="27"/>
      <point x="587" y="0"/>
      <point x="577" y="0" type="qcurve"/>
      <point x="576" y="0" type="line"/>
      <point x="552" y="3"/>
      <point x="489" y="3" type="qcurve"/>
      <point x="473" y="3" type="line"/>
      <point x="195" y="-1" type="line"/>
      <point x="179" y="-1"/>
      <point x="156" y="-8"/>
      <point x="128" y="-8"/>
      <point x="101" y="26"/>
      <point x="101" y="37" type="qcurve"/>
      <point x="108" y="84" type="line"/>
      <point x="108" y="347" type="line"/>
      <point x="97" y="353"/>
      <point x="80" y="380"/>
      <point x="80" y="398"/>
      <point x="87" y="398" type="qcurve"/>
      <point x="89" y="398" type="line"/>
      <point x="99" y="396"/>
      <point x="108" y="396" type="qcurve"/>
      <point x="108" y="634" type="line"/>
      <point x="104" y="684" type="line"/>
      <point x="104" y="698"/>
    </contour>
  </outline>
</glyph>
<glyph name="F" format="2">
  <advance height="1000" width="560"/>
  <unicode hex="0046"/>
  <outline>
    <contour>
      <point x="108" y="634" type="line"/>
      <point x="104" y="684" type="line"/>
      <point x="104" y="698"/>
      <point x="116" y="698" type="qcurve"/>
      <point x="132" y="698"/>
      <point x="150" y="691" type="qcurve"/>
      <point x="168" y="684" type="line"/>
      <point x="440" y="702" type="line"/>
      <point x="463" y="704"/>
      <point x="514" y="710"/>
      <point x="536" y="710"/>
      <point x="555" y="679"/>
      <point x="555" y="653"/>
      <point x="544" y="653" type="qcurve"/>
      <point x="508" y="653"/>
      <point x="455" y="653"/>
      <point x="441" y="652" type="qcurve"/>
      <point x="166" y="634" type="line"/>
      <point x="166" y="397" type="line"/>
      <point x="385" y="410" type="line"/>
      <point x="408" y="412"/>
      <point x="459" y="418"/>
      <point x="481" y="418"/>
      <point x="500" y="387"/>
      <point x="500" y="361"/>
      <point x="489" y="361" type="qcurve"/>
      <point x="452" y="361"/>
      <point x="400" y="361"/>
      <point x="386" y="360" type="qcurve"/>
      <point x="166" y="348" type="line"/>
      <point x="166" y="107" type="line"/>
      <point x="169" y="1" type="line"/>
      <point x="169" y="-9"/>
      <point x="138" y="-9"/>
      <point x="106" y="6"/>
      <point x="106" y="19" type="qcurve"/>
      <point x="108" y="108" type="line"/>
      <point x="108" y="347" type="line"/>
      <point x="97" y="353"/>
      <point x="80" y="380"/>
      <point x="80" y="398"/>
      <point x="87" y="398" type="qcurve"/>
      <point x="89" y="398" type="line"/>
      <point x="99" y="396"/>
      <point x="108" y="396" type="qcurve"/>
    </contour>
  </outline>
</glyph>
<glyph name="G" format="2">
  <advance height="1000" width="752"/>
  <unicode hex="0047"/>
  <outline>
    <contour>
      <point x="679" y="53"/>
      <point x="680" y="17"/>
      <point x="680" y="-5"/>
      <point x="648" y="-5"/>
      <point x="620" y="8"/>
      <point x="620" y="16" type="qcurve"/>
      <point x="620" y="17" type="line"/>
      <point x="625" y="74"/>
      <point x="625" y="149" type="qcurve"/>
      <point x="602" y="93"/>
      <point x="517" y="20"/>
      <point x="417" y="-15"/>
      <point x="371" y="-15" type="qcurve"/>
      <point x="177" y="-15"/>
      <point x="99" y="114" type="qcurve"/>
      <point x="58" y="182"/>
      <point x="58" y="378"/>
      <point x="110" y="527"/>
      <point x="204" y="644"/>
      <point x="332" y="711"/>
      <point x="466" y="711"/>
      <point x="548" y="689"/>
      <point x="574" y="674" type="qcurve"/>
      <point x="610" y="653"/>
      <point x="631" y="627" type="qcurve"/>
      <point x="635" y="623"/>
      <point x="635" y="602"/>
      <point x="612" y="575"/>
      <point x="591" y="575"/>
      <point x="585" y="586"/>
      <point x="566" y="609"/>
      <point x="546" y="623" type="qcurve"/>
      <point x="493" y="659"/>
      <point x="348" y="659"/>
      <point x="242" y="602"/>
      <point x="202" y="552" type="qcurve"/>
      <point x="116" y="443"/>
      <point x="116" y="295" type="qcurve"/>
      <point x="116" y="117"/>
      <point x="238" y="64" type="qcurve"/>
      <point x="295" y="38"/>
      <point x="413" y="38"/>
      <point x="502" y="72"/>
      <point x="540" y="106" type="qcurve"/>
      <point x="624" y="184"/>
      <point x="624" y="312" type="qcurve"/>
      <point x="624" y="317"/>
      <point x="618" y="317" type="qcurve"/>
      <point x="499" y="309" type="line"/>
      <point x="478" y="308"/>
      <point x="424" y="301" type="qcurve"/>
      <point x="421" y="301" type="line"/>
      <point x="408" y="301"/>
      <point x="385" y="333"/>
      <point x="385" y="345" type="qcurve"/>
      <point x="385" y="357"/>
      <point x="396" y="357" type="qcurve"/>
      <point x="410" y="357" type="line"/>
      <point x="454" y="357"/>
      <point x="480" y="359" type="qcurve"/>
      <point x="604" y="366" type="line"/>
      <point x="612" y="367"/>
      <point x="630" y="370"/>
      <point x="646" y="370"/>
      <point x="656" y="362" type="qcurve"/>
      <point x="683" y="342"/>
      <point x="683" y="329" type="qcurve"/>
      <point x="683" y="322"/>
      <point x="678" y="313"/>
      <point x="678" y="302" type="qcurve"/>
      <point x="678" y="97" type="line"/>
      <point x="678" y="89"/>
    </contour>
  </outline>
</glyph>
<glyph name="H" format="2">
  <advance height="1000" width="700"/>
  <unicode hex="0048"/>
  <outline>
    <contour>
      <point x="550" y="18" type="qcurve"/>
      <point x="552" y="107" type="line"/>
      <point x="552" y="365" type="line"/>
      <point x="548" y="363"/>
      <point x="546" y="363" type="qcurve"/>
      <point x="466" y="366" type="line"/>
      <point x="466" y="366"/>
      <point x="182" y="350" type="qcurve"/>
      <point x="166" y="349" type="line"/>
      <point x="166" y="105" type="line"/>
      <point x="169" y="-1" type="line"/>
      <point x="169" y="-11"/>
      <point x="138" y="-11"/>
      <point x="106" y="4"/>
      <point x="106" y="17" type="qcurve"/>
      <point x="108" y="106" type="line"/>
      <point x="108" y="342" type="line"/>
      <point x="99" y="341" type="line"/>
      <point x="98" y="341" type="line"/>
      <point x="85" y="341"/>
      <point x="67" y="373"/>
      <point x="67" y="400"/>
      <point x="77" y="400" type="qcurve"/>
      <point x="78" y="400" type="line"/>
      <point x="108" y="399" type="line"/>
      <point x="108" y="589" type="line"/>
      <point x="105" y="695" type="line"/>
      <point x="105" y="705"/>
      <point x="136" y="705"/>
      <point x="168" y="690"/>
      <point x="168" y="677" type="qcurve"/>
      <point x="166" y="588" type="line"/>
      <point x="166" y="399" type="line"/>
      <point x="181" y="399" type="line"/>
      <point x="442" y="414" type="line"/>
      <point x="465" y="416"/>
      <point x="513" y="420"/>
      <point x="525" y="422" type="qcurve"/>
      <point x="528" y="422" type="line"/>
      <point x="542" y="422"/>
      <point x="552" y="400" type="qcurve"/>
      <point x="552" y="589" type="line"/>
      <point x="549" y="695" type="line"/>
      <point x="549" y="705"/>
      <point x="580" y="705"/>
      <point x="612" y="690"/>
      <point x="612" y="677" type="qcurve"/>
      <point x="610" y="588" type="line"/>
      <point x="610" y="106" type="line"/>
      <point x="613" y="0" type="line"/>
      <point x="613" y="-10"/>
      <point x="582" y="-10"/>
      <point x="550" y="5"/>
    </contour>
  </outline>
</glyph>
<glyph name="I" format="2">
  <advance height="1000" width="304"/>
  <unicode hex="0049"/>
  <outline>
    <contour>
      <point x="118" y="18" type="qcurve"/>
      <point x="120" y="107" type="line"/>
      <point x="120" y="589" type="line"/>
      <point x="117" y="695" type="line"/>
      <point x="117" y="705"/>
      <point x="149" y="705"/>
      <point x="182" y="690"/>
      <point x="182" y="677" type="qcurve"/>
      <point x="180" y="588" type="line"/>
      <point x="180" y="106" type="line"/>
      <point x="183" y="0" type="line"/>
      <point x="183" y="-10"/>
      <point x="151" y="-10"/>
      <point x="118" y="5"/>
    </contour>
  </outline>
</glyph>
<glyph name="J" format="2">
  <advance height="1000" width="492"/>
  <unicode hex="004A"/>
  <outline>
    <contour>
      <point x="384" y="677" type="qcurve"/>
      <point x="382" y="588" type="line"/>
      <point x="382" y="177" type="line"/>
      <point x="382" y="38"/>
      <point x="294" y="2" type="qcurve"/>
      <point x="254" y="-15"/>
      <point x="160" y="-15"/>
      <point x="88" y="19"/>
      <point x="41" y="67"/>
      <point x="18" y="112"/>
      <point x="18" y="141"/>
      <point x="48" y="172"/>
      <point x="70" y="172"/>
      <point x="71" y="162" type="qcurve"/>
      <point x="82" y="111"/>
      <point x="155" y="41"/>
      <point x="205" y="41" type="qcurve"/>
      <point x="273" y="41"/>
      <point x="306" y="96" type="qcurve"/>
      <point x="324" y="127"/>
      <point x="324" y="180" type="qcurve"/>
      <point x="324" y="589" type="line"/>
      <point x="321" y="695" type="line"/>
      <point x="321" y="705"/>
      <point x="352" y="705"/>
      <point x="384" y="690"/>
    </contour>
  </outline>
</glyph>
<glyph name="K" format="2">
  <advance height="1000" width="630"/>
  <unicode hex="004B"/>
  <outline>
    <contour>
      <point x="106" y="17" type="qcurve"/>
      <point x="108" y="112" type="line"/>
      <point x="108" y="589" type="line"/>
      <point x="105" y="695" type="line"/>
      <point x="105" y="705"/>
      <point x="136" y="705"/>
      <point x="168" y="690"/>
      <point x="168" y="677" type="qcurve"/>
      <point x="166" y="588" type="line"/>
      <point x="166" y="396" type="line"/>
      <point x="218" y="436"/>
      <point x="300" y="509" type="qcurve"/>
      <point x="447" y="638"/>
      <point x="507" y="702" type="qcurve"/>
      <point x="510" y="706"/>
      <point x="532" y="706"/>
      <point x="568" y="684"/>
      <point x="568" y="670"/>
      <point x="565" y="667" type="qcurve"/>
      <point x="550" y="654"/>
      <point x="510" y="622"/>
      <point x="475" y="590" type="qcurve"/>
      <point x="367" y="493"/>
      <point x="253" y="400" type="qcurve"/>
      <point x="310" y="332"/>
      <point x="413" y="226" type="qcurve"/>
      <point x="563" y="70"/>
      <point x="617" y="25" type="qcurve"/>
      <point x="621" y="22"/>
      <point x="621" y="17" type="qcurve"/>
      <point x="621" y="8"/>
      <point x="590" y="-8"/>
      <point x="552" y="-8"/>
      <point x="544" y="2" type="qcurve"/>
      <point x="523" y="30"/>
      <point x="479" y="75"/>
      <point x="405" y="154"/>
      <point x="364" y="198" type="qcurve"/>
      <point x="270" y="298"/>
      <point x="211" y="367" type="qcurve"/>
      <point x="186" y="347"/>
      <point x="166" y="332" type="qcurve"/>
      <point x="166" y="111" type="line"/>
      <point x="169" y="-1" type="line"/>
      <point x="169" y="-11"/>
      <point x="138" y="-11"/>
      <point x="106" y="4"/>
    </contour>
  </outline>
</glyph>
<glyph name="L" format="2">
  <advance height="1000" width="547"/>
  <unicode hex="004C"/>
  <outline>
    <contour>
      <point x="166" y="51" type="line"/>
      <point x="281" y="56"/>
      <point x="358" y="56" type="qcurve"/>
      <point x="458" y="56" type="line"/>
      <point x="482" y="56"/>
      <point x="495" y="57" type="qcurve"/>
      <point x="496" y="57" type="line"/>
      <point x="509" y="57"/>
      <point x="527" y="24"/>
      <point x="527" y="-3"/>
      <point x="518" y="-3" type="qcurve"/>
      <point x="516" y="-3" type="line"/>
      <point x="477" y="3"/>
      <point x="413" y="3" type="qcurve"/>
      <point x="372" y="3" type="line"/>
      <point x="192" y="3"/>
      <point x="142" y="-7" type="qcurve"/>
      <point x="139" y="-7" type="line"/>
      <point x="126" y="-7"/>
      <point x="101" y="27"/>
      <point x="101" y="44"/>
      <point x="108" y="58"/>
      <point x="108" y="70" type="qcurve"/>
      <point x="108" y="589" type="line"/>
      <point x="105" y="695" type="line"/>
      <point x="105" y="705"/>
      <point x="136" y="705"/>
      <point x="168" y="690"/>
      <point x="168" y="677" type="qcurve"/>
      <point x="166" y="588" type="line"/>
    </contour>
  </outline>
</glyph>
<glyph name="M" format="2">
  <advance height="1000" width="855"/>
  <unicode hex="004D"/>
  <outline>
    <contour>
      <point x="734" y="677" type="qcurve"/>
      <point x="729" y="635" type="line"/>
      <point x="729" y="628" type="line"/>
      <point x="788" y="87"/>
      <point x="813" y="18" type="qcurve"/>
      <point x="814" y="14" type="line"/>
      <point x="814" y="5"/>
      <point x="788" y="-5"/>
      <point x="775" y="-5" type="qcurve"/>
      <point x="745" y="-5"/>
      <point x="743" y="11" type="qcurve"/>
      <point x="740" y="84"/>
      <point x="698" y="416"/>
      <point x="681" y="564"/>
      <point x="674" y="624" type="qcurve"/>
      <point x="671" y="619"/>
      <point x="645" y="562"/>
      <point x="605" y="477"/>
      <point x="559" y="376"/>
      <point x="513" y="275"/>
      <point x="494" y="232" type="qcurve"/>
      <point x="453" y="134"/>
      <point x="452" y="112"/>
      <point x="424" y="96"/>
      <point x="412" y="96" type="qcurve"/>
      <point x="388" y="96"/>
      <point x="384" y="112" type="qcurve"/>
      <point x="372" y="152"/>
      <point x="348" y="205"/>
      <point x="302" y="313"/>
      <point x="276" y="376" type="qcurve"/>
      <point x="210" y="534"/>
      <point x="181" y="612" type="qcurve"/>
      <point x="166" y="485"/>
      <point x="144" y="306"/>
      <point x="130" y="184"/>
      <point x="121" y="107"/>
      <point x="118" y="84" type="qcurve"/>
      <point x="114" y="37"/>
      <point x="112" y="12" type="qcurve"/>
      <point x="111" y="3"/>
      <point x="85" y="-6"/>
      <point x="44" y="-6"/>
      <point x="44" y="6" type="qcurve"/>
      <point x="44" y="9" type="line"/>
      <point x="72" y="108"/>
      <point x="118" y="537" type="qcurve"/>
      <point x="123" y="584"/>
      <point x="126" y="612" type="qcurve"/>
      <point x="128" y="639" type="line"/>
      <point x="127" y="663" type="line"/>
      <point x="127" y="668" type="line"/>
      <point x="127" y="682"/>
      <point x="163" y="701"/>
      <point x="194" y="701"/>
      <point x="204" y="690"/>
      <point x="238" y="606"/>
      <point x="292" y="473"/>
      <point x="320" y="407" type="qcurve"/>
      <point x="393" y="231"/>
      <point x="416" y="180" type="qcurve"/>
      <point x="536" y="460"/>
      <point x="650" y="698" type="qcurve"/>
      <point x="656" y="710"/>
      <point x="682" y="710"/>
      <point x="696" y="704" type="qcurve"/>
      <point x="734" y="690"/>
    </contour>
  </outline>
</glyph>
<glyph name="N" format="2">
  <advance height="1000" width="738"/>
  <unicode hex="004E"/>
  <outline>
    <contour>
      <point x="108" y="646" type="line"/>
      <point x="102" y="681" type="line"/>
      <point x="102" y="695"/>
      <point x="136" y="706"/>
      <point x="163" y="706"/>
      <point x="173" y="700"/>
      <point x="246" y="575"/>
      <point x="315" y="466" type="qcurve"/>
      <point x="452" y="248"/>
      <point x="577" y="77" type="qcurve"/>
      <point x="577" y="589" type="line"/>
      <point x="574" y="695" type="line"/>
      <point x="574" y="705"/>
      <point x="604" y="705"/>
      <point x="635" y="690"/>
      <point x="635" y="677" type="qcurve"/>
      <point x="633" y="588" type="line"/>
      <point x="633" y="79" type="line"/>
      <point x="637" y="27" type="line"/>
      <point x="637" y="13"/>
      <point x="602" y="-11"/>
      <point x="570" y="-11"/>
      <point x="552" y="17"/>
      <point x="500" y="88"/>
      <point x="399" y="236"/>
      <point x="348" y="314" type="qcurve"/>
      <point x="249" y="465"/>
      <point x="164" y="610" type="qcurve"/>
      <point x="164" y="105" type="line"/>
      <point x="167" y="-1" type="line"/>
      <point x="167" y="-11"/>
      <point x="138" y="-11"/>
      <point x="106" y="4"/>
      <point x="106" y="17" type="qcurve"/>
      <point x="108" y="106" type="line"/>
    </contour>
  </outline>
</glyph>
<glyph name="O" format="2">
  <advance height="1000" width="745"/>
  <unicode hex="004F"/>
  <outline>
    <contour>
      <point x="180" y="655"/>
      <point x="214" y="655"/>
      <point x="223" y="644" type="qcurve"/>
      <point x="301" y="711"/>
      <point x="495" y="711"/>
      <point x="624" y="621"/>
      <point x="693" y="464"/>
      <point x="693" y="286"/>
      <point x="654" y="149"/>
      <point x="614" y="96" type="qcurve"/>
      <point x="528" y="-16"/>
      <point x="366" y="-16" type="qcurve"/>
      <point x="259" y="-16"/>
      <point x="190" y="30" type="qcurve"/>
      <point x="55" y="120"/>
      <point x="55" y="337" type="qcurve"/>
      <point x="55" y="451"/>
      <point x="109" y="557" type="qcurve"/>
      <point x="132" y="602"/>
    </contour>
    <contour>
      <point x="160" y="121"/>
      <point x="269" y="38"/>
      <point x="436" y="38"/>
      <point x="542" y="93"/>
      <point x="574" y="140" type="qcurve"/>
      <point x="635" y="231"/>
      <point x="635" y="371" type="qcurve"/>
      <point x="635" y="485"/>
      <point x="580" y="568" type="qcurve"/>
      <point x="517" y="661"/>
      <point x="399" y="661" type="qcurve"/>
      <point x="355" y="661"/>
      <point x="256" y="621"/>
      <point x="212" y="580" type="qcurve"/>
      <point x="112" y="488"/>
      <point x="112" y="339" type="qcurve"/>
      <point x="112" y="259"/>
    </contour>
  </outline>
</glyph>
<glyph name="P" format="2">
  <advance height="1000" width="600"/>
  <unicode hex="0050"/>
  <outline>
    <contour>
      <point x="106" y="17" type="qcurve"/>
      <point x="108" y="116" type="line"/>
      <point x="108" y="620" type="line"/>
      <point x="105" y="620" type="line"/>
      <point x="92" y="620"/>
      <point x="69" y="650"/>
      <point x="69" y="675"/>
      <point x="79" y="676" type="qcurve"/>
      <point x="99" y="680"/>
      <point x="142" y="690"/>
      <point x="169" y="695" type="qcurve"/>
      <point x="245" y="709"/>
      <point x="320" y="709" type="qcurve"/>
      <point x="450" y="709"/>
      <point x="573" y="623"/>
      <point x="573" y="459"/>
      <point x="518" y="408" type="qcurve"/>
      <point x="452" y="346"/>
      <point x="324" y="330" type="qcurve"/>
      <point x="254" y="322"/>
      <point x="172" y="322"/>
      <point x="166" y="329" type="qcurve"/>
      <point x="166" y="115" type="line"/>
      <point x="169" y="-1" type="line"/>
      <point x="169" y="-11"/>
      <point x="138" y="-11"/>
      <point x="106" y="4"/>
    </contour>
    <contour>
      <point x="513" y="606"/>
      <point x="407" y="656"/>
      <point x="239" y="656"/>
      <point x="166" y="636" type="qcurve"/>
      <point x="166" y="354" type="line"/>
      <point x="171" y="361"/>
      <point x="205" y="363"/>
      <point x="238" y="367" type="qcurve"/>
      <point x="309" y="376"/>
      <point x="348" y="385" type="qcurve"/>
      <point x="513" y="423"/>
      <point x="513" y="541" type="qcurve"/>
    </contour>
  </outline>
</glyph>
<glyph name="Q" format="2">
  <advance height="1000" width="745"/>
  <unicode hex="0051"/>
  <outline>
    <contour>
      <point x="223" y="644" type="qcurve"/>
      <point x="301" y="711"/>
      <point x="494" y="711"/>
      <point x="623" y="621"/>
      <point x="693" y="464"/>
      <point x="693" y="263"/>
      <point x="626" y="90"/>
      <point x="555" y="40" type="qcurve"/>
      <point x="608" y="-12"/>
      <point x="694" y="-48"/>
      <point x="694" y="-60" type="qcurve"/>
      <point x="694" y="-70"/>
      <point x="630" y="-70"/>
      <point x="589" y="-56"/>
      <point x="545" y="-20"/>
      <point x="508" y="13" type="qcurve"/>
      <point x="441" y="-16"/>
      <point x="366" y="-16" type="qcurve"/>
      <point x="259" y="-16"/>
      <point x="190" y="30" type="qcurve"/>
      <point x="55" y="120"/>
      <point x="55" y="337" type="qcurve"/>
      <point x="55" y="451"/>
      <point x="109" y="557" type="qcurve"/>
      <point x="132" y="602"/>
      <point x="180" y="655"/>
      <point x="214" y="655"/>
    </contour>
    <contour>
      <point x="387" y="200" type="line"/>
      <point x="404" y="197"/>
      <point x="414" y="182"/>
      <point x="422" y="172" type="qcurve"/>
      <point x="440" y="154"/>
      <point x="513" y="80" type="qcurve"/>
      <point x="597" y="136"/>
      <point x="623" y="258" type="qcurve"/>
      <point x="635" y="313"/>
      <point x="635" y="423"/>
      <point x="608" y="525"/>
      <point x="580" y="568" type="qcurve"/>
      <point x="517" y="661"/>
      <point x="399" y="661" type="qcurve"/>
      <point x="355" y="661"/>
      <point x="256" y="621"/>
      <point x="212" y="580" type="qcurve"/>
      <point x="112" y="488"/>
      <point x="112" y="339" type="qcurve"/>
      <point x="112" y="259"/>
      <point x="160" y="121"/>
      <point x="269" y="38"/>
      <point x="358" y="38" type="qcurve"/>
      <point x="416" y="38"/>
      <point x="464" y="55" type="qcurve"/>
      <point x="384" y="133"/>
      <point x="357" y="157"/>
      <point x="350" y="160" type="qcurve"/>
      <point x="338" y="165"/>
      <point x="338" y="182"/>
      <point x="371" y="200"/>
      <point x="383" y="200" type="qcurve"/>
    </contour>
  </outline>
</glyph>
<glyph name="R" format="2">
  <advance height="1000" width="635"/>
  <unicode hex="0052"/>
  <outline>
    <contour>
      <point x="106" y="17" type="qcurve"/>
      <point x="108" y="116" type="line"/>
      <point x="108" y="619" type="line"/>
      <point x="105" y="619" type="line"/>
      <point x="92" y="619"/>
      <point x="68" y="652"/>
      <point x="68" y="675"/>
      <point x="77" y="676" type="qcurve"/>
      <point x="221" y="702"/>
      <point x="298" y="707"/>
      <point x="329" y="707" type="qcurve"/>
      <point x="410" y="707"/>
      <point x="508" y="658"/>
      <point x="552" y="582"/>
      <point x="552" y="488"/>
      <point x="495" y="408"/>
      <point x="451" y="384" type="qcurve"/>
      <point x="391" y="350"/>
      <point x="324" y="346" type="qcurve"/>
      <point x="292" y="343"/>
      <point x="263" y="341"/>
      <point x="257" y="341" type="qcurve"/>
      <point x="284" y="316"/>
      <point x="349" y="246" type="qcurve"/>
      <point x="501" y="84"/>
      <point x="560" y="45" type="qcurve"/>
      <point x="582" y="30"/>
      <point x="597" y="24" type="qcurve"/>
      <point x="635" y="11"/>
      <point x="635" y="-2" type="qcurve"/>
      <point x="635" y="-11"/>
      <point x="606" y="-11" type="qcurve"/>
      <point x="539" y="-11"/>
      <point x="491" y="28" type="qcurve"/>
      <point x="434" y="73"/>
      <point x="372" y="142" type="qcurve"/>
      <point x="246" y="282"/>
      <point x="210" y="317"/>
      <point x="169" y="337"/>
      <point x="164" y="341" type="qcurve"/>
      <point x="164" y="115" type="line"/>
      <point x="167" y="-1" type="line"/>
      <point x="167" y="-11"/>
      <point x="138" y="-11"/>
      <point x="106" y="4"/>
    </contour>
    <contour>
      <point x="164" y="366" type="line"/>
      <point x="173" y="385"/>
      <point x="197" y="385" type="qcurve"/>
      <point x="200" y="385" type="line"/>
      <point x="208" y="384"/>
      <point x="216" y="384" type="qcurve"/>
      <point x="234" y="384" type="line"/>
      <point x="360" y="384"/>
      <point x="427" y="430" type="qcurve"/>
      <point x="477" y="465"/>
      <point x="490" y="511" type="qcurve"/>
      <point x="495" y="529"/>
      <point x="495" y="537" type="qcurve"/>
      <point x="495" y="594"/>
      <point x="401" y="656"/>
      <point x="327" y="656" type="qcurve"/>
      <point x="221" y="656"/>
      <point x="164" y="637" type="qcurve"/>
    </contour>
  </outline>
</glyph>
<glyph name="S" format="2">
  <advance height="1000" width="617"/>
  <unicode hex="0053"/>
  <outline>
    <contour>
      <point x="235" y="375" type="line"/>
      <point x="163" y="392"/>
      <point x="77" y="460"/>
      <point x="77" y="526" type="qcurve"/>
      <point x="77" y="574"/>
      <point x="139" y="658"/>
      <point x="246" y="711"/>
      <point x="370" y="711"/>
      <point x="465" y="677"/>
      <point x="523" y="632"/>
      <point x="523" y="614" type="qcurve"/>
      <point x="520" y="603" type="line"/>
      <point x="513" y="570"/>
      <point x="499" y="570" type="qcurve"/>
      <point x="492" y="570"/>
      <point x="480" y="583"/>
      <point x="475" y="587" type="qcurve"/>
      <point x="442" y="626"/>
      <point x="351" y="657"/>
      <point x="265" y="657"/>
      <point x="184" y="618"/>
      <point x="137" y="557"/>
      <point x="137" y="484"/>
      <point x="197" y="439"/>
      <point x="261" y="425" type="qcurve"/>
      <point x="369" y="397" type="line"/>
      <point x="465" y="372"/>
      <point x="558" y="272"/>
      <point x="558" y="192" type="qcurve"/>
      <point x="558" y="134"/>
      <point x="498" y="40"/>
      <point x="383" y="-16"/>
      <point x="300" y="-16" type="qcurve"/>
      <point x="147" y="-16"/>
      <point x="49" y="92" type="qcurve"/>
      <point x="44" y="97"/>
      <point x="44" y="123"/>
      <point x="68" y="153"/>
      <point x="87" y="153"/>
      <point x="91" y="146" type="qcurve"/>
      <point x="149" y="51"/>
      <point x="260" y="40" type="qcurve"/>
      <point x="286" y="38"/>
      <point x="302" y="38" type="qcurve"/>
      <point x="358" y="38"/>
      <point x="447" y="78"/>
      <point x="499" y="145"/>
      <point x="499" y="184" type="qcurve"/>
      <point x="499" y="248"/>
      <point x="431" y="323"/>
      <point x="352" y="344" type="qcurve"/>
    </contour>
  </outline>
</glyph>
<glyph name="T" format="2">
  <advance height="1000" width="577"/>
  <unicode hex="0054"/>
  <outline>
    <contour>
      <point x="256" y="18" type="qcurve"/>
      <point x="258" y="107" type="line"/>
      <point x="258" y="640" type="line"/>
      <point x="257" y="640" type="line"/>
      <point x="243" y="640"/>
      <point x="165" y="635"/>
      <point x="148" y="634" type="qcurve"/>
      <point x="131" y="633" type="line"/>
      <point x="106" y="632"/>
      <point x="59" y="625"/>
      <point x="48" y="624" type="qcurve"/>
      <point x="47" y="624" type="line"/>
      <point x="34" y="624"/>
      <point x="16" y="655"/>
      <point x="16" y="683"/>
      <point x="27" y="683" type="qcurve"/>
      <point x="27" y="683"/>
      <point x="98" y="681" type="qcurve"/>
      <point x="442" y="700" type="line"/>
      <point x="465" y="702"/>
      <point x="513" y="706"/>
      <point x="525" y="708" type="qcurve"/>
      <point x="528" y="708" type="line"/>
      <point x="540" y="708"/>
      <point x="557" y="678"/>
      <point x="557" y="649"/>
      <point x="546" y="649" type="qcurve"/>
      <point x="466" y="652" type="line"/>
      <point x="316" y="644" type="line"/>
      <point x="316" y="106" type="line"/>
      <point x="319" y="0" type="line"/>
      <point x="319" y="-10"/>
      <point x="288" y="-10"/>
      <point x="256" y="5"/>
    </contour>
  </outline>
</glyph>
<glyph name="U" format="2">
  <advance height="1000" width="710"/>
  <unicode hex="0055"/>
  <outline>
    <contour>
      <point x="168" y="680" type="qcurve"/>
      <point x="166" y="584" type="line"/>
      <point x="166" y="210" type="line"/>
      <point x="166" y="119"/>
      <point x="254" y="37"/>
      <point x="342" y="37" type="qcurve"/>
      <point x="405" y="37"/>
      <point x="496" y="90"/>
      <point x="545" y="183"/>
      <point x="545" y="242" type="qcurve"/>
      <point x="545" y="595" type="line"/>
      <point x="542" y="697" type="line"/>
      <point x="542" y="708"/>
      <point x="575" y="708"/>
      <point x="605" y="694"/>
      <point x="605" y="682" type="qcurve"/>
      <point x="603" y="594" type="line"/>
      <point x="603" y="230" type="line"/>
      <point x="603" y="156"/>
      <point x="538" y="45"/>
      <point x="421" y="-16"/>
      <point x="342" y="-16" type="qcurve"/>
      <point x="108" y="-16"/>
      <point x="108" y="198" type="qcurve"/>
      <point x="108" y="586" type="line"/>
      <point x="105" y="695" type="line"/>
      <point x="105" y="706"/>
      <point x="138" y="706"/>
      <point x="168" y="692"/>
    </contour>
  </outline>
</glyph>
<glyph name="V" format="2">
  <advance height="1000" width="620"/>
  <unicode hex="0056"/>
  <outline>
    <contour>
      <point x="13" y="690" type="qcurve"/>
      <point x="13" y="703"/>
      <point x="34" y="703" type="qcurve"/>
      <point x="80" y="703"/>
      <point x="84" y="684" type="qcurve"/>
      <point x="87" y="672"/>
      <point x="97" y="643"/>
      <point x="124" y="575" type="qcurve"/>
      <point x="229" y="305"/>
      <point x="303" y="74" type="qcurve"/>
      <point x="402" y="340"/>
      <point x="523" y="633"/>
      <point x="540" y="680"/>
      <point x="545" y="699" type="qcurve"/>
      <point x="548" y="710"/>
      <point x="562" y="710" type="qcurve"/>
      <point x="576" y="710"/>
      <point x="608" y="689"/>
      <point x="608" y="675" type="qcurve"/>
      <point x="608" y="671"/>
      <point x="594" y="648"/>
      <point x="557" y="568"/>
      <point x="510" y="459"/>
      <point x="460" y="335"/>
      <point x="412" y="211"/>
      <point x="392" y="156" type="qcurve"/>
      <point x="348" y="40"/>
      <point x="338" y="7" type="qcurve"/>
      <point x="330" y="-16"/>
      <point x="299" y="-16"/>
      <point x="268" y="15"/>
      <point x="238" y="104"/>
      <point x="186" y="249"/>
      <point x="129" y="402"/>
      <point x="102" y="473" type="qcurve"/>
      <point x="45" y="623"/>
      <point x="14" y="685" type="qcurve"/>
      <point x="13" y="687"/>
    </contour>
  </outline>
</glyph>
<glyph name="W" format="2">
  <advance height="1000" width="880"/>
  <unicode hex="0057"/>
  <outline>
    <contour>
      <point x="12" y="690" type="qcurve"/>
      <point x="12" y="704"/>
      <point x="32" y="704" type="qcurve"/>
      <point x="75" y="704"/>
      <point x="79" y="685" type="qcurve"/>
      <point x="93" y="631" type="line"/>
      <point x="166" y="384"/>
      <point x="233" y="73" type="qcurve"/>
      <point x="292" y="290"/>
      <point x="391" y="626"/>
      <point x="397" y="655"/>
      <point x="398" y="670" type="qcurve"/>
      <point x="398" y="688"/>
      <point x="428" y="688" type="qcurve"/>
      <point x="443" y="688"/>
      <point x="472" y="676"/>
      <point x="475" y="654"/>
      <point x="479" y="640"/>
      <point x="507" y="543"/>
      <point x="534" y="443" type="qcurve"/>
      <point x="589" y="239"/>
      <point x="625" y="72" type="qcurve"/>
      <point x="682" y="278"/>
      <point x="734" y="445" type="qcurve"/>
      <point x="792" y="633"/>
      <point x="809" y="700" type="qcurve"/>
      <point x="812" y="709"/>
      <point x="838" y="709"/>
      <point x="871" y="688"/>
      <point x="871" y="675" type="qcurve"/>
      <point x="871" y="671"/>
      <point x="859" y="643"/>
      <point x="829" y="562"/>
      <point x="807" y="496" type="qcurve"/>
      <point x="764" y="366"/>
      <point x="680" y="80" type="qcurve"/>
      <point x="676" y="64"/>
      <point x="668" y="26"/>
      <point x="657" y="-15"/>
      <point x="622" y="-15"/>
      <point x="589" y="15"/>
      <point x="581" y="46" type="qcurve"/>
      <point x="513" y="341"/>
      <point x="439" y="595" type="qcurve"/>
      <point x="384" y="420"/>
      <point x="311" y="161"/>
      <point x="283" y="64"/>
      <point x="275" y="29"/>
      <point x="268" y="7" type="qcurve"/>
      <point x="262" y="-14"/>
      <point x="229" y="-14"/>
      <point x="198" y="18"/>
      <point x="187" y="61"/>
      <point x="165" y="148"/>
      <point x="135" y="271"/>
      <point x="98" y="410"/>
      <point x="80" y="477" type="qcurve"/>
      <point x="38" y="629"/>
      <point x="13" y="685" type="qcurve"/>
      <point x="12" y="687"/>
    </contour>
  </outline>
</glyph>
<glyph name="X" format="2">
  <advance height="1000" width="600"/>
  <unicode hex="0058"/>
  <outline>
    <contour>
      <point x="302" y="319" type="qcurve"/>
      <point x="279" y="285"/>
      <point x="216" y="193"/>
      <point x="152" y="98"/>
      <point x="100" y="21"/>
      <point x="88" y="1" type="qcurve"/>
      <point x="80" y="-10"/>
      <point x="42" y="-10"/>
      <point x="13" y="1"/>
      <point x="13" y="11" type="qcurve"/>
      <point x="13" y="17"/>
      <point x="26" y="31" type="qcurve"/>
      <point x="69" y="77"/>
      <point x="101" y="126" type="qcurve"/>
      <point x="139" y="182"/>
      <point x="269" y="369" type="qcurve"/>
      <point x="118" y="594"/>
      <point x="70" y="657"/>
      <point x="52" y="676"/>
      <point x="52" y="693"/>
      <point x="82" y="706"/>
      <point x="114" y="706"/>
      <point x="124" y="687"/>
      <point x="155" y="637"/>
      <point x="197" y="573"/>
      <point x="241" y="506"/>
      <point x="279" y="448"/>
      <point x="304" y="412"/>
      <point x="304" y="411" type="qcurve"/>
      <point x="444" y="606"/>
      <point x="502" y="693" type="qcurve"/>
      <point x="507" y="699"/>
      <point x="531" y="699"/>
      <point x="564" y="680"/>
      <point x="564" y="664"/>
      <point x="550" y="650"/>
      <point x="524" y="621"/>
      <point x="502" y="591" type="qcurve"/>
      <point x="438" y="507"/>
      <point x="337" y="362" type="qcurve"/>
      <point x="459" y="179"/>
      <point x="498" y="130" type="qcurve"/>
      <point x="546" y="66"/>
      <point x="587" y="26" type="qcurve"/>
      <point x="591" y="22"/>
      <point x="591" y="8"/>
      <point x="560" y="-9"/>
      <point x="530" y="-9"/>
      <point x="522" y="0" type="qcurve"/>
      <point x="425" y="131"/>
      <point x="306" y="313"/>
    </contour>
  </outline>
</glyph>
<glyph name="Y" format="2">
  <advance height="1000" width="600"/>
  <unicode hex="0059"/>
  <outline>
    <contour>
      <point x="263" y="19" type="qcurve"/>
      <point x="265" y="108" type="line"/>
      <point x="265" y="293" type="line"/>
      <point x="192" y="430"/>
      <point x="53" y="634" type="qcurve"/>
      <point x="34" y="662"/>
      <point x="22" y="675"/>
      <point x="22" y="681" type="qcurve"/>
      <point x="22" y="691"/>
      <point x="50" y="700"/>
      <point x="82" y="700"/>
      <point x="86" y="694" type="qcurve"/>
      <point x="94" y="681"/>
      <point x="111" y="646"/>
      <point x="137" y="606" type="qcurve"/>
      <point x="232" y="460"/>
      <point x="294" y="347" type="qcurve"/>
      <point x="367" y="469"/>
      <point x="425" y="559" type="qcurve"/>
      <point x="497" y="674"/>
      <point x="510" y="698" type="qcurve"/>
      <point x="516" y="708"/>
      <point x="546" y="708"/>
      <point x="575" y="692"/>
      <point x="575" y="684" type="qcurve"/>
      <point x="575" y="683"/>
      <point x="573" y="679" type="qcurve"/>
      <point x="503" y="593"/>
      <point x="384" y="397" type="qcurve"/>
      <point x="350" y="341"/>
      <point x="323" y="293" type="qcurve"/>
      <point x="323" y="107" type="line"/>
      <point x="326" y="1" type="line"/>
      <point x="326" y="-9"/>
      <point x="295" y="-9"/>
      <point x="263" y="6"/>
    </contour>
  </outline>
</glyph>
<glyph name="Z" format="2">
  <advance height="1000" width="600"/>
  <unicode hex="005A"/>
  <outline>
    <contour>
      <point x="110" y="54" type="qcurve"/>
      <point x="182" y="60"/>
      <point x="254" y="60" type="qcurve"/>
      <point x="374" y="60" type="line"/>
      <point x="422" y="60"/>
      <point x="480" y="59"/>
      <point x="524" y="59"/>
      <point x="539" y="60" type="qcurve"/>
      <point x="540" y="60" type="line"/>
      <point x="553" y="60"/>
      <point x="571" y="27"/>
      <point x="571" y="14" type="qcurve"/>
      <point x="571" y="1"/>
      <point x="562" y="1" type="qcurve"/>
      <point x="560" y="1" type="line"/>
      <point x="522" y="5"/>
      <point x="457" y="7" type="qcurve"/>
      <point x="292" y="7" type="line"/>
      <point x="112" y="7"/>
      <point x="86" y="-2" type="qcurve"/>
      <point x="78" y="-5"/>
      <point x="58" y="-5"/>
      <point x="35" y="24"/>
      <point x="35" y="44"/>
      <point x="40" y="59"/>
      <point x="60" y="81"/>
      <point x="64" y="87" type="qcurve"/>
      <point x="188" y="277"/>
      <point x="399" y="551"/>
      <point x="472" y="645" type="qcurve"/>
      <point x="199" y="627" type="line"/>
      <point x="175" y="626"/>
      <point x="134" y="621"/>
      <point x="124" y="620" type="qcurve"/>
      <point x="123" y="620" type="line"/>
      <point x="107" y="620"/>
      <point x="83" y="658"/>
      <point x="83" y="681"/>
      <point x="91" y="681" type="qcurve"/>
      <point x="93" y="681" type="line"/>
      <point x="137" y="677"/>
      <point x="150" y="677" type="qcurve"/>
      <point x="174" y="677"/>
      <point x="198" y="679" type="qcurve"/>
      <point x="440" y="695" type="line"/>
      <point x="463" y="697"/>
      <point x="507" y="703"/>
      <point x="534" y="703"/>
      <point x="556" y="669"/>
      <point x="556" y="644"/>
      <point x="536" y="637"/>
      <point x="523" y="621"/>
      <point x="464" y="548"/>
      <point x="354" y="406"/>
      <point x="300" y="332" type="qcurve"/>
      <point x="190" y="182"/>
    </contour>
  </outline>
</glyph>
<glyph name="bracketleft" format="2">
  <advance height="1000" width="350"/>
  <unicode hex="005B"/>
  <outline>
    <contour>
      <point x="229" y="-145" type="line"/>
      <point x="215" y="-145"/>
      <point x="195" y="-149" type="qcurve"/>
      <point x="183" y="-149"/>
      <point x="163" y="-124"/>
      <point x="163" y="-114" type="qcurve"/>
      <point x="166" y="-51" type="line"/>
      <point x="166" y="678" type="line"/>
      <point x="161" y="736" type="line"/>
      <point x="161" y="750"/>
      <point x="177" y="762"/>
      <point x="202" y="762" type="qcurve"/>
      <point x="300" y="764" type="line"/>
      <point x="302" y="764" type="line"/>
      <point x="313" y="764"/>
      <point x="328" y="743"/>
      <point x="328" y="732" type="qcurve"/>
      <point x="328" y="718"/>
      <point x="315" y="718" type="qcurve"/>
      <point x="217" y="718" type="line"/>
      <point x="217" y="-102" type="line"/>
      <point x="295" y="-99"/>
      <point x="310" y="-99"/>
      <point x="326" y="-121"/>
      <point x="326" y="-131" type="qcurve"/>
      <point x="326" y="-145"/>
      <point x="313" y="-145" type="qcurve"/>
    </contour>
  </outline>
</glyph>
<glyph name="backslash" format="2">
  <advance height="1000" width="350"/>
  <unicode hex="005C"/>
  <outline>
    <contour>
      <point x="41" y="641" type="line"/>
      <point x="29" y="671"/>
      <point x="12" y="707"/>
      <point x="12" y="721"/>
      <point x="39" y="748"/>
      <point x="57" y="748"/>
      <point x="61" y="732" type="qcurve"/>
      <point x="69" y="700"/>
      <point x="84" y="659" type="qcurve"/>
      <point x="298" y="69" type="line"/>
      <point x="308" y="41"/>
      <point x="329" y="2"/>
      <point x="329" y="-19"/>
      <point x="309" y="-40"/>
      <point x="302" y="-40" type="qcurve"/>
      <point x="287" y="-40"/>
      <point x="283" y="-28" type="qcurve"/>
      <point x="274" y="1"/>
      <point x="257" y="48" type="qcurve"/>
    </contour>
  </outline>
</glyph>
<glyph name="bracketright" format="2">
  <advance height="1000" width="350"/>
  <unicode hex="005D"/>
  <outline>
    <contour>
      <point x="121" y="761" type="line"/>
      <point x="135" y="761"/>
      <point x="155" y="765" type="qcurve"/>
      <point x="167" y="765"/>
      <point x="187" y="741"/>
      <point x="187" y="730" type="qcurve"/>
      <point x="184" y="667" type="line"/>
      <point x="184" y="-62" type="line"/>
      <point x="189" y="-120" type="line"/>
      <point x="189" y="-133"/>
      <point x="173" y="-146"/>
      <point x="148" y="-146" type="qcurve"/>
      <point x="74" y="-147" type="line"/>
      <point x="57" y="-147"/>
      <point x="50" y="-148" type="qcurve"/>
      <point x="48" y="-148" type="line"/>
      <point x="37" y="-148"/>
      <point x="22" y="-126"/>
      <point x="22" y="-116" type="qcurve"/>
      <point x="22" y="-102"/>
      <point x="35" y="-102" type="qcurve"/>
      <point x="133" y="-102" type="line"/>
      <point x="133" y="718" type="line"/>
      <point x="58" y="715"/>
      <point x="40" y="715"/>
      <point x="24" y="737"/>
      <point x="24" y="747" type="qcurve"/>
      <point x="24" y="761"/>
      <point x="37" y="761" type="qcurve"/>
    </contour>
  </outline>
</glyph>
<glyph name="asciicircum" format="2">
  <advance height="1000" width="600"/>
  <unicode hex="005E"/>
  <outline>
    <contour>
      <point x="528" y="289" type="qcurve"/>
      <point x="528" y="275"/>
      <point x="496" y="275" type="qcurve"/>
      <point x="471" y="275"/>
      <point x="467" y="287" type="qcurve"/>
      <point x="455" y="329"/>
      <point x="446" y="347" type="qcurve"/>
      <point x="303" y="641" type="line"/>
      <point x="160" y="347" type="line"/>
      <point x="146" y="316"/>
      <point x="135" y="281" type="qcurve"/>
      <point x="132" y="273"/>
      <point x="119" y="273" type="qcurve"/>
      <point x="106" y="273"/>
      <point x="78" y="287"/>
      <point x="78" y="296" type="qcurve"/>
      <point x="78" y="297"/>
      <point x="84" y="308" type="qcurve"/>
      <point x="106" y="346"/>
      <point x="112" y="361" type="qcurve"/>
      <point x="262" y="672" type="line"/>
      <point x="268" y="685"/>
      <point x="270" y="696" type="qcurve"/>
      <point x="271" y="710"/>
      <point x="300" y="714" type="qcurve"/>
      <point x="303" y="715"/>
      <point x="321" y="715"/>
      <point x="332" y="695"/>
      <point x="337" y="685" type="qcurve"/>
      <point x="495" y="358" type="line"/>
      <point x="508" y="330"/>
      <point x="528" y="292"/>
    </contour>
  </outline>
</glyph>
<glyph name="grave" format="2">
  <advance height="1000" width="350"/>
  <unicode hex="0060"/>
  <unicode hex="0300"/>
  <unicode hex="02CB"/>
  <outline>
    <contour>
      <point x="100" y="686" type="line"/>
      <point x="92" y="694"/>
      <point x="92" y="713"/>
      <point x="115" y="732"/>
      <point x="142" y="732"/>
      <point x="152" y="722" type="qcurve"/>
      <point x="255" y="616" type="line"/>
      <point x="262" y="609"/>
      <point x="262" y="589"/>
      <point x="247" y="571"/>
      <point x="227" y="571"/>
      <point x="220" y="578" type="qcurve"/>
    </contour>
  </outline>
</glyph>
<glyph name="b" format="2">
  <advance height="1000" width="573"/>
  <unicode hex="0062"/>
  <outline>
    <contour>
      <point x="92" y="15" type="qcurve"/>
      <point x="94" y="106" type="line"/>
      <point x="94" y="593" type="line"/>
      <point x="91" y="699" type="line"/>
      <point x="91" y="708"/>
      <point x="120" y="708"/>
      <point x="150" y="693"/>
      <point x="150" y="681" type="qcurve"/>
      <point x="148" y="592" type="line"/>
      <point x="148" y="356" type="line"/>
      <point x="218" y="484"/>
      <point x="346" y="484" type="qcurve"/>
      <point x="420" y="484"/>
      <point x="515" y="379"/>
      <point x="515" y="194"/>
      <point x="449" y="61"/>
      <point x="339" y="-15"/>
      <point x="272" y="-15" type="qcurve"/>
      <point x="232" y="-15"/>
      <point x="162" y="25"/>
      <point x="145" y="61" type="qcurve"/>
      <point x="145" y="47"/>
      <point x="142" y="26" type="qcurve"/>
      <point x="140" y="17"/>
      <point x="116" y="-3"/>
      <point x="92" y="-3"/>
    </contour>
    <contour>
      <point x="194" y="348" type="qcurve"/>
      <point x="153" y="290"/>
      <point x="148" y="207" type="qcurve"/>
      <point x="146" y="159"/>
      <point x="146" y="98" type="qcurve"/>
      <point x="149" y="103"/>
      <point x="168" y="103"/>
      <point x="198" y="59"/>
      <point x="249" y="33"/>
      <point x="316" y="33"/>
      <point x="401" y="89"/>
      <point x="459" y="198"/>
      <point x="459" y="356"/>
      <point x="393" y="434"/>
      <point x="303" y="434"/>
      <point x="223" y="388"/>
    </contour>
  </outline>
</glyph>
<glyph name="c" format="2">
  <advance height="1000" width="530"/>
  <unicode hex="0063"/>
  <outline>
    <contour>
      <point x="475" y="152" type="qcurve"/>
      <point x="483" y="152"/>
      <point x="483" y="134"/>
      <point x="454" y="84"/>
      <point x="425" y="55" type="qcurve"/>
      <point x="354" y="-16"/>
      <point x="250" y="-16" type="qcurve"/>
      <point x="198" y="-16"/>
      <point x="111" y="32"/>
      <point x="58" y="126"/>
      <point x="58" y="254"/>
      <point x="102" y="359"/>
      <point x="176" y="439"/>
      <point x="267" y="484"/>
      <point x="355" y="484"/>
      <point x="410" y="460"/>
      <point x="442" y="429"/>
      <point x="456" y="403"/>
      <point x="456" y="386"/>
      <point x="433" y="362"/>
      <point x="416" y="362"/>
      <point x="413" y="367" type="qcurve"/>
      <point x="377" y="434"/>
      <point x="315" y="434" type="qcurve"/>
      <point x="242" y="434"/>
      <point x="178" y="364" type="qcurve"/>
      <point x="114" y="292"/>
      <point x="114" y="199" type="qcurve"/>
      <point x="114" y="142"/>
      <point x="155" y="69"/>
      <point x="218" y="34"/>
      <point x="298" y="34"/>
      <point x="335" y="50" type="qcurve"/>
      <point x="395" y="77"/>
      <point x="454" y="139" type="qcurve"/>
      <point x="467" y="152"/>
    </contour>
  </outline>
</glyph>
<glyph name="d" format="2">
  <advance height="1000" width="575"/>
  <unicode hex="0064"/>
  <outline>
    <contour>
      <point x="483" y="681" type="qcurve"/>
      <point x="481" y="592" type="line"/>
      <point x="481" y="185" type="line"/>
      <point x="481" y="141"/>
      <point x="499" y="58"/>
      <point x="515" y="38" type="qcurve"/>
      <point x="517" y="36"/>
      <point x="517" y="19"/>
      <point x="495" y="-10"/>
      <point x="471" y="-10"/>
      <point x="459" y="11" type="qcurve"/>
      <point x="430" y="62"/>
      <point x="430" y="128" type="qcurve"/>
      <point x="430" y="132" type="line"/>
      <point x="344" y="-16"/>
      <point x="220" y="-16" type="qcurve"/>
      <point x="148" y="-16"/>
      <point x="58" y="89"/>
      <point x="58" y="186" type="qcurve"/>
      <point x="58" y="304"/>
      <point x="133" y="394" type="qcurve"/>
      <point x="168" y="436"/>
      <point x="257" y="484"/>
      <point x="305" y="484" type="qcurve"/>
      <point x="391" y="484"/>
      <point x="427" y="418" type="qcurve"/>
      <point x="427" y="593" type="line"/>
      <point x="425" y="699" type="line"/>
      <point x="425" y="708"/>
      <point x="453" y="708"/>
      <point x="483" y="693"/>
    </contour>
    <contour>
      <point x="427" y="384" type="line"/>
      <point x="422" y="376"/>
      <point x="406" y="376"/>
      <point x="403" y="381" type="qcurve"/>
      <point x="368" y="436"/>
      <point x="306" y="436" type="qcurve"/>
      <point x="227" y="436"/>
      <point x="169" y="356" type="qcurve"/>
      <point x="114" y="280"/>
      <point x="114" y="110"/>
      <point x="177" y="34"/>
      <point x="255" y="34"/>
      <point x="327" y="73"/>
      <point x="358" y="107" type="qcurve"/>
      <point x="427" y="183"/>
      <point x="427" y="276" type="qcurve"/>
    </contour>
  </outline>
</glyph>
<glyph name="e" format="2">
  <advance height="1000" width="543"/>
  <unicode hex="0065"/>
  <outline>
    <contour>
      <point x="118" y="201" type="line"/>
      <point x="118" y="198" type="line"/>
      <point x="118" y="116"/>
      <point x="193" y="34"/>
      <point x="309" y="34"/>
      <point x="416" y="81"/>
      <point x="456" y="124" type="qcurve"/>
      <point x="468" y="137"/>
      <point x="485" y="137"/>
      <point x="485" y="118"/>
      <point x="455" y="72"/>
      <point x="426" y="46" type="qcurve"/>
      <point x="353" y="-16"/>
      <point x="244" y="-16" type="qcurve"/>
      <point x="193" y="-16"/>
      <point x="112" y="35"/>
      <point x="64" y="130"/>
      <point x="64" y="195" type="qcurve"/>
      <point x="64" y="210" type="line"/>
      <point x="43" y="224"/>
      <point x="43" y="240" type="qcurve"/>
      <point x="43" y="252"/>
      <point x="60" y="252" type="qcurve"/>
      <point x="71" y="252"/>
      <point x="71" y="253" type="qcurve"/>
      <point x="84" y="331"/>
      <point x="153" y="404" type="qcurve"/>
      <point x="228" y="484"/>
      <point x="319" y="484" type="qcurve"/>
      <point x="380" y="484"/>
      <point x="416" y="463" type="qcurve"/>
      <point x="483" y="424"/>
      <point x="483" y="340" type="qcurve"/>
      <point x="483" y="311"/>
      <point x="469" y="273"/>
      <point x="428" y="246"/>
      <point x="386" y="233" type="qcurve"/>
      <point x="281" y="201"/>
      <point x="130" y="201" type="qcurve"/>
    </contour>
    <contour>
      <point x="146" y="250" type="line"/>
      <point x="275" y="250"/>
      <point x="363" y="276" type="qcurve"/>
      <point x="418" y="292"/>
      <point x="425" y="312" type="qcurve"/>
      <point x="429" y="323"/>
      <point x="429" y="341" type="qcurve"/>
      <point x="429" y="385"/>
      <point x="371" y="436"/>
      <point x="281" y="436"/>
      <point x="215" y="399"/>
      <point x="190" y="370" type="qcurve"/>
      <point x="136" y="309"/>
      <point x="125" y="250" type="qcurve"/>
    </contour>
  </outline>
</glyph>
<glyph name="g" format="2">
  <advance height="1000" width="580"/>
  <unicode hex="0067"/>
  <outline>
    <contour>
      <point x="490" y="457" type="line"/>
      <point x="486" y="381"/>
      <point x="486" y="358" type="qcurve"/>
      <point x="486" y="50" type="line"/>
      <point x="486" y="-22"/>
      <point x="419" y="-122"/>
      <point x="308" y="-173"/>
      <point x="187" y="-173"/>
      <point x="117" y="-144"/>
      <point x="78" y="-106"/>
      <point x="62" y="-75"/>
      <point x="62" y="-74" type="qcurve"/>
      <point x="62" y="-61"/>
      <point x="86" y="-35"/>
      <point x="106" y="-35"/>
      <point x="110" y="-45" type="qcurve"/>
      <point x="129" y="-87"/>
      <point x="190" y="-122"/>
      <point x="242" y="-122" type="qcurve"/>
      <point x="354" y="-122"/>
      <point x="406" y="-46" type="qcurve"/>
      <point x="432" y="-7"/>
      <point x="432" y="51" type="qcurve"/>
      <point x="432" y="134" type="line"/>
      <point x="392" y="64"/>
      <point x="283" y="9"/>
      <point x="229" y="9" type="qcurve"/>
      <point x="151" y="9"/>
      <point x="58" y="112"/>
      <point x="58" y="211" type="qcurve"/>
      <point x="58" y="314"/>
      <point x="129" y="398" type="qcurve"/>
      <point x="162" y="437"/>
      <point x="249" y="484"/>
      <point x="294" y="484" type="qcurve"/>
      <point x="396" y="484"/>
      <point x="432" y="407" type="qcurve"/>
      <point x="431" y="475" type="line"/>
      <point x="431" y="484"/>
      <point x="460" y="484"/>
      <point x="490" y="469"/>
      <point x="490" y="458" type="qcurve"/>
    </contour>
    <contour>
      <point x="432" y="390" type="line"/>
      <point x="423" y="375"/>
      <point x="406" y="375"/>
      <point x="402" y="380" type="qcurve"/>
      <point x="360" y="435"/>
      <point x="298" y="435" type="qcurve"/>
      <point x="224" y="435"/>
      <point x="168" y="363" type="qcurve"/>
      <point x="114" y="292"/>
      <point x="114" y="131"/>
      <point x="177" y="59"/>
      <point x="266" y="59"/>
      <point x="348" y="97"/>
      <point x="382" y="134" type="qcurve"/>
      <point x="430" y="188"/>
      <point x="432" y="270" type="qcurve"/>
      <point x="432" y="302"/>
      <point x="432" y="340" type="qcurve"/>
    </contour>
  </outline>
</glyph>
<glyph name="h" format="2">
  <advance height="1000" width="588"/>
  <unicode hex="0068"/>
  <outline>
    <contour>
      <point x="494" y="105" type="line"/>
      <point x="497" y="-1" type="line"/>
      <point x="497" y="-10"/>
      <point x="468" y="-10"/>
      <point x="438" y="5"/>
      <point x="438" y="16" type="qcurve"/>
      <point x="438" y="17" type="line"/>
      <point x="439" y="25"/>
      <point x="439" y="44" type="qcurve"/>
      <point x="440" y="115" type="line"/>
      <point x="440" y="293" type="line"/>
      <point x="440" y="382"/>
      <point x="406" y="413" type="qcurve"/>
      <point x="387" y="431"/>
      <point x="313" y="431"/>
      <point x="276" y="416" type="qcurve"/>
      <point x="168" y="372"/>
      <point x="154" y="228" type="qcurve"/>
      <point x="150" y="194"/>
      <point x="149" y="129"/>
      <point x="148" y="105" type="qcurve"/>
      <point x="148" y="89" type="line"/>
      <point x="148" y="59"/>
      <point x="151" y="-1" type="qcurve"/>
      <point x="151" y="-10"/>
      <point x="123" y="-10"/>
      <point x="92" y="5"/>
      <point x="92" y="17" type="qcurve"/>
      <point x="94" y="115" type="line"/>
      <point x="94" y="590" type="line"/>
      <point x="91" y="697" type="line"/>
      <point x="91" y="706"/>
      <point x="120" y="706"/>
      <point x="150" y="691"/>
      <point x="150" y="679" type="qcurve"/>
      <point x="148" y="580" type="line"/>
      <point x="148" y="358" type="line"/>
      <point x="186" y="436"/>
      <point x="272" y="468" type="qcurve"/>
      <point x="311" y="483"/>
      <point x="396" y="483"/>
      <point x="454" y="448"/>
      <point x="469" y="420" type="qcurve"/>
      <point x="494" y="373"/>
      <point x="494" y="297" type="qcurve"/>
    </contour>
  </outline>
</glyph>
<glyph name="i" format="2">
  <advance height="1000" width="263"/>
  <unicode hex="0069"/>
  <outline>
    <contour>
      <point x="88" y="655" type="qcurve"/>
      <point x="88" y="696"/>
      <point x="126" y="696" type="qcurve"/>
      <point x="143" y="696"/>
      <point x="173" y="661"/>
      <point x="173" y="641" type="qcurve"/>
      <point x="173" y="602"/>
      <point x="136" y="602" type="qcurve"/>
      <point x="117" y="602"/>
      <point x="88" y="637"/>
    </contour>
    <contour>
      <point x="102" y="17" type="qcurve"/>
      <point x="104" y="105" type="line"/>
      <point x="104" y="368" type="line"/>
      <point x="101" y="475" type="line"/>
      <point x="101" y="483"/>
      <point x="130" y="483"/>
      <point x="161" y="468"/>
      <point x="161" y="457" type="qcurve"/>
      <point x="159" y="368" type="line"/>
      <point x="159" y="105" type="line"/>
      <point x="162" y="-1" type="line"/>
      <point x="162" y="-9"/>
      <point x="134" y="-9"/>
      <point x="102" y="6"/>
    </contour>
  </outline>
</glyph>
<glyph name="j" format="2">
  <advance height="1000" width="301"/>
  <unicode hex="006A"/>
  <outline>
    <contour>
      <point x="135" y="655" type="qcurve"/>
      <point x="135" y="696"/>
      <point x="173" y="696" type="qcurve"/>
      <point x="190" y="696"/>
      <point x="220" y="661"/>
      <point x="220" y="641" type="qcurve"/>
      <point x="220" y="602"/>
      <point x="183" y="602" type="qcurve"/>
      <point x="164" y="602"/>
      <point x="135" y="637"/>
    </contour>
    <contour>
      <point x="207" y="457" type="qcurve"/>
      <point x="205" y="364" type="line"/>
      <point x="205" y="-30" type="line"/>
      <point x="205" y="-102"/>
      <point x="168" y="-139" type="qcurve"/>
      <point x="146" y="-160"/>
      <point x="53" y="-160"/>
      <point x="2" y="-125"/>
      <point x="2" y="-112" type="qcurve"/>
      <point x="2" y="-99"/>
      <point x="18" y="-73"/>
      <point x="36" y="-73"/>
      <point x="47" y="-86" type="qcurve"/>
      <point x="65" y="-108"/>
      <point x="104" y="-108" type="qcurve"/>
      <point x="137" y="-108"/>
      <point x="147" y="-64" type="qcurve"/>
      <point x="151" y="-46"/>
      <point x="151" y="-31" type="qcurve"/>
      <point x="151" y="364" type="line"/>
      <point x="148" y="475" type="line"/>
      <point x="148" y="484"/>
      <point x="177" y="484"/>
      <point x="207" y="469"/>
    </contour>
  </outline>
</glyph>
<glyph name="k" format="2">
  <advance height="1000" width="510"/>
  <unicode hex="006B"/>
  <outline>
    <contour>
      <point x="92" y="18" type="qcurve"/>
      <point x="94" y="106" type="line"/>
      <point x="94" y="590" type="line"/>
      <point x="91" y="697" type="line"/>
      <point x="91" y="706"/>
      <point x="120" y="706"/>
      <point x="150" y="691"/>
      <point x="150" y="679" type="qcurve"/>
      <point x="148" y="590" type="line"/>
      <point x="148" y="301" type="line"/>
      <point x="345" y="439" type="line"/>
      <point x="364" y="452"/>
      <point x="389" y="477" type="qcurve"/>
      <point x="395" y="483"/>
      <point x="423" y="483"/>
      <point x="457" y="467"/>
      <point x="457" y="458" type="qcurve"/>
      <point x="457" y="454"/>
      <point x="444" y="446" type="qcurve"/>
      <point x="397" y="415"/>
      <point x="380" y="403" type="qcurve"/>
      <point x="226" y="294" type="line"/>
      <point x="255" y="266"/>
      <point x="294" y="224" type="qcurve"/>
      <point x="380" y="133"/>
      <point x="446" y="67" type="qcurve"/>
      <point x="471" y="42"/>
      <point x="504" y="28" type="qcurve"/>
      <point x="510" y="25"/>
      <point x="510" y="10"/>
      <point x="479" y="-13"/>
      <point x="459" y="-13"/>
      <point x="451" y="-6" type="qcurve"/>
      <point x="422" y="17"/>
      <point x="384" y="56"/>
      <point x="327" y="117"/>
      <point x="296" y="150" type="qcurve"/>
      <point x="224" y="224"/>
      <point x="183" y="264" type="qcurve"/>
      <point x="148" y="241" type="line"/>
      <point x="148" y="106" type="line"/>
      <point x="151" y="0" type="line"/>
      <point x="151" y="-9"/>
      <point x="123" y="-9"/>
      <point x="92" y="6"/>
    </contour>
  </outline>
</glyph>
<glyph name="l" format="2">
  <advance height="1000" width="263"/>
  <unicode hex="006C"/>
  <outline>
    <contour>
      <point x="165" y="39" type="qcurve"/>
      <point x="172" y="32"/>
      <point x="183" y="32" type="qcurve"/>
      <point x="185" y="32" type="line"/>
      <point x="210" y="33"/>
      <point x="238" y="62" type="qcurve"/>
      <point x="247" y="71"/>
      <point x="255" y="71"/>
      <point x="255" y="50"/>
      <point x="230" y="18" type="qcurve"/>
      <point x="202" y="-13"/>
      <point x="176" y="-13" type="qcurve"/>
      <point x="166" y="-13" type="line"/>
      <point x="136" y="-9"/>
      <point x="121" y="10" type="qcurve"/>
      <point x="106" y="32"/>
      <point x="105" y="75" type="qcurve"/>
      <point x="105" y="590" type="line"/>
      <point x="102" y="697" type="line"/>
      <point x="102" y="709"/>
      <point x="129" y="709"/>
      <point x="160" y="697"/>
      <point x="160" y="689" type="qcurve"/>
      <point x="158" y="590" type="line"/>
      <point x="158" y="78" type="line"/>
      <point x="158" y="48"/>
    </contour>
  </outline>
</glyph>
<glyph name="m" format="2">
  <advance height="1000" width="816"/>
  <unicode hex="006D"/>
  <outline>
    <contour>
      <point x="666" y="17" type="qcurve"/>
      <point x="668" y="105" type="line"/>
      <point x="668" y="293" type="line"/>
      <point x="668" y="354"/>
      <point x="619" y="434"/>
      <point x="574" y="434" type="qcurve"/>
      <point x="543" y="434"/>
      <point x="478" y="388"/>
      <point x="433" y="313"/>
      <point x="433" y="268" type="qcurve"/>
      <point x="433" y="105" type="line"/>
      <point x="436" y="-1" type="line"/>
      <point x="436" y="-10"/>
      <point x="408" y="-10"/>
      <point x="378" y="5"/>
      <point x="378" y="17" type="qcurve"/>
      <point x="380" y="105" type="line"/>
      <point x="380" y="293" type="line"/>
      <point x="380" y="352"/>
      <point x="347" y="434"/>
      <point x="301" y="434" type="qcurve"/>
      <point x="247" y="434"/>
      <point x="204" y="386" type="qcurve"/>
      <point x="179" y="358"/>
      <point x="151" y="263"/>
      <point x="148" y="156"/>
      <point x="147" y="105" type="qcurve"/>
      <point x="150" y="-1" type="line"/>
      <point x="150" y="-10"/>
      <point x="122" y="-10"/>
      <point x="91" y="5"/>
      <point x="91" y="17" type="qcurve"/>
      <point x="93" y="105" type="line"/>
      <point x="93" y="356" type="line"/>
      <point x="90" y="472" type="line"/>
      <point x="90" y="481"/>
      <point x="119" y="481"/>
      <point x="149" y="466"/>
      <point x="149" y="454" type="qcurve"/>
      <point x="149" y="442"/>
      <point x="148" y="399"/>
      <point x="148" y="376" type="qcurve"/>
      <point x="168" y="426"/>
      <point x="255" y="484"/>
      <point x="359" y="484"/>
      <point x="416" y="425"/>
      <point x="423" y="387" type="qcurve"/>
      <point x="448" y="434"/>
      <point x="533" y="484"/>
      <point x="629" y="484"/>
      <point x="660" y="456" type="qcurve"/>
      <point x="722" y="403"/>
      <point x="722" y="297" type="qcurve"/>
      <point x="722" y="105" type="line"/>
      <point x="725" y="-1" type="line"/>
      <point x="725" y="-10"/>
      <point x="697" y="-10"/>
      <point x="666" y="5"/>
    </contour>
  </outline>
</glyph>
<glyph name="n" format="2">
  <advance height="1000" width="588"/>
  <unicode hex="006E"/>
  <outline>
    <contour>
      <point x="438" y="17" type="qcurve"/>
      <point x="440" y="105" type="line"/>
      <point x="440" y="294" type="line"/>
      <point x="440" y="382"/>
      <point x="406" y="414" type="qcurve"/>
      <point x="386" y="432"/>
      <point x="313" y="432"/>
      <point x="276" y="417" type="qcurve"/>
      <point x="156" y="368"/>
      <point x="150" y="198" type="qcurve"/>
      <point x="149" y="149"/>
      <point x="148" y="105" type="qcurve"/>
      <point x="148" y="91" type="line"/>
      <point x="148" y="91"/>
      <point x="151" y="-1" type="qcurve"/>
      <point x="151" y="-10"/>
      <point x="123" y="-10"/>
      <point x="92" y="5"/>
      <point x="92" y="17" type="qcurve"/>
      <point x="94" y="105" type="line"/>
      <point x="94" y="365" type="line"/>
      <point x="91" y="472" type="line"/>
      <point x="91" y="481"/>
      <point x="120" y="481"/>
      <point x="150" y="466"/>
      <point x="150" y="456" type="qcurve"/>
      <point x="150" y="428" type="line"/>
      <point x="150" y="411"/>
      <point x="149" y="373"/>
      <point x="149" y="359" type="qcurve"/>
      <point x="187" y="437"/>
      <point x="272" y="470" type="qcurve"/>
      <point x="311" y="484"/>
      <point x="396" y="484"/>
      <point x="454" y="449"/>
      <point x="469" y="421" type="qcurve"/>
      <point x="494" y="374"/>
      <point x="494" y="298" type="qcurve"/>
      <point x="494" y="105" type="line"/>
      <point x="497" y="-1" type="line"/>
      <point x="497" y="-10"/>
      <point x="469" y="-10"/>
      <point x="438" y="5"/>
    </contour>
  </outline>
</glyph>
<glyph name="o" format="2">
  <advance height="1000" width="562"/>
  <unicode hex="006F"/>
  <outline>
    <contour>
      <point x="193" y="442" type="qcurve"/>
      <point x="249" y="484"/>
      <point x="312" y="484" type="qcurve"/>
      <point x="397" y="484"/>
      <point x="504" y="358"/>
      <point x="504" y="245" type="qcurve"/>
      <point x="504" y="144"/>
      <point x="443" y="67" type="qcurve"/>
      <point x="377" y="-16"/>
      <point x="167" y="-16"/>
      <point x="58" y="104"/>
      <point x="58" y="207" type="qcurve"/>
      <point x="58" y="289"/>
      <point x="108" y="374" type="qcurve"/>
      <point x="128" y="410"/>
      <point x="167" y="452"/>
      <point x="188" y="452"/>
    </contour>
    <contour>
      <point x="267" y="35" type="qcurve"/>
      <point x="316" y="35"/>
      <point x="399" y="92"/>
      <point x="449" y="187"/>
      <point x="449" y="245" type="qcurve"/>
      <point x="449" y="329"/>
      <point x="375" y="434"/>
      <point x="306" y="434" type="qcurve"/>
      <point x="223" y="434"/>
      <point x="168" y="360" type="qcurve"/>
      <point x="113" y="289"/>
      <point x="113" y="125"/>
      <point x="195" y="35"/>
    </contour>
  </outline>
</glyph>
<glyph name="p" format="2">
  <advance height="1000" width="572"/>
  <unicode hex="0070"/>
  <outline>
    <contour>
      <point x="92" y="-144" type="qcurve"/>
      <point x="94" y="-55" type="line"/>
      <point x="94" y="368" type="line"/>
      <point x="94" y="421"/>
      <point x="91" y="472" type="qcurve"/>
      <point x="91" y="481"/>
      <point x="120" y="481"/>
      <point x="151" y="466"/>
      <point x="151" y="454" type="qcurve"/>
      <point x="151" y="454"/>
      <point x="150" y="401" type="qcurve"/>
      <point x="150" y="384"/>
      <point x="150" y="372" type="qcurve"/>
      <point x="149" y="360" type="line"/>
      <point x="184" y="435"/>
      <point x="267" y="468" type="qcurve"/>
      <point x="306" y="484"/>
      <point x="345" y="484" type="qcurve"/>
      <point x="426" y="484"/>
      <point x="514" y="376"/>
      <point x="514" y="278" type="qcurve"/>
      <point x="514" y="162"/>
      <point x="450" y="74" type="qcurve"/>
      <point x="384" y="-15"/>
      <point x="283" y="-15" type="qcurve"/>
      <point x="245" y="-15"/>
      <point x="168" y="20"/>
      <point x="148" y="54" type="qcurve"/>
      <point x="148" y="-56" type="line"/>
      <point x="151" y="-162" type="line"/>
      <point x="151" y="-171"/>
      <point x="123" y="-171"/>
      <point x="92" y="-156"/>
    </contour>
    <contour>
      <point x="148" y="100" type="qcurve"/>
      <point x="152" y="102"/>
      <point x="156" y="102" type="qcurve"/>
      <point x="168" y="102"/>
      <point x="197" y="59"/>
      <point x="249" y="33"/>
      <point x="276" y="33" type="qcurve"/>
      <point x="330" y="33"/>
      <point x="412" y="102"/>
      <point x="458" y="212"/>
      <point x="458" y="353"/>
      <point x="396" y="434"/>
      <point x="303" y="434"/>
      <point x="222" y="387"/>
      <point x="163" y="305"/>
      <point x="152" y="252" type="qcurve"/>
      <point x="148" y="235"/>
    </contour>
  </outline>
</glyph>
<glyph name="q" format="2">
  <advance height="1000" width="576"/>
  <unicode hex="0071"/>
  <outline>
    <contour>
      <point x="426" y="-148" type="qcurve"/>
      <point x="428" y="-59" type="line"/>
      <point x="428" y="125" type="line"/>
      <point x="389" y="52"/>
      <point x="281" y="-16"/>
      <point x="148" y="-16"/>
      <point x="58" y="91"/>
      <point x="58" y="186" type="qcurve"/>
      <point x="58" y="304"/>
      <point x="131" y="394" type="qcurve"/>
      <point x="205" y="484"/>
      <point x="304" y="484" type="qcurve"/>
      <point x="387" y="484"/>
      <point x="427" y="420" type="qcurve"/>
      <point x="426" y="437"/>
      <point x="426" y="451" type="qcurve"/>
      <point x="426" y="451"/>
      <point x="426" y="475" type="qcurve"/>
      <point x="426" y="484"/>
      <point x="454" y="484"/>
      <point x="484" y="469"/>
      <point x="484" y="457" type="qcurve"/>
      <point x="482" y="368" type="line"/>
      <point x="482" y="-60" type="line"/>
      <point x="485" y="-166" type="line"/>
      <point x="485" y="-175"/>
      <point x="457" y="-175"/>
      <point x="426" y="-160"/>
    </contour>
    <contour>
      <point x="428" y="384" type="line"/>
      <point x="423" y="376"/>
      <point x="408" y="376"/>
      <point x="405" y="381" type="qcurve"/>
      <point x="370" y="436"/>
      <point x="305" y="436" type="qcurve"/>
      <point x="226" y="436"/>
      <point x="169" y="358" type="qcurve"/>
      <point x="114" y="282"/>
      <point x="114" y="111"/>
      <point x="177" y="34"/>
      <point x="255" y="34"/>
      <point x="328" y="74"/>
      <point x="390" y="141"/>
      <point x="428" y="228"/>
      <point x="428" y="274" type="qcurve"/>
    </contour>
  </outline>
</glyph>
<glyph name="r" format="2">
  <advance height="1000" width="430"/>
  <unicode hex="0072"/>
  <outline>
    <contour>
      <point x="92" y="18" type="qcurve"/>
      <point x="94" y="106" type="line"/>
      <point x="94" y="367" type="line"/>
      <point x="91" y="474" type="line"/>
      <point x="91" y="483"/>
      <point x="120" y="483"/>
      <point x="150" y="468"/>
      <point x="150" y="456" type="qcurve"/>
      <point x="150" y="444"/>
      <point x="149" y="409"/>
      <point x="149" y="391" type="qcurve"/>
      <point x="169" y="429"/>
      <point x="254" y="484"/>
      <point x="307" y="484" type="qcurve"/>
      <point x="362" y="484"/>
      <point x="403" y="452" type="qcurve"/>
      <point x="420" y="438"/>
      <point x="420" y="411"/>
      <point x="402" y="381"/>
      <point x="384" y="381"/>
      <point x="378" y="391" type="qcurve"/>
      <point x="368" y="411"/>
      <point x="320" y="429"/>
      <point x="304" y="429" type="qcurve"/>
      <point x="261" y="429"/>
      <point x="220" y="400" type="qcurve"/>
      <point x="162" y="359"/>
      <point x="152" y="266" type="qcurve"/>
      <point x="148" y="230"/>
      <point x="148" y="106" type="qcurve"/>
      <point x="151" y="0" type="line"/>
      <point x="151" y="-9"/>
      <point x="123" y="-9"/>
      <point x="92" y="6"/>
    </contour>
  </outline>
</glyph>
<glyph name="s" format="2">
  <advance height="1000" width="510"/>
  <unicode hex="0073"/>
  <outline>
    <contour>
      <point x="195" y="246" type="line"/>
      <point x="140" y="259"/>
      <point x="85" y="310"/>
      <point x="85" y="394"/>
      <point x="135" y="452"/>
      <point x="217" y="484"/>
      <point x="323" y="484"/>
      <point x="405" y="448"/>
      <point x="425" y="422" type="qcurve"/>
      <point x="428" y="419"/>
      <point x="428" y="394"/>
      <point x="406" y="374"/>
      <point x="395" y="374"/>
      <point x="390" y="381"/>
      <point x="386" y="386" type="qcurve"/>
      <point x="353" y="437"/>
      <point x="266" y="437" type="qcurve"/>
      <point x="208" y="437"/>
      <point x="138" y="389"/>
      <point x="138" y="354" type="qcurve"/>
      <point x="138" y="310"/>
      <point x="216" y="292" type="qcurve"/>
      <point x="312" y="269" type="line"/>
      <point x="376" y="254"/>
      <point x="450" y="190"/>
      <point x="450" y="128" type="qcurve"/>
      <point x="450" y="89"/>
      <point x="404" y="23"/>
      <point x="319" y="-16"/>
      <point x="204" y="-16"/>
      <point x="127" y="11"/>
      <point x="81" y="48"/>
      <point x="61" y="81"/>
      <point x="61" y="101"/>
      <point x="84" y="128"/>
      <point x="100" y="128"/>
      <point x="103" y="121" type="qcurve"/>
      <point x="130" y="52"/>
      <point x="198" y="40" type="qcurve"/>
      <point x="229" y="34"/>
      <point x="260" y="34" type="qcurve"/>
      <point x="322" y="34"/>
      <point x="396" y="91"/>
      <point x="396" y="162"/>
      <point x="351" y="209"/>
      <point x="295" y="222" type="qcurve"/>
    </contour>
  </outline>
</glyph>
<glyph name="t" format="2">
  <advance height="1000" width="360"/>
  <unicode hex="0074"/>
  <outline>
    <contour>
      <point x="176" y="617" type="qcurve"/>
      <point x="174" y="528" type="line"/>
      <point x="174" y="478" type="line"/>
      <point x="204" y="479" type="line"/>
      <point x="240" y="481"/>
      <point x="280" y="485" type="qcurve"/>
      <point x="281" y="485" type="line"/>
      <point x="293" y="485"/>
      <point x="311" y="460"/>
      <point x="311" y="437"/>
      <point x="301" y="437" type="qcurve"/>
      <point x="263" y="437" type="line"/>
      <point x="235" y="437"/>
      <point x="215" y="436" type="qcurve"/>
      <point x="174" y="434" type="line"/>
      <point x="174" y="108" type="line"/>
      <point x="174" y="66"/>
      <point x="190" y="38"/>
      <point x="212" y="38" type="qcurve"/>
      <point x="252" y="38"/>
      <point x="316" y="89" type="qcurve"/>
      <point x="328" y="97"/>
      <point x="344" y="97"/>
      <point x="344" y="80"/>
      <point x="320" y="46"/>
      <point x="300" y="28" type="qcurve"/>
      <point x="253" y="-16"/>
      <point x="156" y="-16"/>
      <point x="120" y="47"/>
      <point x="120" y="110" type="qcurve"/>
      <point x="120" y="432" type="line"/>
      <point x="116" y="432" type="line"/>
      <point x="94" y="431"/>
      <point x="73" y="430" type="qcurve"/>
      <point x="52" y="428" type="line"/>
      <point x="39" y="428"/>
      <point x="21" y="455"/>
      <point x="21" y="465" type="qcurve"/>
      <point x="21" y="475"/>
      <point x="31" y="475" type="qcurve"/>
      <point x="120" y="475" type="line"/>
      <point x="120" y="528" type="line"/>
      <point x="118" y="635" type="line"/>
      <point x="118" y="644"/>
      <point x="146" y="644"/>
      <point x="176" y="629"/>
    </contour>
  </outline>
</glyph>
<glyph name="u" format="2">
  <advance height="1000" width="590"/>
  <unicode hex="0075"/>
  <outline>
    <contour>
      <point x="150" y="456" type="qcurve"/>
      <point x="148" y="368" type="line"/>
      <point x="148" y="175" type="line"/>
      <point x="148" y="116"/>
      <point x="194" y="34"/>
      <point x="288" y="34"/>
      <point x="373" y="103"/>
      <point x="402" y="164" type="qcurve"/>
      <point x="434" y="231"/>
      <point x="436" y="342" type="qcurve"/>
      <point x="438" y="418"/>
      <point x="438" y="442" type="qcurve"/>
      <point x="438" y="475" type="line"/>
      <point x="438" y="484"/>
      <point x="468" y="484"/>
      <point x="498" y="470"/>
      <point x="498" y="459" type="qcurve"/>
      <point x="498" y="457" type="line"/>
      <point x="486" y="385"/>
      <point x="486" y="169"/>
      <point x="505" y="64"/>
      <point x="524" y="34" type="qcurve"/>
      <point x="526" y="30"/>
      <point x="526" y="17"/>
      <point x="505" y="-11"/>
      <point x="480" y="-11"/>
      <point x="461" y="22"/>
      <point x="454" y="46" type="qcurve"/>
      <point x="440" y="100"/>
      <point x="440" y="132" type="qcurve"/>
      <point x="407" y="61"/>
      <point x="304" y="-16"/>
      <point x="185" y="-16"/>
      <point x="152" y="11" type="qcurve"/>
      <point x="94" y="60"/>
      <point x="94" y="171" type="qcurve"/>
      <point x="94" y="368" type="line"/>
      <point x="91" y="474" type="line"/>
      <point x="91" y="483"/>
      <point x="120" y="483"/>
      <point x="150" y="468"/>
    </contour>
  </outline>
</glyph>
<glyph name="v" format="2">
  <advance height="1000" width="490"/>
  <unicode hex="0076"/>
  <outline>
    <contour>
      <point x="31" y="464" type="qcurve"/>
      <point x="31" y="480"/>
      <point x="64" y="480" type="qcurve"/>
      <point x="94" y="480"/>
      <point x="100" y="455"/>
      <point x="112" y="420"/>
      <point x="117" y="404" type="qcurve"/>
      <point x="237" y="67" type="line"/>
      <point x="376" y="404" type="line"/>
      <point x="394" y="446"/>
      <point x="401" y="475" type="qcurve"/>
      <point x="404" y="484"/>
      <point x="433" y="484"/>
      <point x="463" y="469"/>
      <point x="463" y="458" type="qcurve"/>
      <point x="463" y="456"/>
      <point x="458" y="448" type="qcurve"/>
      <point x="436" y="404"/>
      <point x="429" y="387" type="qcurve"/>
      <point x="293" y="66" type="line"/>
      <point x="284" y="45"/>
      <point x="268" y="-6"/>
      <point x="256" y="-15"/>
      <point x="247" y="-15" type="qcurve"/>
      <point x="229" y="-15"/>
      <point x="205" y="10"/>
      <point x="199" y="28"/>
      <point x="191" y="47" type="qcurve"/>
      <point x="63" y="390" type="line"/>
      <point x="57" y="407"/>
      <point x="49" y="424" type="qcurve"/>
      <point x="31" y="461"/>
    </contour>
  </outline>
</glyph>
<glyph name="w" format="2">
  <advance height="1000" width="730"/>
  <unicode hex="0077"/>
  <outline>
    <contour>
      <point x="27" y="463" type="qcurve"/>
      <point x="27" y="477"/>
      <point x="55" y="477" type="qcurve"/>
      <point x="69" y="477"/>
      <point x="94" y="467"/>
      <point x="96" y="457" type="qcurve"/>
      <point x="99" y="431"/>
      <point x="106" y="407" type="qcurve"/>
      <point x="200" y="64" type="line"/>
      <point x="315" y="393" type="line"/>
      <point x="323" y="423"/>
      <point x="328" y="456" type="qcurve"/>
      <point x="330" y="467"/>
      <point x="363" y="467"/>
      <point x="396" y="453"/>
      <point x="397" y="445" type="qcurve"/>
      <point x="400" y="423"/>
      <point x="406" y="402" type="qcurve"/>
      <point x="508" y="64" type="line"/>
      <point x="623" y="405" type="line"/>
      <point x="633" y="432"/>
      <point x="642" y="474" type="qcurve"/>
      <point x="645" y="484"/>
      <point x="675" y="484"/>
      <point x="703" y="471"/>
      <point x="703" y="460" type="qcurve"/>
      <point x="703" y="457"/>
      <point x="699" y="448" type="qcurve"/>
      <point x="692" y="433"/>
      <point x="675" y="388" type="qcurve"/>
      <point x="562" y="66" type="line"/>
      <point x="558" y="54"/>
      <point x="549" y="23"/>
      <point x="545" y="8" type="qcurve"/>
      <point x="538" y="-16"/>
      <point x="517" y="-16" type="qcurve"/>
      <point x="493" y="-16"/>
      <point x="475" y="2" type="qcurve"/>
      <point x="468" y="10"/>
      <point x="464" y="34"/>
      <point x="460" y="47" type="qcurve"/>
      <point x="362" y="374" type="line"/>
      <point x="252" y="66" type="line"/>
      <point x="246" y="49"/>
      <point x="239" y="22"/>
      <point x="234" y="6" type="qcurve"/>
      <point x="229" y="-16"/>
      <point x="187" y="-16"/>
      <point x="162" y="10"/>
      <point x="158" y="28"/>
      <point x="152" y="47" type="qcurve"/>
      <point x="50" y="400" type="line"/>
      <point x="40" y="428" type="line"/>
      <point x="34" y="444"/>
      <point x="27" y="461"/>
    </contour>
  </outline>
</glyph>
<glyph name="x" format="2">
  <advance height="1000" width="500"/>
  <unicode hex="0078"/>
  <outline>
    <contour>
      <point x="251" y="203" type="line"/>
      <point x="142" y="57" type="line"/>
      <point x="130" y="41"/>
      <point x="102" y="-1" type="qcurve"/>
      <point x="96" y="-10"/>
      <point x="64" y="-10"/>
      <point x="36" y="2"/>
      <point x="36" y="9" type="qcurve"/>
      <point x="36" y="13"/>
      <point x="45" y="22" type="qcurve"/>
      <point x="64" y="41"/>
      <point x="103" y="89" type="qcurve"/>
      <point x="220" y="245" type="line"/>
      <point x="109" y="393" type="line"/>
      <point x="91" y="417"/>
      <point x="53" y="455"/>
      <point x="53" y="457" type="qcurve"/>
      <point x="53" y="465"/>
      <point x="86" y="478"/>
      <point x="100" y="478" type="qcurve"/>
      <point x="114" y="478"/>
      <point x="118" y="470" type="qcurve"/>
      <point x="127" y="452"/>
      <point x="148" y="423" type="qcurve"/>
      <point x="251" y="286" type="line"/>
      <point x="357" y="427" type="line"/>
      <point x="372" y="446"/>
      <point x="388" y="476" type="qcurve"/>
      <point x="391" y="482"/>
      <point x="405" y="482" type="qcurve"/>
      <point x="419" y="482"/>
      <point x="452" y="469"/>
      <point x="452" y="461" type="qcurve"/>
      <point x="452" y="459"/>
      <point x="443" y="450" type="qcurve"/>
      <point x="418" y="425"/>
      <point x="396" y="397" type="qcurve"/>
      <point x="282" y="245" type="line"/>
      <point x="398" y="91" type="line"/>
      <point x="415" y="68"/>
      <point x="462" y="18" type="qcurve"/>
      <point x="465" y="15"/>
      <point x="465" y="11" type="qcurve"/>
      <point x="465" y="3"/>
      <point x="437" y="-8"/>
      <point x="405" y="-8"/>
      <point x="398" y="2" type="qcurve"/>
      <point x="377" y="34"/>
      <point x="359" y="59" type="qcurve"/>
    </contour>
  </outline>
</glyph>
<glyph name="y" format="2">
  <advance height="1000" width="500"/>
  <unicode hex="0079"/>
  <outline>
    <contour>
      <point x="31" y="465" type="qcurve"/>
      <point x="31" y="480"/>
      <point x="62" y="480" type="qcurve"/>
      <point x="94" y="480"/>
      <point x="98" y="466" type="qcurve"/>
      <point x="112" y="430"/>
      <point x="128" y="392" type="qcurve"/>
      <point x="253" y="107" type="line"/>
      <point x="385" y="382" type="line"/>
      <point x="406" y="426"/>
      <point x="422" y="475" type="qcurve"/>
      <point x="425" y="484"/>
      <point x="449" y="484"/>
      <point x="477" y="463"/>
      <point x="477" y="442"/>
      <point x="466" y="421"/>
      <point x="444" y="380"/>
      <point x="435" y="362" type="qcurve"/>
      <point x="224" y="-81" type="line"/>
      <point x="205" y="-122"/>
      <point x="154" y="-162"/>
      <point x="116" y="-162" type="qcurve"/>
      <point x="106" y="-162" type="line"/>
      <point x="87" y="-162"/>
      <point x="40" y="-154"/>
      <point x="17" y="-135" type="qcurve"/>
      <point x="12" y="-132"/>
      <point x="12" y="-110"/>
      <point x="30" y="-81"/>
      <point x="48" y="-81"/>
      <point x="58" y="-92" type="qcurve"/>
      <point x="73" y="-109"/>
      <point x="113" y="-109" type="qcurve"/>
      <point x="129" y="-109"/>
      <point x="165" y="-81"/>
      <point x="180" y="-50" type="qcurve"/>
      <point x="224" y="43" type="line"/>
      <point x="74" y="378" type="line"/>
      <point x="52" y="426"/>
      <point x="31" y="463"/>
    </contour>
  </outline>
</glyph>
<glyph name="z" format="2">
  <advance height="1000" width="490"/>
  <unicode hex="007A"/>
  <outline>
    <contour>
      <point x="291" y="52" type="line"/>
      <point x="331" y="52"/>
      <point x="387" y="51"/>
      <point x="419" y="53" type="qcurve"/>
      <point x="420" y="53" type="line"/>
      <point x="431" y="53"/>
      <point x="448" y="22"/>
      <point x="448" y="-5"/>
      <point x="438" y="-5" type="qcurve"/>
      <point x="397" y="-1"/>
      <point x="357" y="1" type="qcurve"/>
      <point x="222" y="1" type="line"/>
      <point x="132" y="1"/>
      <point x="78" y="-8"/>
      <point x="57" y="-8"/>
      <point x="43" y="18"/>
      <point x="43" y="43"/>
      <point x="50" y="62"/>
      <point x="69" y="78"/>
      <point x="118" y="145"/>
      <point x="168" y="207" type="qcurve"/>
      <point x="275" y="340"/>
      <point x="352" y="423" type="qcurve"/>
      <point x="191" y="412" type="line"/>
      <point x="164" y="411"/>
      <point x="122" y="405" type="qcurve"/>
      <point x="120" y="405" type="line"/>
      <point x="105" y="405"/>
      <point x="80" y="441"/>
      <point x="80" y="463"/>
      <point x="88" y="463" type="qcurve"/>
      <point x="89" y="463" type="line"/>
      <point x="115" y="461"/>
      <point x="136" y="461" type="qcurve"/>
      <point x="168" y="461" type="line"/>
      <point x="180" y="461"/>
      <point x="190" y="462" type="qcurve"/>
      <point x="346" y="473" type="line"/>
      <point x="382" y="479" type="line"/>
      <point x="386" y="479" type="line"/>
      <point x="401" y="477"/>
      <point x="428" y="441"/>
      <point x="428" y="420"/>
      <point x="407" y="407"/>
      <point x="357" y="353"/>
      <point x="306" y="292" type="qcurve"/>
      <point x="199" y="166"/>
      <point x="112" y="47" type="qcurve"/>
      <point x="172" y="52"/>
      <point x="212" y="52" type="qcurve"/>
    </contour>
  </outline>
</glyph>
<glyph name="braceleft" format="2">
  <advance height="1000" width="350"/>
  <unicode hex="007B"/>
  <outline>
    <contour>
      <point x="243" y="469" type="line"/>
      <point x="243" y="352"/>
      <point x="166" y="311" type="qcurve"/>
      <point x="205" y="302"/>
      <point x="243" y="234"/>
      <point x="243" y="193" type="qcurve"/>
      <point x="243" y="114"/>
      <point x="228" y="11"/>
      <point x="228" y="-4" type="qcurve"/>
      <point x="228" y="-47"/>
      <point x="276" y="-106"/>
      <point x="319" y="-131" type="qcurve"/>
      <point x="329" y="-138"/>
      <point x="329" y="-157"/>
      <point x="317" y="-157" type="qcurve"/>
      <point x="312" y="-157"/>
      <point x="269" y="-144"/>
      <point x="217" y="-111"/>
      <point x="178" y="-51"/>
      <point x="178" y="27"/>
      <point x="193" y="116"/>
      <point x="193" y="211"/>
      <point x="186" y="234" type="qcurve"/>
      <point x="170" y="289"/>
      <point x="106" y="293" type="qcurve"/>
      <point x="94" y="294"/>
      <point x="78" y="316"/>
      <point x="78" y="326" type="qcurve"/>
      <point x="78" y="341"/>
      <point x="92" y="341" type="qcurve"/>
      <point x="103" y="341" type="line"/>
      <point x="192" y="341"/>
      <point x="192" y="472" type="qcurve"/>
      <point x="186" y="629" type="line"/>
      <point x="186" y="697"/>
      <point x="248" y="742" type="qcurve"/>
      <point x="273" y="760"/>
      <point x="313" y="777"/>
      <point x="316" y="777" type="qcurve"/>
      <point x="329" y="777"/>
      <point x="329" y="764" type="qcurve"/>
      <point x="329" y="755"/>
      <point x="320" y="749" type="qcurve"/>
      <point x="237" y="703"/>
      <point x="237" y="627" type="qcurve"/>
    </contour>
  </outline>
</glyph>
<glyph name="bar" format="2">
  <advance height="1000" width="350"/>
  <unicode hex="007C"/>
  <outline>
    <contour>
      <point x="146" y="-16" type="line"/>
      <point x="146" y="717" type="line"/>
      <point x="203" y="717" type="line"/>
      <point x="203" y="-16" type="line"/>
    </contour>
  </outline>
</glyph>
<glyph name="braceright" format="2">
  <advance height="1000" width="350"/>
  <unicode hex="007D"/>
  <outline>
    <contour>
      <point x="107" y="154" type="line"/>
      <point x="107" y="274"/>
      <point x="184" y="312" type="qcurve"/>
      <point x="145" y="321"/>
      <point x="107" y="390"/>
      <point x="107" y="430" type="qcurve"/>
      <point x="107" y="509"/>
      <point x="122" y="612"/>
      <point x="122" y="627" type="qcurve"/>
      <point x="122" y="671"/>
      <point x="74" y="729"/>
      <point x="31" y="754" type="qcurve"/>
      <point x="21" y="761"/>
      <point x="21" y="780"/>
      <point x="33" y="780" type="qcurve"/>
      <point x="38" y="780"/>
      <point x="81" y="767"/>
      <point x="133" y="734"/>
      <point x="172" y="674"/>
      <point x="172" y="596"/>
      <point x="157" y="508"/>
      <point x="157" y="412"/>
      <point x="164" y="388" type="qcurve"/>
      <point x="180" y="334"/>
      <point x="244" y="330" type="qcurve"/>
      <point x="256" y="329"/>
      <point x="272" y="308"/>
      <point x="272" y="297" type="qcurve"/>
      <point x="272" y="282"/>
      <point x="258" y="282" type="qcurve"/>
      <point x="247" y="282" type="line"/>
      <point x="158" y="282"/>
      <point x="158" y="151" type="qcurve"/>
      <point x="164" y="-6" type="line"/>
      <point x="164" y="-74"/>
      <point x="102" y="-119" type="qcurve"/>
      <point x="77" y="-137"/>
      <point x="37" y="-154"/>
      <point x="34" y="-154" type="qcurve"/>
      <point x="21" y="-154"/>
      <point x="21" y="-141" type="qcurve"/>
      <point x="21" y="-132"/>
      <point x="30" y="-126" type="qcurve"/>
      <point x="113" y="-78"/>
      <point x="113" y="-4" type="qcurve"/>
    </contour>
  </outline>
</glyph>
<glyph name="exclamdown" format="2">
  <advance height="1000" width="350"/>
  <unicode hex="00A1"/>
  <outline>
    <contour>
      <point x="182" y="409" type="qcurve"/>
      <point x="165" y="409"/>
      <point x="134" y="446"/>
      <point x="134" y="465" type="qcurve"/>
      <point x="134" y="505"/>
      <point x="172" y="505" type="qcurve"/>
      <point x="192" y="505"/>
      <point x="221" y="469"/>
      <point x="221" y="451" type="qcurve"/>
      <point x="221" y="409"/>
    </contour>
    <contour>
      <point x="202" y="-112" type="line"/>
      <point x="202" y="-161"/>
      <point x="207" y="-191" type="qcurve"/>
      <point x="207" y="-193" type="line"/>
      <point x="207" y="-209"/>
      <point x="173" y="-209"/>
      <point x="140" y="-191"/>
      <point x="140" y="-180" type="qcurve"/>
      <point x="140" y="-178" type="line"/>
      <point x="144" y="-148"/>
      <point x="146" y="-107" type="qcurve"/>
      <point x="154" y="279" type="line"/>
      <point x="154" y="329" type="line"/>
      <point x="154" y="336"/>
      <point x="177" y="336"/>
      <point x="202" y="324"/>
      <point x="202" y="315" type="qcurve"/>
      <point x="202" y="314" type="line"/>
      <point x="200" y="300"/>
      <point x="200" y="275" type="qcurve"/>
    </contour>
  </outline>
</glyph>
<glyph name="cent" format="2">
  <advance height="1000" width="556"/>
  <unicode hex="00A2"/>
  <outline>
    <contour>
      <point x="334" y="488" type="qcurve"/>
      <point x="350" y="488"/>
      <point x="366" y="486" type="qcurve"/>
      <point x="379" y="524"/>
      <point x="391" y="567" type="qcurve"/>
      <point x="394" y="574"/>
      <point x="411" y="574"/>
      <point x="438" y="548"/>
      <point x="438" y="534" type="qcurve"/>
      <point x="438" y="530"/>
      <point x="434" y="522" type="qcurve"/>
      <point x="424" y="499"/>
      <point x="415" y="475" type="qcurve"/>
      <point x="453" y="462"/>
      <point x="501" y="418"/>
      <point x="501" y="404" type="qcurve"/>
      <point x="501" y="390"/>
      <point x="477" y="364"/>
      <point x="459" y="364"/>
      <point x="456" y="370" type="qcurve"/>
      <point x="438" y="402"/>
      <point x="401" y="425"/>
      <point x="396" y="426" type="qcurve"/>
      <point x="250" y="40" type="line"/>
      <point x="260" y="38"/>
      <point x="271" y="38" type="qcurve"/>
      <point x="338" y="38"/>
      <point x="433" y="71"/>
      <point x="471" y="108" type="qcurve"/>
      <point x="485" y="121"/>
      <point x="504" y="121"/>
      <point x="504" y="110" type="qcurve"/>
      <point x="504" y="106"/>
      <point x="482" y="67"/>
      <point x="456" y="44" type="qcurve"/>
      <point x="394" y="-14"/>
      <point x="271" y="-14" type="qcurve"/>
      <point x="252" y="-14"/>
      <point x="232" y="-11" type="qcurve"/>
      <point x="227" y="-27"/>
      <point x="222" y="-44" type="qcurve"/>
      <point x="211" y="-75" type="line"/>
      <point x="208" y="-82"/>
      <point x="190" y="-82"/>
      <point x="164" y="-59"/>
      <point x="164" y="-46" type="qcurve"/>
      <point x="164" y="-44"/>
      <point x="183" y="3" type="qcurve"/>
      <point x="131" y="26"/>
      <point x="58" y="124"/>
      <point x="58" y="257"/>
      <point x="109" y="362"/>
      <point x="191" y="443"/>
      <point x="288" y="488"/>
    </contour>
    <contour>
      <point x="347" y="436" type="line"/>
      <point x="336" y="436" type="line"/>
      <point x="262" y="436"/>
      <point x="190" y="366" type="qcurve"/>
      <point x="116" y="293"/>
      <point x="116" y="202" type="qcurve"/>
      <point x="116" y="145"/>
      <point x="169" y="71"/>
      <point x="204" y="54" type="qcurve"/>
    </contour>
  </outline>
</glyph>
<glyph name="sterling" format="2">
  <advance height="1000" width="713"/>
  <unicode hex="00A3"/>
  <outline>
    <contour>
      <point x="260" y="604"/>
      <point x="230" y="518"/>
      <point x="230" y="450"/>
      <point x="236" y="366" type="qcurve"/>
      <point x="441" y="372" type="line"/>
      <point x="495" y="374"/>
      <point x="524" y="377" type="qcurve"/>
      <point x="525" y="377" type="line"/>
      <point x="537" y="377"/>
      <point x="556" y="348"/>
      <point x="556" y="336" type="qcurve"/>
      <point x="556" y="324"/>
      <point x="532" y="325"/>
      <point x="512" y="325" type="qcurve"/>
      <point x="477" y="325"/>
      <point x="442" y="325" type="qcurve"/>
      <point x="241" y="319" type="line"/>
      <point x="244" y="289"/>
      <point x="244" y="267" type="qcurve"/>
      <point x="244" y="140"/>
      <point x="204" y="67" type="qcurve"/>
      <point x="217" y="67" type="line"/>
      <point x="250" y="67"/>
      <point x="338" y="56" type="qcurve"/>
      <point x="506" y="35"/>
      <point x="552" y="35"/>
      <point x="614" y="48"/>
      <point x="648" y="66"/>
      <point x="671" y="66"/>
      <point x="671" y="45"/>
      <point x="633" y="11"/>
      <point x="572" y="-15"/>
      <point x="494" y="-15"/>
      <point x="393" y="1"/>
      <point x="282" y="17"/>
      <point x="192" y="17"/>
      <point x="140" y="1"/>
      <point x="94" y="-15"/>
      <point x="55" y="-15"/>
      <point x="41" y="-11"/>
      <point x="41" y="2"/>
      <point x="44" y="12" type="qcurve"/>
      <point x="50" y="40"/>
      <point x="69" y="40" type="qcurve"/>
      <point x="78" y="40" type="line"/>
      <point x="134" y="40"/>
      <point x="156" y="80" type="qcurve"/>
      <point x="191" y="148"/>
      <point x="191" y="260" type="qcurve"/>
      <point x="191" y="273"/>
      <point x="186" y="318" type="qcurve"/>
      <point x="167" y="317" type="line"/>
      <point x="145" y="316"/>
      <point x="98" y="314"/>
      <point x="84" y="312" type="qcurve"/>
      <point x="82" y="312" type="line"/>
      <point x="70" y="312"/>
      <point x="53" y="340"/>
      <point x="53" y="365"/>
      <point x="63" y="365" type="qcurve"/>
      <point x="144" y="364" type="line"/>
      <point x="181" y="364" type="line"/>
      <point x="174" y="466"/>
      <point x="174" y="478" type="qcurve"/>
      <point x="174" y="548"/>
      <point x="225" y="653"/>
      <point x="313" y="712"/>
      <point x="426" y="712"/>
      <point x="512" y="690"/>
      <point x="571" y="659"/>
      <point x="602" y="631"/>
      <point x="602" y="614"/>
      <point x="577" y="591"/>
      <point x="559" y="591"/>
      <point x="552" y="596" type="qcurve"/>
      <point x="485" y="661"/>
      <point x="369" y="661" type="qcurve"/>
      <point x="321" y="661"/>
    </contour>
  </outline>
</glyph>
<glyph name="currency" format="2">
  <advance height="1000" width="530"/>
  <unicode hex="00A4"/>
  <outline>
    <contour>
      <point x="446" y="384"/>
      <point x="446" y="278"/>
      <point x="415" y="232" type="qcurve"/>
      <point x="448" y="199"/>
      <point x="484" y="170" type="qcurve"/>
      <point x="488" y="166"/>
      <point x="488" y="150"/>
      <point x="459" y="127"/>
      <point x="440" y="127"/>
      <point x="437" y="131" type="qcurve"/>
      <point x="410" y="165"/>
      <point x="378" y="194" type="qcurve"/>
      <point x="333" y="158"/>
      <point x="211" y="158"/>
      <point x="163" y="198" type="qcurve"/>
      <point x="122" y="160"/>
      <point x="100" y="131" type="qcurve"/>
      <point x="97" y="127"/>
      <point x="78" y="127"/>
      <point x="49" y="150"/>
      <point x="49" y="166"/>
      <point x="53" y="170" type="qcurve"/>
      <point x="106" y="215"/>
      <point x="128" y="237" type="qcurve"/>
      <point x="100" y="279"/>
      <point x="100" y="381"/>
      <point x="126" y="421" type="qcurve"/>
      <point x="102" y="445"/>
      <point x="58" y="482" type="qcurve"/>
      <point x="54" y="486"/>
      <point x="54" y="502"/>
      <point x="83" y="525"/>
      <point x="102" y="525"/>
      <point x="109" y="516" type="qcurve"/>
      <point x="132" y="488"/>
      <point x="160" y="462" type="qcurve"/>
      <point x="208" y="504"/>
      <point x="336" y="504"/>
      <point x="381" y="465" type="qcurve"/>
      <point x="415" y="499"/>
      <point x="432" y="521" type="qcurve"/>
      <point x="435" y="525"/>
      <point x="454" y="525"/>
      <point x="483" y="502"/>
      <point x="483" y="486"/>
      <point x="479" y="482" type="qcurve"/>
      <point x="447" y="456"/>
      <point x="417" y="427" type="qcurve"/>
    </contour>
    <contour>
      <point x="364" y="240"/>
      <point x="397" y="297"/>
      <point x="397" y="366"/>
      <point x="364" y="422"/>
      <point x="308" y="455"/>
      <point x="239" y="455"/>
      <point x="182" y="422"/>
      <point x="149" y="366"/>
      <point x="149" y="297"/>
      <point x="182" y="240"/>
      <point x="239" y="207"/>
      <point x="308" y="207"/>
    </contour>
  </outline>
</glyph>
<glyph name="yen" format="2">
  <advance height="1000" width="600"/>
  <unicode hex="00A5"/>
  <outline>
    <contour>
      <point x="90" y="363" type="line"/>
      <point x="114" y="361"/>
      <point x="138" y="361" type="qcurve"/>
      <point x="177" y="361" type="line"/>
      <point x="191" y="361"/>
      <point x="204" y="362" type="qcurve"/>
      <point x="249" y="364" type="line"/>
      <point x="200" y="441"/>
      <point x="137" y="541"/>
      <point x="98" y="600"/>
      <point x="86" y="618" type="qcurve"/>
      <point x="71" y="639"/>
      <point x="41" y="674"/>
      <point x="41" y="677" type="qcurve"/>
      <point x="41" y="685"/>
      <point x="71" y="701"/>
      <point x="102" y="701"/>
      <point x="117" y="676"/>
      <point x="134" y="643"/>
      <point x="177" y="577"/>
      <point x="223" y="503"/>
      <point x="268" y="431"/>
      <point x="294" y="387" type="qcurve"/>
      <point x="353" y="485"/>
      <point x="416" y="583"/>
      <point x="458" y="650"/>
      <point x="475" y="683"/>
      <point x="490" y="708"/>
      <point x="521" y="708"/>
      <point x="551" y="692"/>
      <point x="551" y="684" type="qcurve"/>
      <point x="551" y="681"/>
      <point x="531" y="658"/>
      <point x="498" y="614"/>
      <point x="455" y="549"/>
      <point x="391" y="447"/>
      <point x="341" y="368" type="qcurve"/>
      <point x="402" y="370" type="line"/>
      <point x="419" y="371"/>
      <point x="474" y="377"/>
      <point x="497" y="377"/>
      <point x="516" y="351"/>
      <point x="516" y="328"/>
      <point x="505" y="328" type="qcurve"/>
      <point x="403" y="325" type="line"/>
      <point x="322" y="321" type="line"/>
      <point x="322" y="227" type="line"/>
      <point x="402" y="230" type="line"/>
      <point x="420" y="231"/>
      <point x="474" y="237"/>
      <point x="497" y="237"/>
      <point x="516" y="211"/>
      <point x="516" y="188"/>
      <point x="505" y="188" type="qcurve"/>
      <point x="403" y="185" type="line"/>
      <point x="322" y="181" type="line"/>
      <point x="322" y="146" type="line"/>
      <point x="326" y="1" type="line"/>
      <point x="326" y="-9"/>
      <point x="295" y="-9"/>
      <point x="263" y="6"/>
      <point x="263" y="19" type="qcurve"/>
      <point x="265" y="147" type="line"/>
      <point x="265" y="179" type="line"/>
      <point x="205" y="176" type="line"/>
      <point x="113" y="170" type="line"/>
      <point x="112" y="170" type="line"/>
      <point x="99" y="170"/>
      <point x="79" y="201"/>
      <point x="79" y="212" type="qcurve"/>
      <point x="79" y="223"/>
      <point x="88" y="223" type="qcurve"/>
      <point x="90" y="223" type="line"/>
      <point x="114" y="221"/>
      <point x="138" y="221" type="qcurve"/>
      <point x="177" y="221" type="line"/>
      <point x="191" y="221"/>
      <point x="204" y="222" type="qcurve"/>
      <point x="265" y="224" type="line"/>
      <point x="265" y="319" type="line"/>
      <point x="205" y="316" type="line"/>
      <point x="148" y="314"/>
      <point x="113" y="310" type="qcurve"/>
      <point x="112" y="310" type="line"/>
      <point x="99" y="310"/>
      <point x="79" y="341"/>
      <point x="79" y="352" type="qcurve"/>
      <point x="79" y="363"/>
      <point x="88" y="363" type="qcurve"/>
    </contour>
  </outline>
</glyph>
<glyph name="brokenbar" format="2">
  <advance height="1000" width="350"/>
  <unicode hex="00A6"/>
  <outline>
    <contour>
      <point x="146" y="434" type="line"/>
      <point x="146" y="717" type="line"/>
      <point x="203" y="717" type="line"/>
      <point x="203" y="434" type="line"/>
    </contour>
    <contour>
      <point x="146" y="-16" type="line"/>
      <point x="146" y="267" type="line"/>
      <point x="203" y="267" type="line"/>
      <point x="203" y="-16" type="line"/>
    </contour>
  </outline>
</glyph>
<glyph name="section" format="2">
  <advance height="1000" width="675"/>
  <unicode hex="00A7"/>
  <outline>
    <contour>
      <point x="246" y="254" type="line"/>
      <point x="151" y="274"/>
      <point x="76" y="347"/>
      <point x="76" y="443"/>
      <point x="139" y="517"/>
      <point x="197" y="536" type="qcurve"/>
      <point x="141" y="556"/>
      <point x="96" y="620"/>
      <point x="96" y="700"/>
      <point x="154" y="769"/>
      <point x="258" y="812"/>
      <point x="328" y="812" type="qcurve"/>
      <point x="464" y="812"/>
      <point x="549" y="745" type="qcurve"/>
      <point x="558" y="738"/>
      <point x="558" y="709"/>
      <point x="542" y="683"/>
      <point x="525" y="683"/>
      <point x="519" y="689" type="qcurve"/>
      <point x="457" y="760"/>
      <point x="327" y="760" type="qcurve"/>
      <point x="274" y="760"/>
      <point x="197" y="730"/>
      <point x="157" y="686"/>
      <point x="157" y="663" type="qcurve"/>
      <point x="157" y="615"/>
      <point x="209" y="592" type="qcurve"/>
      <point x="238" y="579"/>
      <point x="292" y="568" type="qcurve"/>
      <point x="397" y="547" type="line"/>
      <point x="601" y="508"/>
      <point x="601" y="365" type="qcurve"/>
      <point x="601" y="323"/>
      <point x="556" y="249"/>
      <point x="517" y="226" type="qcurve"/>
      <point x="581" y="177"/>
      <point x="581" y="102" type="qcurve"/>
      <point x="581" y="50"/>
      <point x="518" y="-31"/>
      <point x="403" y="-77"/>
      <point x="322" y="-77" type="qcurve"/>
      <point x="168" y="-77"/>
      <point x="64" y="25" type="qcurve"/>
      <point x="57" y="32"/>
      <point x="57" y="56"/>
      <point x="80" y="84"/>
      <point x="100" y="84"/>
      <point x="104" y="78" type="qcurve"/>
      <point x="182" y="-24"/>
      <point x="326" y="-24" type="qcurve"/>
      <point x="383" y="-24"/>
      <point x="471" y="9"/>
      <point x="520" y="66"/>
      <point x="520" y="101" type="qcurve"/>
      <point x="520" y="155"/>
      <point x="434" y="215"/>
      <point x="352" y="232" type="qcurve"/>
    </contour>
    <contour>
      <point x="377" y="283" type="line"/>
      <point x="422" y="274"/>
      <point x="458" y="259" type="qcurve"/>
      <point x="498" y="275"/>
      <point x="540" y="331"/>
      <point x="540" y="364" type="qcurve"/>
      <point x="540" y="420"/>
      <point x="456" y="479"/>
      <point x="372" y="496" type="qcurve"/>
      <point x="331" y="504" type="line"/>
      <point x="327" y="504" type="line"/>
      <point x="201" y="504"/>
      <point x="156" y="450" type="qcurve"/>
      <point x="137" y="427"/>
      <point x="137" y="378"/>
      <point x="148" y="360" type="qcurve"/>
      <point x="171" y="325"/>
      <point x="272" y="304" type="qcurve"/>
    </contour>
  </outline>
</glyph>
<glyph name="dieresis" format="2">
  <advance height="1000" width="500"/>
  <unicode hex="00A8"/>
  <outline>
    <contour>
      <point x="294" y="652" type="qcurve"/>
      <point x="294" y="693"/>
      <point x="333" y="693" type="qcurve"/>
      <point x="350" y="693"/>
      <point x="381" y="658"/>
      <point x="381" y="620"/>
      <point x="360" y="598"/>
      <point x="324" y="598"/>
      <point x="294" y="634"/>
    </contour>
    <contour>
      <point x="121" y="652" type="qcurve"/>
      <point x="121" y="693"/>
      <point x="160" y="693" type="qcurve"/>
      <point x="177" y="693"/>
      <point x="208" y="658"/>
      <point x="208" y="620"/>
      <point x="187" y="598"/>
      <point x="151" y="598"/>
      <point x="121" y="634"/>
    </contour>
  </outline>
</glyph>
<glyph name="copyright" format="2">
  <advance height="1000" width="780"/>
  <unicode hex="00A9"/>
  <outline>
    <contour>
      <point x="731" y="336" type="qcurve"/>
      <point x="731" y="195"/>
      <point x="631" y="96" type="qcurve"/>
      <point x="530" y="-3"/>
      <point x="391" y="-3" type="qcurve"/>
      <point x="321" y="-3"/>
      <point x="198" y="50"/>
      <point x="105" y="143"/>
      <point x="52" y="266"/>
      <point x="52" y="336" type="qcurve"/>
      <point x="52" y="406"/>
      <point x="105" y="529"/>
      <point x="198" y="622"/>
      <point x="321" y="675"/>
      <point x="391" y="675" type="qcurve"/>
      <point x="530" y="675"/>
      <point x="631" y="576" type="qcurve"/>
      <point x="731" y="477"/>
    </contour>
    <contour>
      <point x="686" y="336" type="qcurve"/>
      <point x="686" y="457"/>
      <point x="513" y="630"/>
      <point x="392" y="630" type="qcurve"/>
      <point x="271" y="630"/>
      <point x="98" y="457"/>
      <point x="98" y="336" type="qcurve"/>
      <point x="98" y="215"/>
      <point x="271" y="42"/>
      <point x="392" y="42" type="qcurve"/>
      <point x="513" y="42"/>
      <point x="686" y="215"/>
    </contour>
    <contour>
      <point x="549" y="213" type="qcurve"/>
      <point x="517" y="164"/>
      <point x="434" y="123"/>
      <point x="323" y="123"/>
      <point x="246" y="167"/>
      <point x="199" y="249"/>
      <point x="199" y="359"/>
      <point x="238" y="451"/>
      <point x="271" y="486" type="qcurve"/>
      <point x="341" y="559"/>
      <point x="425" y="559" type="qcurve"/>
      <point x="490" y="559"/>
      <point x="524" y="525" type="qcurve"/>
      <point x="538" y="511"/>
      <point x="551" y="487"/>
      <point x="551" y="472"/>
      <point x="530" y="450"/>
      <point x="515" y="450"/>
      <point x="507" y="465"/>
      <point x="496" y="478" type="qcurve"/>
      <point x="470" y="513"/>
      <point x="385" y="513"/>
      <point x="304" y="458"/>
      <point x="251" y="366"/>
      <point x="251" y="263"/>
      <point x="286" y="200"/>
      <point x="341" y="169"/>
      <point x="369" y="169" type="qcurve"/>
      <point x="428" y="169"/>
      <point x="494" y="198"/>
      <point x="540" y="242"/>
      <point x="548" y="242" type="qcurve"/>
      <point x="556" y="242"/>
      <point x="556" y="223"/>
    </contour>
  </outline>
</glyph>
<glyph name="ordfeminine" format="2">
  <advance height="1000" width="320"/>
  <unicode hex="00AA"/>
  <outline>
    <contour>
      <point x="80" y="699"/>
      <point x="142" y="743"/>
      <point x="209" y="743"/>
      <point x="224" y="722" type="qcurve"/>
      <point x="224" y="730" type="line"/>
      <point x="224" y="738"/>
      <point x="252" y="738"/>
      <point x="275" y="728"/>
      <point x="275" y="719" type="qcurve"/>
      <point x="275" y="718" type="line"/>
      <point x="268" y="623"/>
      <point x="268" y="597" type="qcurve"/>
      <point x="268" y="541"/>
      <point x="284" y="514" type="qcurve"/>
      <point x="285" y="512"/>
      <point x="285" y="499"/>
      <point x="268" y="475"/>
      <point x="257" y="475" type="qcurve"/>
      <point x="236" y="475"/>
      <point x="228" y="536" type="qcurve"/>
      <point x="212" y="506"/>
      <point x="156" y="473"/>
      <point x="90" y="473"/>
      <point x="40" y="527"/>
      <point x="40" y="624"/>
    </contour>
    <contour>
      <point x="88" y="581" type="qcurve"/>
      <point x="88" y="518"/>
      <point x="130" y="518" type="qcurve"/>
      <point x="165" y="518"/>
      <point x="218" y="576"/>
      <point x="222" y="630" type="qcurve"/>
      <point x="222" y="659"/>
      <point x="224" y="675" type="qcurve"/>
      <point x="221" y="674" type="line"/>
      <point x="214" y="674"/>
      <point x="208" y="682" type="qcurve"/>
      <point x="197" y="699"/>
      <point x="153" y="699"/>
      <point x="114" y="668"/>
      <point x="88" y="614"/>
    </contour>
  </outline>
</glyph>
<glyph name="guillemotleft" format="2">
  <advance height="1000" width="530"/>
  <unicode hex="00AB"/>
  <outline>
    <contour>
      <point x="491" y="43" type="line"/>
      <point x="497" y="37"/>
      <point x="497" y="13"/>
      <point x="482" y="-15"/>
      <point x="473" y="-15" type="qcurve"/>
      <point x="469" y="-15"/>
      <point x="466" y="-11" type="qcurve"/>
      <point x="394" y="79"/>
      <point x="304" y="162" type="qcurve"/>
      <point x="268" y="195"/>
      <point x="246" y="211" type="qcurve"/>
      <point x="240" y="216"/>
      <point x="232" y="241"/>
      <point x="232" y="262"/>
      <point x="236" y="265" type="qcurve"/>
      <point x="266" y="289" type="line"/>
      <point x="395" y="400"/>
      <point x="464" y="485" type="qcurve"/>
      <point x="467" y="489"/>
      <point x="480" y="489"/>
      <point x="496" y="464"/>
      <point x="496" y="440"/>
      <point x="476" y="420"/>
      <point x="444" y="388" type="qcurve"/>
      <point x="350" y="298"/>
      <point x="285" y="242" type="qcurve"/>
      <point x="374" y="162"/>
      <point x="444" y="89" type="qcurve"/>
    </contour>
    <contour>
      <point x="286" y="43" type="line"/>
      <point x="292" y="37"/>
      <point x="292" y="13"/>
      <point x="277" y="-15"/>
      <point x="268" y="-15" type="qcurve"/>
      <point x="264" y="-15"/>
      <point x="261" y="-11" type="qcurve"/>
      <point x="189" y="79"/>
      <point x="100" y="162" type="qcurve"/>
      <point x="63" y="195"/>
      <point x="41" y="211" type="qcurve"/>
      <point x="35" y="216"/>
      <point x="27" y="241"/>
      <point x="27" y="262"/>
      <point x="31" y="265" type="qcurve"/>
      <point x="61" y="289" type="line"/>
      <point x="190" y="400"/>
      <point x="259" y="485" type="qcurve"/>
      <point x="262" y="489"/>
      <point x="275" y="489"/>
      <point x="291" y="464"/>
      <point x="291" y="440"/>
      <point x="271" y="420"/>
      <point x="238" y="388" type="qcurve"/>
      <point x="145" y="298"/>
      <point x="80" y="242" type="qcurve"/>
      <point x="169" y="162"/>
      <point x="239" y="89" type="qcurve"/>
    </contour>
  </outline>
</glyph>
<glyph name="logicalnot" format="2">
  <advance height="1000" width="590"/>
  <unicode hex="00AC"/>
  <outline>
    <contour>
      <point x="450" y="315" type="line"/>
      <point x="70" y="315" type="line"/>
      <point x="62" y="315"/>
      <point x="53" y="331"/>
      <point x="53" y="341" type="qcurve"/>
      <point x="53" y="351"/>
      <point x="62" y="367"/>
      <point x="70" y="367" type="qcurve"/>
      <point x="457" y="367" type="line"/>
      <point x="478" y="367"/>
      <point x="502" y="343"/>
      <point x="502" y="322" type="qcurve"/>
      <point x="502" y="121" type="line"/>
      <point x="502" y="113"/>
      <point x="486" y="104"/>
      <point x="476" y="104" type="qcurve"/>
      <point x="466" y="104"/>
      <point x="450" y="113"/>
      <point x="450" y="121" type="qcurve"/>
    </contour>
  </outline>
</glyph>
<glyph name="uni00AD" format="2">
  <advance height="1000" width="500"/>
  <unicode hex="00AD"/>
  <outline>
    <contour>
      <point x="360" y="275" type="line"/>
      <point x="393" y="275"/>
      <point x="431" y="277" type="qcurve"/>
      <point x="432" y="277" type="line"/>
      <point x="440" y="277"/>
      <point x="451" y="256"/>
      <point x="451" y="225"/>
      <point x="437" y="225" type="qcurve"/>
      <point x="359" y="227" type="line"/>
      <point x="139" y="227" type="line"/>
      <point x="83" y="227"/>
      <point x="65" y="224" type="qcurve"/>
      <point x="63" y="224" type="line"/>
      <point x="55" y="224"/>
      <point x="45" y="245"/>
      <point x="45" y="256" type="qcurve"/>
      <point x="45" y="277"/>
      <point x="60" y="277" type="qcurve"/>
      <point x="90" y="275"/>
      <point x="140" y="275" type="qcurve"/>
    </contour>
  </outline>
</glyph>
<glyph name="registered" format="2">
  <advance height="1000" width="780"/>
  <unicode hex="00AE"/>
  <outline>
    <contour>
      <point x="731" y="336" type="qcurve"/>
      <point x="731" y="195"/>
      <point x="631" y="96" type="qcurve"/>
      <point x="530" y="-3"/>
      <point x="391" y="-3" type="qcurve"/>
      <point x="321" y="-3"/>
      <point x="198" y="50"/>
      <point x="105" y="143"/>
      <point x="52" y="266"/>
      <point x="52" y="336" type="qcurve"/>
      <point x="52" y="406"/>
      <point x="105" y="529"/>
      <point x="198" y="622"/>
      <point x="321" y="675"/>
      <point x="391" y="675" type="qcurve"/>
      <point x="530" y="675"/>
      <point x="631" y="576" type="qcurve"/>
      <point x="731" y="477"/>
    </contour>
    <contour>
      <point x="686" y="336" type="qcurve"/>
      <point x="686" y="457"/>
      <point x="513" y="630"/>
      <point x="392" y="630" type="qcurve"/>
      <point x="271" y="630"/>
      <point x="98" y="457"/>
      <point x="98" y="336" type="qcurve"/>
      <point x="98" y="215"/>
      <point x="271" y="42"/>
      <point x="392" y="42" type="qcurve"/>
      <point x="513" y="42"/>
      <point x="686" y="215"/>
    </contour>
    <contour>
      <point x="265" y="144" type="qcurve"/>
      <point x="266" y="203" type="line"/>
      <point x="266" y="497" type="line"/>
      <point x="258" y="501"/>
      <point x="245" y="524"/>
      <point x="245" y="545"/>
      <point x="256" y="546" type="qcurve"/>
      <point x="290" y="551"/>
      <point x="309" y="556" type="qcurve"/>
      <point x="350" y="565"/>
      <point x="457" y="565"/>
      <point x="488" y="549" type="qcurve"/>
      <point x="546" y="518"/>
      <point x="546" y="458" type="qcurve"/>
      <point x="546" y="388"/>
      <point x="475" y="353" type="qcurve"/>
      <point x="441" y="336"/>
      <point x="381" y="332" type="qcurve"/>
      <point x="409" y="303"/>
      <point x="479" y="216"/>
      <point x="504" y="196" type="qcurve"/>
      <point x="547" y="159"/>
      <point x="561" y="154" type="qcurve"/>
      <point x="591" y="143"/>
      <point x="591" y="121"/>
      <point x="561" y="121" type="qcurve"/>
      <point x="546" y="122" type="line"/>
      <point x="518" y="124"/>
      <point x="466" y="166"/>
      <point x="408" y="231"/>
      <point x="357" y="294"/>
      <point x="345" y="304" type="qcurve"/>
      <point x="326" y="321"/>
      <point x="315" y="325" type="qcurve"/>
      <point x="315" y="203" type="line"/>
      <point x="316" y="133" type="line"/>
      <point x="316" y="124"/>
      <point x="288" y="124"/>
      <point x="265" y="134"/>
    </contour>
    <contour>
      <point x="497" y="487"/>
      <point x="445" y="520"/>
      <point x="348" y="520"/>
      <point x="315" y="509" type="qcurve"/>
      <point x="315" y="367" type="line"/>
      <point x="320" y="372"/>
      <point x="327" y="372" type="qcurve"/>
      <point x="330" y="372" type="line"/>
      <point x="336" y="371"/>
      <point x="342" y="371" type="qcurve"/>
      <point x="356" y="371" type="line"/>
      <point x="451" y="371"/>
      <point x="484" y="419" type="qcurve"/>
      <point x="497" y="439"/>
      <point x="497" y="456" type="qcurve"/>
    </contour>
  </outline>
</glyph>
<glyph name="degree" format="2">
  <advance height="1000" width="320"/>
  <unicode hex="00B0"/>
  <outline>
    <contour>
      <point x="252" y="701"/>
      <point x="286" y="644"/>
      <point x="286" y="575"/>
      <point x="253" y="518"/>
      <point x="196" y="483"/>
      <point x="126" y="483"/>
      <point x="69" y="516"/>
      <point x="34" y="573"/>
      <point x="34" y="643"/>
      <point x="67" y="700"/>
      <point x="124" y="735"/>
      <point x="195" y="735"/>
    </contour>
    <contour>
      <point x="192" y="527"/>
      <point x="241" y="573"/>
      <point x="242" y="642"/>
      <point x="195" y="691"/>
      <point x="128" y="691"/>
      <point x="78" y="645"/>
      <point x="78" y="576"/>
      <point x="125" y="527"/>
    </contour>
  </outline>
</glyph>
<glyph name="plusminus" format="2">
  <advance height="1000" width="600"/>
  <unicode hex="00B1"/>
  <outline>
    <contour>
      <point x="325" y="479" type="line"/>
      <point x="322" y="443"/>
      <point x="322" y="403" type="qcurve"/>
      <point x="322" y="340" type="line"/>
      <point x="462" y="340" type="line"/>
      <point x="491" y="340"/>
      <point x="533" y="343" type="qcurve"/>
      <point x="534" y="343" type="line"/>
      <point x="544" y="343"/>
      <point x="556" y="320"/>
      <point x="556" y="290"/>
      <point x="542" y="290" type="qcurve"/>
      <point x="461" y="292" type="line"/>
      <point x="322" y="292" type="line"/>
      <point x="322" y="204" type="line"/>
      <point x="323" y="126" type="line"/>
      <point x="323" y="119"/>
      <point x="310" y="111"/>
      <point x="291" y="111"/>
      <point x="271" y="122"/>
      <point x="271" y="131" type="qcurve"/>
      <point x="271" y="132" type="line"/>
      <point x="274" y="164"/>
      <point x="274" y="203" type="qcurve"/>
      <point x="274" y="292" type="line"/>
      <point x="138" y="292" type="line"/>
      <point x="80" y="292"/>
      <point x="62" y="289" type="qcurve"/>
      <point x="60" y="289" type="line"/>
      <point x="52" y="289"/>
      <point x="42" y="310"/>
      <point x="42" y="321" type="qcurve"/>
      <point x="42" y="342"/>
      <point x="57" y="342" type="qcurve"/>
      <point x="87" y="340"/>
      <point x="139" y="340" type="qcurve"/>
      <point x="274" y="340" type="line"/>
      <point x="274" y="402" type="line"/>
      <point x="274" y="454"/>
      <point x="272" y="484" type="qcurve"/>
      <point x="272" y="499"/>
      <point x="303" y="499"/>
      <point x="325" y="489"/>
      <point x="325" y="481" type="qcurve"/>
    </contour>
    <contour>
      <point x="57" y="68" type="qcurve"/>
      <point x="87" y="66"/>
      <point x="139" y="66" type="qcurve"/>
      <point x="462" y="66" type="line"/>
      <point x="491" y="66"/>
      <point x="533" y="69" type="qcurve"/>
      <point x="534" y="69" type="line"/>
      <point x="544" y="69"/>
      <point x="556" y="46"/>
      <point x="556" y="16"/>
      <point x="542" y="16" type="qcurve"/>
      <point x="461" y="18" type="line"/>
      <point x="138" y="18" type="line"/>
      <point x="80" y="18"/>
      <point x="62" y="15" type="qcurve"/>
      <point x="60" y="15" type="line"/>
      <point x="52" y="15"/>
      <point x="42" y="36"/>
      <point x="42" y="47" type="qcurve"/>
      <point x="42" y="68"/>
    </contour>
  </outline>
</glyph>
<glyph name="mu" format="2">
  <advance height="1000" width="590"/>
  <unicode hex="00B5"/>
  <outline>
    <contour>
      <point x="92" y="-151" type="qcurve"/>
      <point x="94" y="-63" type="line"/>
      <point x="94" y="368" type="line"/>
      <point x="91" y="474" type="line"/>
      <point x="91" y="483"/>
      <point x="120" y="483"/>
      <point x="150" y="468"/>
      <point x="150" y="456" type="qcurve"/>
      <point x="148" y="368" type="line"/>
      <point x="148" y="175" type="line"/>
      <point x="148" y="96"/>
      <point x="194" y="54" type="qcurve"/>
      <point x="216" y="34"/>
      <point x="294" y="34"/>
      <point x="376" y="103"/>
      <point x="404" y="164" type="qcurve"/>
      <point x="434" y="231"/>
      <point x="436" y="342" type="qcurve"/>
      <point x="438" y="418"/>
      <point x="438" y="442" type="qcurve"/>
      <point x="438" y="475" type="line"/>
      <point x="438" y="484"/>
      <point x="468" y="484"/>
      <point x="498" y="470"/>
      <point x="498" y="459" type="qcurve"/>
      <point x="498" y="457" type="line"/>
      <point x="486" y="385"/>
      <point x="486" y="169"/>
      <point x="505" y="64"/>
      <point x="524" y="34" type="qcurve"/>
      <point x="526" y="30"/>
      <point x="526" y="17"/>
      <point x="505" y="-11"/>
      <point x="480" y="-11"/>
      <point x="461" y="23"/>
      <point x="454" y="48" type="qcurve"/>
      <point x="440" y="98"/>
      <point x="440" y="134" type="qcurve"/>
      <point x="368" y="-16"/>
      <point x="248" y="-16" type="qcurve"/>
      <point x="217" y="-16"/>
      <point x="158" y="17"/>
      <point x="147" y="39" type="qcurve"/>
      <point x="147" y="-63" type="line"/>
      <point x="150" y="-169" type="line"/>
      <point x="150" y="-178"/>
      <point x="122" y="-178"/>
      <point x="92" y="-163"/>
    </contour>
  </outline>
</glyph>
<glyph name="paragraph" format="2">
  <advance height="1000" width="638"/>
  <unicode hex="00B6"/>
  <outline>
    <contour>
      <point x="534" y="-111" type="qcurve"/>
      <point x="534" y="-126"/>
      <point x="500" y="-126"/>
      <point x="479" y="-115"/>
      <point x="479" y="-106" type="qcurve"/>
      <point x="479" y="-105" type="line"/>
      <point x="482" y="-74"/>
      <point x="482" y="-19" type="qcurve"/>
      <point x="482" y="724" type="line"/>
      <point x="325" y="717" type="line"/>
      <point x="325" y="-71" type="line"/>
      <point x="325" y="-99"/>
      <point x="326" y="-122" type="qcurve"/>
      <point x="326" y="-137"/>
      <point x="292" y="-137"/>
      <point x="271" y="-126"/>
      <point x="271" y="-117" type="qcurve"/>
      <point x="271" y="-116" type="line"/>
      <point x="274" y="-84"/>
      <point x="274" y="-30" type="qcurve"/>
      <point x="274" y="390" type="line"/>
      <point x="246" y="385"/>
      <point x="187" y="385"/>
      <point x="110" y="420"/>
      <point x="61" y="492"/>
      <point x="61" y="609"/>
      <point x="119" y="704"/>
      <point x="216" y="760"/>
      <point x="273" y="762" type="qcurve"/>
      <point x="483" y="772" type="line"/>
      <point x="487" y="772" type="line"/>
      <point x="509" y="772"/>
      <point x="533" y="744"/>
      <point x="533" y="726" type="qcurve"/>
      <point x="533" y="-60" type="line"/>
      <point x="533" y="-87"/>
    </contour>
  </outline>
</glyph>
<glyph name="cedilla" format="2">
  <advance height="1000" width="500"/>
  <unicode hex="00B8"/>
  <unicode hex="0327"/>
  <outline>
    <contour>
      <point x="261" y="-67" type="qcurve"/>
      <point x="250" y="-67"/>
      <point x="220" y="-72" type="qcurve"/>
      <point x="208" y="-72"/>
      <point x="191" y="-56"/>
      <point x="191" y="-42"/>
      <point x="202" y="-13"/>
      <point x="207" y="4" type="qcurve"/>
      <point x="212" y="21" type="line"/>
      <point x="268" y="17" type="line"/>
      <point x="251" y="-29" type="line"/>
      <point x="263" y="-27"/>
      <point x="274" y="-27" type="qcurve"/>
      <point x="310" y="-27"/>
      <point x="358" y="-62"/>
      <point x="358" y="-135"/>
      <point x="304" y="-178"/>
      <point x="210" y="-178"/>
      <point x="166" y="-156" type="qcurve"/>
      <point x="156" y="-150"/>
      <point x="156" y="-123"/>
      <point x="165" y="-102"/>
      <point x="172" y="-102" type="qcurve"/>
      <point x="175" y="-102"/>
      <point x="187" y="-111" type="qcurve"/>
      <point x="212" y="-130"/>
      <point x="307" y="-130"/>
      <point x="307" y="-67"/>
    </contour>
  </outline>
</glyph>
<glyph name="uni00B9" format="2">
  <advance height="1000" width="380"/>
  <unicode hex="00B9"/>
  <outline>
    <contour>
      <point x="229" y="429" type="line"/>
      <point x="229" y="383"/>
      <point x="231" y="339" type="qcurve"/>
      <point x="231" y="337" type="line"/>
      <point x="231" y="325"/>
      <point x="203" y="325"/>
      <point x="179" y="341"/>
      <point x="179" y="353" type="qcurve"/>
      <point x="179" y="354" type="line"/>
      <point x="180" y="424" type="line"/>
      <point x="180" y="632" type="line"/>
      <point x="138" y="604"/>
      <point x="107" y="604"/>
      <point x="87" y="616"/>
      <point x="87" y="627"/>
      <point x="102" y="633" type="qcurve"/>
      <point x="124" y="642"/>
      <point x="168" y="678" type="qcurve"/>
      <point x="173" y="682"/>
      <point x="193" y="708"/>
      <point x="201" y="708" type="qcurve"/>
      <point x="209" y="708"/>
      <point x="233" y="690"/>
      <point x="233" y="679" type="qcurve"/>
      <point x="229" y="622" type="line"/>
    </contour>
  </outline>
</glyph>
<glyph name="ordmasculine" format="2">
  <advance height="1000" width="320"/>
  <unicode hex="00BA"/>
  <outline>
    <contour>
      <point x="119" y="725" type="qcurve"/>
      <point x="144" y="743"/>
      <point x="223" y="743"/>
      <point x="283" y="677"/>
      <point x="283" y="615" type="qcurve"/>
      <point x="283" y="580"/>
      <point x="253" y="515"/>
      <point x="196" y="473"/>
      <point x="100" y="473"/>
      <point x="40" y="540"/>
      <point x="40" y="596" type="qcurve"/>
      <point x="40" y="626"/>
      <point x="66" y="687"/>
      <point x="99" y="729"/>
      <point x="113" y="729"/>
    </contour>
    <contour>
      <point x="87" y="560"/>
      <point x="123" y="518"/>
      <point x="187" y="518"/>
      <point x="236" y="576"/>
      <point x="236" y="652"/>
      <point x="204" y="699"/>
      <point x="149" y="699"/>
      <point x="129" y="683" type="qcurve"/>
      <point x="87" y="649"/>
      <point x="87" y="595" type="qcurve"/>
    </contour>
  </outline>
</glyph>
<glyph name="guillemotright" format="2">
  <advance height="1000" width="530"/>
  <unicode hex="00BB"/>
  <outline>
    <contour>
      <point x="290" y="83" type="line"/>
      <point x="360" y="156"/>
      <point x="449" y="236" type="qcurve"/>
      <point x="340" y="332"/>
      <point x="244" y="428" type="qcurve"/>
      <point x="238" y="434"/>
      <point x="238" y="458"/>
      <point x="254" y="483"/>
      <point x="267" y="483"/>
      <point x="270" y="479" type="qcurve"/>
      <point x="339" y="394"/>
      <point x="468" y="283" type="qcurve"/>
      <point x="498" y="259" type="line"/>
      <point x="502" y="256"/>
      <point x="502" y="235"/>
      <point x="494" y="210"/>
      <point x="488" y="205" type="qcurve"/>
      <point x="384" y="125"/>
      <point x="268" y="-17" type="qcurve"/>
      <point x="265" y="-21"/>
      <point x="261" y="-21" type="qcurve"/>
      <point x="252" y="-21"/>
      <point x="237" y="7"/>
      <point x="237" y="31"/>
      <point x="243" y="37" type="qcurve"/>
    </contour>
    <contour>
      <point x="85" y="83" type="line"/>
      <point x="155" y="156"/>
      <point x="244" y="236" type="qcurve"/>
      <point x="135" y="332"/>
      <point x="39" y="428" type="qcurve"/>
      <point x="33" y="434"/>
      <point x="33" y="458"/>
      <point x="49" y="483"/>
      <point x="62" y="483"/>
      <point x="65" y="479" type="qcurve"/>
      <point x="134" y="394"/>
      <point x="263" y="283" type="qcurve"/>
      <point x="293" y="259" type="line"/>
      <point x="297" y="256"/>
      <point x="297" y="235"/>
      <point x="289" y="210"/>
      <point x="283" y="205" type="qcurve"/>
      <point x="214" y="154"/>
      <point x="126" y="56" type="qcurve"/>
      <point x="89" y="15"/>
      <point x="60" y="-21"/>
      <point x="56" y="-21" type="qcurve"/>
      <point x="47" y="-21"/>
      <point x="32" y="7"/>
      <point x="32" y="31"/>
      <point x="38" y="37" type="qcurve"/>
    </contour>
  </outline>
</glyph>
<glyph name="onequarter" format="2">
  <advance height="1000" width="1000"/>
  <unicode hex="00BC"/>
  <outline>
    <contour>
      <point x="177" y="11" type="line"/>
      <point x="147" y="-19"/>
      <point x="94" y="-80" type="qcurve"/>
      <point x="88" y="-86"/>
      <point x="73" y="-86"/>
      <point x="58" y="-60"/>
      <point x="58" y="-36"/>
      <point x="63" y="-32" type="qcurve"/>
      <point x="102" y="1"/>
      <point x="145" y="44" type="qcurve"/>
      <point x="836" y="739" type="line"/>
      <point x="855" y="759"/>
      <point x="900" y="806"/>
      <point x="919" y="830" type="qcurve"/>
      <point x="925" y="837"/>
      <point x="940" y="837"/>
      <point x="955" y="810"/>
      <point x="955" y="786"/>
      <point x="950" y="782" type="qcurve"/>
      <point x="932" y="765"/>
      <point x="888" y="727"/>
      <point x="868" y="706" type="qcurve"/>
    </contour>
    <contour>
      <point x="276" y="448" type="line"/>
      <point x="276" y="402"/>
      <point x="278" y="358" type="qcurve"/>
      <point x="278" y="356" type="line"/>
      <point x="278" y="344"/>
      <point x="250" y="344"/>
      <point x="224" y="360"/>
      <point x="224" y="372" type="qcurve"/>
      <point x="224" y="373" type="line"/>
      <point x="226" y="443" type="line"/>
      <point x="226" y="703" type="line"/>
      <point x="196" y="684"/>
      <point x="165" y="676" type="qcurve"/>
      <point x="163" y="675"/>
      <point x="147" y="675"/>
      <point x="126" y="687"/>
      <point x="126" y="698"/>
      <point x="142" y="704" type="qcurve"/>
      <point x="161" y="712"/>
      <point x="213" y="749" type="qcurve"/>
      <point x="218" y="753"/>
      <point x="239" y="779"/>
      <point x="248" y="779" type="qcurve"/>
      <point x="257" y="779"/>
      <point x="280" y="761"/>
      <point x="280" y="750" type="qcurve"/>
      <point x="276" y="693" type="line"/>
    </contour>
    <contour>
      <point x="645" y="34" type="line"/>
      <point x="642" y="34"/>
      <point x="617" y="29" type="qcurve"/>
      <point x="604" y="29"/>
      <point x="580" y="51"/>
      <point x="580" y="74"/>
      <point x="586" y="81" type="qcurve"/>
      <point x="592" y="88"/>
      <point x="682" y="216"/>
      <point x="708" y="256" type="qcurve"/>
      <point x="772" y="354"/>
      <point x="782" y="382" type="qcurve"/>
      <point x="785" y="388"/>
      <point x="801" y="388"/>
      <point x="827" y="362"/>
      <point x="827" y="345"/>
      <point x="822" y="338" type="qcurve"/>
      <point x="812" y="325"/>
      <point x="782" y="279"/>
      <point x="756" y="240" type="qcurve"/>
      <point x="688" y="139"/>
      <point x="645" y="80" type="qcurve"/>
      <point x="810" y="87" type="line"/>
      <point x="810" y="206" type="line"/>
      <point x="809" y="270" type="line"/>
      <point x="809" y="280"/>
      <point x="837" y="280"/>
      <point x="861" y="269"/>
      <point x="861" y="259" type="qcurve"/>
      <point x="860" y="206" type="line"/>
      <point x="860" y="88" type="line"/>
      <point x="917" y="93" type="line"/>
      <point x="928" y="93"/>
      <point x="941" y="67"/>
      <point x="941" y="42"/>
      <point x="931" y="42" type="qcurve"/>
      <point x="860" y="42" type="line"/>
      <point x="860" y="15" type="line"/>
      <point x="862" y="-47" type="line"/>
      <point x="862" y="-57"/>
      <point x="847" y="-57" type="qcurve"/>
      <point x="809" y="-57"/>
      <point x="809" y="-37" type="qcurve"/>
      <point x="810" y="16" type="line"/>
      <point x="810" y="41" type="line"/>
    </contour>
  </outline>
</glyph>
<glyph name="onehalf" format="2">
  <advance height="1000" width="1000"/>
  <unicode hex="00BD"/>
  <outline>
    <contour>
      <point x="177" y="11" type="line"/>
      <point x="147" y="-19"/>
      <point x="94" y="-80" type="qcurve"/>
      <point x="88" y="-86"/>
      <point x="73" y="-86"/>
      <point x="58" y="-60"/>
      <point x="58" y="-36"/>
      <point x="63" y="-32" type="qcurve"/>
      <point x="102" y="1"/>
      <point x="145" y="44" type="qcurve"/>
      <point x="836" y="739" type="line"/>
      <point x="855" y="759"/>
      <point x="900" y="806"/>
      <point x="919" y="830" type="qcurve"/>
      <point x="925" y="837"/>
      <point x="940" y="837"/>
      <point x="955" y="810"/>
      <point x="955" y="786"/>
      <point x="950" y="782" type="qcurve"/>
      <point x="932" y="765"/>
      <point x="888" y="727"/>
      <point x="868" y="706" type="qcurve"/>
    </contour>
    <contour>
      <point x="276" y="448" type="line"/>
      <point x="276" y="402"/>
      <point x="278" y="358" type="qcurve"/>
      <point x="278" y="356" type="line"/>
      <point x="278" y="344"/>
      <point x="250" y="344"/>
      <point x="224" y="360"/>
      <point x="224" y="372" type="qcurve"/>
      <point x="224" y="373" type="line"/>
      <point x="226" y="443" type="line"/>
      <point x="226" y="703" type="line"/>
      <point x="196" y="684"/>
      <point x="165" y="676" type="qcurve"/>
      <point x="163" y="675"/>
      <point x="147" y="675"/>
      <point x="126" y="687"/>
      <point x="126" y="698"/>
      <point x="142" y="704" type="qcurve"/>
      <point x="161" y="712"/>
      <point x="213" y="749" type="qcurve"/>
      <point x="218" y="753"/>
      <point x="239" y="779"/>
      <point x="248" y="779" type="qcurve"/>
      <point x="257" y="779"/>
      <point x="280" y="761"/>
      <point x="280" y="750" type="qcurve"/>
      <point x="276" y="693" type="line"/>
    </contour>
    <contour>
      <point x="808" y="-58" type="qcurve"/>
      <point x="727" y="-58" type="line"/>
      <point x="673" y="-58"/>
      <point x="636" y="-65" type="qcurve"/>
      <point x="633" y="-65" type="line"/>
      <point x="620" y="-65"/>
      <point x="600" y="-39"/>
      <point x="600" y="-21"/>
      <point x="607" y="-11"/>
      <point x="615" y="-3"/>
      <point x="619" y="1" type="qcurve"/>
      <point x="638" y="30"/>
      <point x="717" y="114"/>
      <point x="812" y="185"/>
      <point x="864" y="233"/>
      <point x="864" y="290"/>
      <point x="822" y="324"/>
      <point x="781" y="324" type="qcurve"/>
      <point x="704" y="324"/>
      <point x="676" y="268" type="qcurve"/>
      <point x="672" y="261"/>
      <point x="663" y="247"/>
      <point x="648" y="247"/>
      <point x="626" y="267"/>
      <point x="626" y="285"/>
      <point x="644" y="314"/>
      <point x="663" y="330" type="qcurve"/>
      <point x="708" y="370"/>
      <point x="849" y="370"/>
      <point x="915" y="311"/>
      <point x="915" y="222"/>
      <point x="856" y="155"/>
      <point x="808" y="120" type="qcurve"/>
      <point x="724" y="59"/>
      <point x="669" y="-14" type="qcurve"/>
      <point x="711" y="-12"/>
      <point x="759" y="-12" type="qcurve"/>
      <point x="854" y="-13" type="line"/>
      <point x="896" y="-12" type="line"/>
      <point x="907" y="-12"/>
      <point x="922" y="-36"/>
      <point x="922" y="-47" type="qcurve"/>
      <point x="922" y="-63"/>
      <point x="908" y="-63" type="qcurve"/>
      <point x="902" y="-63"/>
      <point x="886" y="-62" type="qcurve"/>
      <point x="850" y="-58"/>
    </contour>
  </outline>
</glyph>
<glyph name="questiondown" format="2">
  <advance height="1000" width="600"/>
  <unicode hex="00BF"/>
  <outline>
    <contour>
      <point x="362" y="429"/>
      <point x="341" y="405"/>
      <point x="303" y="405"/>
      <point x="271" y="443"/>
      <point x="271" y="463" type="qcurve"/>
      <point x="271" y="505"/>
      <point x="311" y="505" type="qcurve"/>
      <point x="331" y="505"/>
      <point x="362" y="468"/>
    </contour>
    <contour>
      <point x="283" y="318" type="qcurve"/>
      <point x="283" y="332"/>
      <point x="338" y="332"/>
      <point x="349" y="296"/>
      <point x="349" y="280" type="qcurve"/>
      <point x="349" y="253"/>
      <point x="339" y="186"/>
      <point x="296" y="129"/>
      <point x="238" y="82"/>
      <point x="210" y="58" type="qcurve"/>
      <point x="146" y="2"/>
      <point x="146" y="-68" type="qcurve"/>
      <point x="146" y="-113"/>
      <point x="202" y="-162"/>
      <point x="302" y="-162"/>
      <point x="377" y="-131"/>
      <point x="402" y="-108" type="qcurve"/>
      <point x="449" y="-68"/>
      <point x="460" y="-26" type="qcurve"/>
      <point x="464" y="-13"/>
      <point x="477" y="-13" type="qcurve"/>
      <point x="490" y="-13"/>
      <point x="516" y="-34"/>
      <point x="516" y="-51"/>
      <point x="513" y="-56" type="qcurve"/>
      <point x="467" y="-138"/>
      <point x="338" y="-211"/>
      <point x="176" y="-211"/>
      <point x="87" y="-138"/>
      <point x="87" y="-22"/>
      <point x="126" y="50"/>
      <point x="184" y="104"/>
      <point x="244" y="150"/>
      <point x="266" y="176" type="qcurve"/>
      <point x="293" y="207"/>
      <point x="293" y="246" type="qcurve"/>
      <point x="293" y="257" type="line"/>
      <point x="293" y="284"/>
      <point x="283" y="315"/>
    </contour>
  </outline>
</glyph>
<glyph name="Agrave" format="2">
  <advance height="1000" width="690"/>
  <unicode hex="00C0"/>
  <outline>
    <contour>
      <point x="449" y="761" type="qcurve"/>
      <point x="449" y="746"/>
      <point x="434" y="746" type="qcurve"/>
      <point x="430" y="746"/>
      <point x="410" y="758" type="qcurve"/>
      <point x="353" y="790"/>
      <point x="254" y="831" type="qcurve"/>
      <point x="246" y="834"/>
      <point x="246" y="854"/>
      <point x="280" y="882"/>
      <point x="296" y="882"/>
      <point x="300" y="880" type="qcurve"/>
      <point x="387" y="823"/>
      <point x="443" y="773" type="qcurve"/>
      <point x="449" y="767"/>
    </contour>
    <contour>
      <point x="318" y="662"/>
      <point x="324" y="699"/>
      <point x="338" y="710"/>
      <point x="360" y="710"/>
      <point x="396" y="690"/>
      <point x="396" y="676" type="qcurve"/>
      <point x="396" y="663" type="line"/>
      <point x="396" y="649"/>
      <point x="450" y="520" type="qcurve"/>
      <point x="590" y="187"/>
      <point x="652" y="78" type="qcurve"/>
      <point x="669" y="48"/>
      <point x="678" y="35" type="qcurve"/>
      <point x="689" y="19"/>
      <point x="689" y="15" type="qcurve"/>
      <point x="689" y="5"/>
      <point x="660" y="-7"/>
      <point x="648" y="-7" type="qcurve"/>
      <point x="621" y="-7"/>
      <point x="617" y="4" type="qcurve"/>
      <point x="601" y="51"/>
      <point x="565" y="131"/>
      <point x="533" y="203"/>
      <point x="516" y="240" type="qcurve"/>
      <point x="172" y="227" type="line"/>
      <point x="156" y="193"/>
      <point x="123" y="129"/>
      <point x="112" y="106" type="qcurve"/>
      <point x="86" y="53"/>
      <point x="71" y="11" type="qcurve"/>
      <point x="65" y="-6"/>
      <point x="1" y="-6"/>
      <point x="1" y="10" type="qcurve"/>
      <point x="1" y="17"/>
      <point x="9" y="28"/>
      <point x="18" y="44"/>
      <point x="38" y="81"/>
      <point x="76" y="155"/>
      <point x="110" y="221" type="qcurve"/>
      <point x="100" y="220" type="line"/>
      <point x="99" y="220" type="line"/>
      <point x="88" y="220"/>
      <point x="68" y="251"/>
      <point x="68" y="275"/>
      <point x="78" y="275" type="qcurve"/>
      <point x="80" y="275" type="line"/>
      <point x="98" y="273"/>
      <point x="117" y="273" type="qcurve"/>
      <point x="135" y="273" type="line"/>
      <point x="255" y="509"/>
      <point x="314" y="652" type="qcurve"/>
    </contour>
    <contour>
      <point x="495" y="287" type="line"/>
      <point x="384" y="545"/>
      <point x="356" y="620" type="qcurve"/>
      <point x="322" y="535"/>
      <point x="195" y="274" type="qcurve"/>
    </contour>
  </outline>
</glyph>
